<ttFont>
          <CharString index="0">
            222 callgsubr
            -20 14 -15 41 hvcurveto
            return
          </CharString>
          <CharString index="1">
            rmoveto
            -107 callsubr
            return
          </CharString>
          <CharString index="2">
            -22 -115 -27 -116 -20 vvcurveto
            -24 25 -18 14 28 33 174 140 33 vhcurveto
            21 90 26 -95 callsubr
          </CharString>
          <CharString index="3">
            vvcurveto
            71 -41 75 -77 -134 -103 -107 -151 -110 58 -99 98 155 callsubr
            14 -20 vhcurveto
            -28 -3 -23 -41 hhcurveto
            -45 -32 55 78 101 76 87 84 43 15 -45 -36 hvcurveto
            -43 -12 -19 -26 vvcurveto
            -15 6 -12 18 vhcurveto
            return
          </CharString>
          <CharString index="4">
            -104 callsubr
            0 1 vlineto
            return
          </CharString>
          <CharString index="5">
            rmoveto
            -37 -148 -175 -122 -143 -9 rrcurveto
            96 62 90 322 callsubr
            198 hlineto
            return
          </CharString>
          <CharString index="6">
            hlineto
            -98 callgsubr
            return
          </CharString>
          <CharString index="7">
            137 callgsubr
            0 1 vlineto
            return
          </CharString>
          <CharString index="8">
            9 hlineto
            -10 -40 -8 -39 -8 -34 rrcurveto
            -38 -12 -28 -25 -28 vvcurveto
            -23 27 -20 27 28 16 23 36 12 vhcurveto
            3 hlineto
            28 23 -25 -26 -54 -76 -31 -109 hvcurveto
            -108 -56 48 -29 hhcurveto
            -16 -7 -6 -13 -38 111 -51 106 141 104 55 92 51 -42 48 -58 5 hvcurveto
            5 21 5 22 5 23 4 16 4 16 5 15 rrcurveto
            85 16 76 43 61 301 callgsubr
            -63 -38 -57 -71 -27 vhcurveto
            -1 -10 -10 0 -10 hhcurveto
            -77 -46 58 callgsubr
            52 13 -37 98 callsubr
            7 6 hvcurveto
            10 7 2 14 17 vvcurveto
            96 23 48 13 31 110 callgsubr
          </CharString>
          <CharString index="9">
            -23 -121 -29 -126 -21 -78 callgsubr
            return
          </CharString>
          <CharString index="10">
            4 hlineto
            -18 -53 -15 -56 -15 -46 rrcurveto
            30 -39 -40 22 -40 hhcurveto
            -44 -29 -29 -43 -72 87 -73 48 30 28 25 49 26 hvcurveto
            33 -28 36 -30 34 -20 rrcurveto
            -22 36 35 -8 37 hhcurveto
            30 34 11 21 14 -19 2 -34 -71 -65 56 54 -63 hvcurveto
            12 29 12 35 12 40 10 32 11 35 11 32 rrcurveto
            83 16 74 43 60 vvcurveto
            46 -36 25 -37 -56 -40 -54 -71 -30 vhcurveto
            -1 -10 -10 0 -11 hhcurveto
            -77 -45 58 callgsubr
            51 13 -37 98 callsubr
            7 6 hvcurveto
            10 7 2 14 17 vvcurveto
            96 23 48 13 31 vhcurveto
            165 -107 callgsubr
          </CharString>
          <CharString index="11">
            16 19 20 -13 14 return
          </CharString>
          <CharString index="12">
            126 4 39 -93 callsubr
          </CharString>
          <CharString index="13">
            67 callsubr
            105 77 83 83 214 callgsubr
            -23 -121 -29 -126 -21 vvcurveto
            -24 25 -18 14 28 33 -68 callsubr
            27 -48 callgsubr
            39 92 callgsubr
          </CharString>
          <CharString index="14">
            rrcurveto
            118 -107 callgsubr
          </CharString>
          <CharString index="15">
            rcurveline
            -98 callsubr
            return
          </CharString>
          <CharString index="16">
            rmoveto
            7 67 2 66 49 vvcurveto
            8 233 vlineto
            -9 -52 -10 -50 -10 -53 -48 -7 -79 -15 -68 -10 rrcurveto
            -165 -226 rmoveto
            -26 -38 51 33 28 53 16 73 13 hvcurveto
            -78 -12 -20 -63 -30 hhcurveto
            return
          </CharString>
          <CharString index="17">
            -40 -14 -13 -21 -20 14 -15 40 144 callsubr
            34 41 22 49 45 vvcurveto
            81 -46 50 -86 -74 -92 -60 -62 -19 23 -25 13 10 9 6 6 5 vhcurveto
            8 9 0 10 9 18 rrcurveto
            21 10 48 21 33 hhcurveto
            42 20 -19 -41 -55 -42 -55 -54 -37 hvcurveto
            4 -21 -22 3 -22 hhcurveto
            -47 -28 -11 -21 -21 35 -41 29 28 28 8 13 27 hvcurveto
            28 -14 16 -25 -31 vvcurveto
            -64 -57 -41 -85 -87 -49 37 75 17 -11 17 -16 -27 -15 -24 -34 -81 76 -78 127 133 91 71 105 35 -14 29 -22 22 vhcurveto
            70 11 76 18 68 24 -5 -21 rcurveline
            -29 -128 -29 -124 -33 vvcurveto
            -15 26 -21 15 33 35 220 callsubr
            20 89 30 126 6 38 rrcurveto
            return
          </CharString>
          <CharString index="18">
            -94 callgsubr
            -3 return
          </CharString>
          <CharString index="19">
            -12 -41 -6 -41 -36 vvcurveto
            -68 11 -61 28 35 -18 78 94 16 vhcurveto
            5 28 7 28 9 25 rrcurveto
            86 15 77 43 62 301 callgsubr
            -58 -49 -57 -72 -33 vhcurveto
            -18 hlineto
            -77 -46 58 callgsubr
            52 13 -37 98 callsubr
            7 6 hvcurveto
            10 7 2 14 17 vvcurveto
            96 23 48 13 31 vhcurveto
            139 -102 callgsubr
          </CharString>
          <CharString index="20">
            386 -91 callsubr
            return
          </CharString>
          <CharString index="21">
            -33 callsubr
            -67 497 -80 callsubr
            return
          </CharString>
          <CharString index="22">
            rrcurveto
            23 22 24 15 22 hhcurveto
            20 15 -21 -23 14 hvcurveto
            -23 13 12 -20 17 hhcurveto
            15 7 15 20 46 -51 78 -52 -130 -111 -183 -132 -75 31 -53 79 return
          </CharString>
          <CharString index="23">
            43 callsubr
            7 18 14 12 -34 callgsubr
            return
          </CharString>
          <CharString index="24">
            -63 callgsubr
            70 35 94 87 55 callgsubr
            16 -41 23 -26 return
          </CharString>
          <CharString index="25">
            -12 -15 -27 -20 -24 44 -58 20 12 8 9 16 27 -31 77 -26 hvcurveto
            return
          </CharString>
          <CharString index="26">
            -84 callsubr
            -100 return
          </CharString>
          <CharString index="27">
            rmoveto
            -41 -14 -13 -21 -20 14 -15 41 -69 callsubr
            return
          </CharString>
          <CharString index="28">
            hlineto
            -15 -85 -17 -84 -17 -90 rrcurveto
            -22 -121 -33 -119 -22 vvcurveto
            -21 33 -64 callgsubr
            return
          </CharString>
          <CharString index="29">
            -14 -73 -17 -71 -10 -48 rrcurveto
            26 -27 -35 20 -35 hhcurveto
            -51 -55 -48 -43 -45 hvcurveto
            -58 -58 -67 -75 -23 221 callsubr
            24 63 75 53 54 vhcurveto
            38 40 39 33 34 hhcurveto
            31 31 -32 -25 23 hvcurveto
            9 -7 9 -6 9 -3 23 callsubr
            99 -61 callgsubr
          </CharString>
          <CharString index="30">
            rmoveto
            -9 -2 -6 -7 -2 -9 rrcurveto
            -129 -33 -97 -89 -58 hhcurveto
            -24 -23 14 24 83 133 209 82 27 10 -43 -50 hvcurveto
            -46 176 rmoveto
            -132 -158 -256 -119 -57 75 -64 60 54 63 52 61 48 hvcurveto
            -65 3 16 -48 24 hhcurveto
            23 -1 57 62 11 hvcurveto
            14 77 8 42 30 vvcurveto
            8 -5 9 -7 9 vhcurveto
            13 20 12 29 22 vvcurveto
            349 callsubr
            vhcurveto
            return
          </CharString>
          <CharString index="31">
            -17 -76 -15 -64 -16 287 callsubr
            36 30 134 121 27 vhcurveto
            61 80 72 54 42 hhcurveto
            22 10 -13 -22 hvcurveto
            -127 -124 -68 -35 vvcurveto
            -13 17 -10 14 38 122 137 103 58 -45 55 -61 -47 -57 -35 -44 -61 vhcurveto
            19 82 20 96 3 35 rrcurveto
            302 -61 callgsubr
          </CharString>
          <CharString index="32">
            174 140 return
          </CharString>
          <CharString index="33">
            -48 callgsubr
            39 rrcurveto
            return
          </CharString>
          <CharString index="34">
            rmoveto
            -76 callgsubr
            return
          </CharString>
          <CharString index="35">
            rmoveto
            -14 -3 -8 -20 -5 hvcurveto
            -147 -40 -130 -241 -80 hhcurveto
            -18 -16 15 22 hvcurveto
            128 108 168 29 vvcurveto
            28 -21 26 -24 -50 -98 -253 -127 -53 58 -63 55 56 71 70 86 53 vhcurveto
            -14 -46 -9 -43 -25 vvcurveto
            -28 15 -14 16 13 13 14 28 8 vhcurveto
            63 214 49 145 19 vvcurveto
            32 -33 44 -23 vhcurveto
            return
          </CharString>
          <CharString index="36">
            -56 42 53 -73 28 258 callsubr
            18 -50 314 callgsubr
            -11 15 -13 19 -14 20 rrcurveto
            10 hlineto
            171 116 133 129 return
          </CharString>
          <CharString index="37">
            69 -106 callsubr
            return
          </CharString>
          <CharString index="38">
            hvcurveto
            247 callsubr
            -52 -3 -77 -8 -73 vhcurveto
            -114 -12 -91 -30 -68 vvcurveto
            -63 69 -97 69 73 39 99 115 21 vhcurveto
            1 23 23 0 23 return
          </CharString>
          <CharString index="39">
            -75 callsubr
            32 vhcurveto
            21 90 return
          </CharString>
          <CharString index="40">
            vhcurveto
            19 16 35 41 hhcurveto
            31 16 -22 -38 return
          </CharString>
          <CharString index="41">
            vvcurveto
            -130 102 -92 135 48 32 14 20 14 -20 6 -35 2 vhcurveto
            -99 4 -86 46 114 vvcurveto
            75 48 49 88 70 29 -36 -60 -24 3 -20 15 31 12 41 35 72 -54 64 -109 -7 -6 0 -1 -6 vhcurveto
            -11 13 -5 14 16 vvcurveto
            33 30 16 69 vhcurveto
            38 24 -3 24 hhcurveto
            8 6 1 2 6 hvcurveto
            25 6 8 47 49 126 callgsubr
            48 callgsubr
          </CharString>
          <CharString index="42">
            -75 callsubr
            33 return
          </CharString>
          <CharString index="43">
            rmoveto
            -41 -13 -13 -21 -20 13 -15 41 hvcurveto
            return
          </CharString>
          <CharString index="44">
            rmoveto
            43 -46 40 -19 -16 -4 -8 -22 vhcurveto
            -126 -84 -196 -161 vvcurveto
            -94 69 -101 87 175 153 272 313 81 -60 42 -23 -14 -4 -6 -15 vhcurveto
            -31 9 -31 -74 vvcurveto
            -252 -142 -214 -86 -46 -30 51 75 vhcurveto
            109 81 218 87 vvcurveto
            return
          </CharString>
          <CharString index="45">
            87 callsubr
            -34 -14 43 62 123 45 83 13 44 vhcurveto
            -204 69 rmoveto
            -25 callgsubr
            return
          </CharString>
          <CharString index="46">
            rmoveto
            -10 -55 -10 -54 -11 -56 rrcurveto
            29 -29 -44 22 -54 286 callgsubr
            56 -53 77 -6 hvcurveto
            -32 -63 -69 -17 -67 -53 callsubr
            178 -300 rmoveto
            113 callsubr
            45 -50 -33 -20 -40 -22 -45 hvcurveto
            return
          </CharString>
          <CharString index="47">
            rmoveto
            -82 72 -115 93 189 184 266 187 127 -80 125 -116 -142 -200 -256 -252 vhcurveto
            348 423 rmoveto
            47 51 -61 -118 -147 -173 -215 -102 -40 -40 47 77 196 177 221 80 hvcurveto
            return
          </CharString>
          <CharString index="48">
            -265 94 645 rmoveto
            -49 -29 -7 -25 -25 41 -12 72 hvcurveto
            43 hlineto
            -15 -85 -18 -84 -37 callsubr
            return
          </CharString>
          <CharString index="49">
            -69 callgsubr
            96 -66 77 -117 return
          </CharString>
          <CharString index="50">
            rmoveto
            85 -56 83 -85 -120 -120 -177 -157 -90 50 -72 69 144 118 172 156 vhcurveto
            -127 107 rmoveto
            29 -19 14 -48 -42 vvcurveto
            -90 -70 -148 -103 -20 vhcurveto
            -30 15 -8 37 38 vvcurveto
            104 71 146 97 27 vhcurveto
            return
          </CharString>
          <CharString index="51">
            rmoveto
            -61 -87 -134 -188 -111 hvcurveto
            31 94 24 122 41 vvcurveto
            30 -36 39 -30 -15 -4 -29 -44 -2 vhcurveto
            -1 -53 -9 -86 -20 -76 rrcurveto
            -18 -70 -26 -69 -11 vvcurveto
            -23 33 -39 20 23 49 88 73 47 vhcurveto
            125 80 63 112 42 hhcurveto
            13 16 -21 -30 -33 -13 -53 -16 -54 hvcurveto
            -24 -80 -27 -64 -33 vvcurveto
            -21 7 -9 15 36 39 87 105 33 vhcurveto
            21 66 12 63 47 vvcurveto
            62 -58 66 -46 vhcurveto
            endchar
          </CharString>
          <CharString index="52">
            rmoveto
            -43 53 -52 76 -37 67 rrcurveto
            21 20 20 13 19 hhcurveto
            55 36 -97 -102 21 hvcurveto
            -12 -11 -13 -10 -14 -10 rrcurveto
            -223 -12 rmoveto
            44 21 58 28 49 vhcurveto
            37 -58 49 -64 45 -45 rrcurveto
            -27 -47 -49 -18 -40 hhcurveto
            -32 -12 21 40 hvcurveto
            return
          </CharString>
          <CharString index="53">
            hhcurveto
            71 70 47 71 57 hvcurveto
            -22 -114 -27 -108 -21 236 callsubr
            34 174 140 33 vhcurveto
            21 90 26 -95 callsubr
          </CharString>
          <CharString index="54">
            hhcurveto
            -77 -42 44 47 -33 hvcurveto
            129 24 92 96 107 vvcurveto
            31 -7 29 -13 24 vhcurveto
            return
          </CharString>
          <CharString index="55">
            142 callsubr
            -33 11 callsubr
            33 -27 12 return
          </CharString>
          <CharString index="56">
            rmoveto
            -55 callgsubr
            return
          </CharString>
          <CharString index="57">
            645 -106 callsubr
            return
          </CharString>
          <CharString index="58">
            -20 -73 -20 -125 -19 -82 rrcurveto
            98 -15 -50 104 -71 hhcurveto
            return
          </CharString>
          <CharString index="59">
            rmoveto
            6 5 0 1 5 hvcurveto
            -5 -14 -3 -15 -16 228 callsubr
            hhcurveto
            -48 -24 28 18 -22 186 callgsubr
            249 100 callsubr
            262 289 rmoveto
            61 44 -42 -62 -9 -1 -10 -1 -9 hvcurveto
            -5 -26 -30 -5 -32 hhcurveto
            -59 -44 29 46 39 34 28 54 hvcurveto
            -871 49 127 callsubr
            149 62 101 74 hvcurveto
            25 -41 37 -49 30 -38 49 callsubr
            -54 -44 -17 -27 -29 hvcurveto
            11 -6 -15 7 -29 hhcurveto
            454 hmoveto
            -107 callsubr
            31 hlineto
            -15 -85 -17 -84 -17 -90 rrcurveto
            -98 callsubr
            116 -101 callsubr
            endchar
          </CharString>
          <CharString index="60">
            rmoveto
            23 -37 41 -25 -14 -6 -20 -23 -1 vhcurveto
            -6 -62 -11 -256 -80 -212 -71 156 -110 302 -23 54 rrcurveto
            31 -12 -33 28 -14 hhcurveto
            -13 -4 -8 -24 hvcurveto
            -4 -119 -128 -421 -70 vvcurveto
            -24 34 -38 16 19 19 110 379 98 vhcurveto
            40 -102 111 -282 26 -60 rrcurveto
            -27 12 27 -18 16 hhcurveto
            82 92 486 156 hvcurveto
            return
          </CharString>
          <CharString index="61">
            -45 callgsubr
            46 return
          </CharString>
          <CharString index="62">
            65 callsubr
            -135 197 callsubr
            290 106 callgsubr
            hvcurveto
            -129 242 -44 -92 vvcurveto
            -29 -31 -21 -47 -10 vhcurveto
            87 -38 -51 80 -87 hhcurveto
            -63 -50 -38 -60 -90 99 -53 115 13 12 0 1 12 hvcurveto
            -93 38 40 -101 35 hhcurveto
            14 7 7 15 23 -39 82 -31 76 hvcurveto
            76 16 52 38 63 vvcurveto
            return
          </CharString>
          <CharString index="63">
            -27 12 22 -41 callgsubr
            return
          </CharString>
          <CharString index="64">
            rmoveto
            34 -29 -11 25 -26 hhcurveto
            -19 -42 -29 -27 -47 hvcurveto
            -49 -28 -20 -21 -30 vvcurveto
            -19 15 -13 16 34 40 54 36 70 vhcurveto
            -45 35 44 -58 35 hhcurveto
            14 11 9 11 26 -37 36 -34 39 hvcurveto
            return
          </CharString>
          <CharString index="65">
            194 callsubr
            -9 -1 -8 hvcurveto
            -4 -16 -18 -3 -21 hhcurveto
            return
          </CharString>
          <CharString index="66">
            139 callsubr
            hvcurveto
            -13 17 -13 18 -12 18 return
          </CharString>
          <CharString index="67">
            rmoveto
            25 21 -25 -15 -41 -79 -20 -85 -3 hvcurveto
            53 35 45 51 38 hhcurveto
            -337 427 -106 callsubr
            368 hlineto
            -12 -29 -7 -41 -1 -39 rrcurveto
            11 -17 -18 7 -16 hhcurveto
            -105 -235 -193 -114 -39 41 -52 49 -19 hvcurveto
            -7 callsubr
            return
          </CharString>
          <CharString index="68">
            vvcurveto
            -91 95 -41 112 -4 vhcurveto
            -110 10 58 -120 45 hhcurveto
            14 11 6 14 23 -62 66 -9 122 hvcurveto
            110 12 92 58 82 vvcurveto
            57 -49 41 -55 -101 -53 -87 -98 -10 vhcurveto
            -70 5 -60 19 45 vvcurveto
            return
          </CharString>
          <CharString index="69">
            rmoveto
            -14 -12 -12 -10 -29 62 -11 74 -38 hvcurveto
            -49 95 88 -61 24 hhcurveto
            8 4 5 10 43 -258 152 -71 hvcurveto
            return
          </CharString>
          <CharString index="70">
            -52 callsubr
            23 50 55 callsubr
            return
          </CharString>
          <CharString index="71">
            13 callgsubr
            -466 160 rmoveto
            -59 -44 29 46 39 34 28 54 61 44 -42 -62 -9 -1 -10 -1 -9 hvcurveto
            -5 -26 -30 -5 -32 hhcurveto
            183 191 rmoveto
            222 callgsubr
            hvcurveto
            -2 vlineto
            38 -31 -49 24 -66 -20 callgsubr
            31 -7 29 -13 25 hvcurveto
            -4 9 12 -3 17 hhcurveto
            336 hlineto
            89 callgsubr
            -104 -122 -187 -81 -45 59 -42 42 61 76 44 52 75 hvcurveto
            -76 callsubr
          </CharString>
          <CharString index="72">
            hhcurveto
            -105 -114 -175 -82 -45 55 -43 42 return
          </CharString>
          <CharString index="73">
            -6 -57 -16 -38 -27 vvcurveto
            -18 12 -17 15 38 40 172 133 29 vhcurveto
            21 94 24 116 5 54 92 callgsubr
          </CharString>
          <CharString index="74">
            rmoveto
            -26 -38 50 34 32 53 17 72 8 hvcurveto
            -79 -12 -20 -62 -29 hhcurveto
            return
          </CharString>
          <CharString index="75">
            -15 -84 -12 -74 -13 -85 rrcurveto
            -44 115 callgsubr
            181 callgsubr
            119 27 callsubr
            46 76 60 30 43 hhcurveto
            34 11 -20 -32 hvcurveto
            return
          </CharString>
          <CharString index="76">
            vvcurveto
            -14 13 -17 14 23 78 125 46 37 vhcurveto
            -89 3 69 -120 38 hhcurveto
            11 5 6 12 return
          </CharString>
          <CharString index="77">
            -9 -59 -10 -56 -7 -40 rrcurveto
            24 -25 -33 20 -33 hhcurveto
            -52 -52 -43 -39 -42 hvcurveto
            -61 -58 -71 -78 -26 221 callsubr
            24 66 74 53 54 vhcurveto
            39 40 39 29 35 hhcurveto
            32 31 -41 -24 22 hvcurveto
            -7 10 9 -7 11 361 callsubr
            33 21 167 141 28 hvcurveto
            44 79 66 37 37 hhcurveto
            17 5 -21 -27 -102 -33 -87 -58 -9 hvcurveto
            -13 -5 -15 3 -14 vvcurveto
            -19 32 -33 24 85 52 159 119 68 -27 42 -62 -45 -63 -31 -35 -64 vhcurveto
            14 71 12 73 3 28 rrcurveto
            315 -107 callgsubr
          </CharString>
          <CharString index="78">
            115 callgsubr
            -203 67 callgsubr
            120 44 callgsubr
            return
          </CharString>
          <CharString index="79">
            rmoveto
            258 callgsubr
            vhcurveto
            45 -81 70 -100 44 -54 rrcurveto
            -21 -38 -45 -17 -49 hhcurveto
            332 callsubr
            hvcurveto
            -129 291 -2 callgsubr
            return
          </CharString>
          <CharString index="80">
            -40 -37 -43 -35 -36 -31 rrcurveto
            1 10 1 10 9 vvcurveto
            71 -38 75 -85 return
          </CharString>
          <CharString index="81">
            vvcurveto
            -70 65 -88 67 77 65 92 115 39 vhcurveto
            65 6 63 5 45 8 rrcurveto
            -22 -116 -27 18 callgsubr
            116 -61 callgsubr
          </CharString>
          <CharString index="82">
            65 -38 147 -6 -49 vvcurveto
            -36 -38 -31 -72 -79 -35 31 39 -15 vhcurveto
            21 -8 -13 13 -19 hhcurveto
            return
          </CharString>
          <CharString index="83">
            vvcurveto
            35 -8 31 -16 25 vhcurveto
            return
          </CharString>
          <CharString index="84">
            -73 callsubr
            87 hlineto
            -6 -9 -3 -9 -9 vvcurveto
            -21 36 -25 18 16 9 17 14 11 vhcurveto
            15 11 21 10 25 hhcurveto
            42 20 -26 -48 -105 -98 -93 -110 hvcurveto
            -38 -20 42 -28 hhcurveto
            -11 -9 -17 -19 hvcurveto
            -1 vlineto
            0 vlineto
            -30 63 -96 48 -63 vhcurveto
            -78 60 68 -86 29 hhcurveto
            17 8 8 16 21 -72 81 -55 77 hvcurveto
            -15 20 -16 26 -17 26 rrcurveto
            152 6 123 126 141 359 callgsubr
            24 vhcurveto
            102 -102 callgsubr
          </CharString>
          <CharString index="85">
            68 callgsubr
            -1 vlineto
            308 callgsubr
            return
          </CharString>
          <CharString index="86">
            -20 -18 callsubr
            return
          </CharString>
          <CharString index="87">
            rmoveto
            27 -35 73 -23 -21 -23 -30 -22 -27 45 -47 31 12 14 15 11 vhcurveto
            151 hmoveto
            27 -35 73 -23 -21 -24 -30 -22 -27 46 -47 30 369 callsubr
            vhcurveto
            return
          </CharString>
          <CharString index="88">
            -27 40 24 -26 17 hhcurveto
            14 13 14 15 19 -13 12 -56 59 hvcurveto
            39 -39 -18 28 -19 hhcurveto
            -25 -23 -31 -25 return
          </CharString>
          <CharString index="89">
            vvcurveto
            -24 24 -18 14 28 33 -77 callgsubr
            return
          </CharString>
          <CharString index="90">
            -3 29 31 75 21 115 31 73 hvcurveto
            return
          </CharString>
          <CharString index="91">
            vvcurveto
            -31 42 -43 39 118 120 45 75 89 vhcurveto
            -22 -109 -26 -99 -20 35 callsubr
          </CharString>
          <CharString index="92">
            -21 8 -26 -35 vvcurveto
            -59 -14 -59 -37 -13 -10 11 14 -8 vhcurveto
            60 -27 -33 50 -29 hhcurveto
            -12 -22 -5 -23 -13 7 -19 17 -23 hvcurveto
            return
          </CharString>
          <CharString index="93">
            107 callsubr
            -14 -13 -21 -20 14 53 callsubr
            return
          </CharString>
          <CharString index="94">
            517 684 135 -75 callgsubr
            -556 196 callgsubr
            858 hlineto
            -49 callsubr
            -74 -59 -56 -71 -38 hvcurveto
            -19 -43 -62 -24 -88 26 callsubr
            56 11 16 48 hvcurveto
            -8 -31 -4 -30 -29 vvcurveto
            -99 callgsubr
          </CharString>
          <CharString index="95">
            hlineto
            -13 -70 -13 -69 -14 -73 rrcurveto
            47 -76 -179 66 -68 hhcurveto
            -19 -11 -9 -15 -27 80 -13 114 -40 hvcurveto
            53 -19 49 -24 33 -15 -45 -23 -66 -43 -57 -35 rrcurveto
            -92 -56 -99 -55 231 callsubr
            82 51 59 97 vhcurveto
            46 28 47 29 38 25 rrcurveto
            -18 -93 -19 -82 131 callgsubr
            129 -102 callgsubr
          </CharString>
          <CharString index="96">
            174 hlineto
            -15 -85 -17 -84 -16 -90 rrcurveto
            -23 -121 -32 -119 -22 vvcurveto
            -21 32 277 callgsubr
            13 -96 callsubr
            -41 hvcurveto
            endchar
          </CharString>
          <CharString index="97">
            hlineto
            -6 -34 rlineto
            -1 hlineto
            -2 -12 -9 -51 rlineto
            -177 -42 -123 -101 -113 hhcurveto
            -37 -18 9 27 55 86 70 87 28 hvcurveto
            0 vlineto
            9 4 5 5 8 vvcurveto
            27 -29 18 -56 vhcurveto
            -17 -109 -1 -23 -49 -35 5 -34 hhcurveto
            -14 -8 -4 -9 -14 37 -47 26 49 49 1 1 48 hvcurveto
            return
          </CharString>
          <CharString index="98">
            -265 93 645 rmoveto
            -48 -29 -7 -25 -25 40 -12 72 hvcurveto
            return
          </CharString>
          <CharString index="99">
            645 rmoveto
            -3 20 -9 35 -13 38 rrcurveto
            323 callsubr
            57 -10 48 -37 27 callgsubr
            51 -75 21 -86 23 -48 rrcurveto
            return
          </CharString>
          <CharString index="100">
            -17 41 51 -7 58 hhcurveto
            133 131 50 71 49 -66 76 -55 -64 -86 -81 -91 -51 hvcurveto
            -57 8 -40 22 35 vvcurveto
            69 198 156 53 vhcurveto
            51 17 -50 26 hhcurveto
            return
          </CharString>
          <CharString index="101">
            178 callgsubr
            -3 -9 -4 -19 -24 -16 -37 return
          </CharString>
          <CharString index="102">
            70 6 69 5 47 9 -14 -73 -17 -71 -10 -49 rrcurveto
            26 -26 -36 20 -35 hhcurveto
            -51 -55 -48 -43 -45 hvcurveto
            -58 -58 -67 -75 -23 221 callsubr
            24 63 75 53 54 vhcurveto
            38 40 39 33 34 hhcurveto
            37 35 -39 -26 26 hvcurveto
            5 -3 4 -3 5 -2 rrcurveto
            -4 6 5 -3 4 hhcurveto
            300 callgsubr
            hvcurveto
            21 90 27 -74 callsubr
            104 -61 callgsubr
          </CharString>
          <CharString index="103">
            530 rmoveto
            -140 -38 -116 -127 -80 hhcurveto
            -21 -15 41 63 69 12 74 25 66 hvcurveto
            241 hlineto
            return
          </CharString>
          <CharString index="104">
            -87 callsubr
            81 413 rmoveto
            11 callgsubr
            return
          </CharString>
          <CharString index="105">
            hhcurveto
            72 callgsubr
            58 callsubr
            return
          </CharString>
          <CharString index="106">
            4 5 0 4 hhcurveto
            -40 -41 -32 -48 -38 vvcurveto
            -43 30 -25 50 104 112 48 68 81 vhcurveto
            -19 -87 -18 -72 -17 81 callsubr
            41 14 16 19 20 -14 14 -41 hvcurveto
            endchar
          </CharString>
          <CharString index="107">
            19 callsubr
            -121 197 callgsubr
            319 261 callsubr
            return
          </CharString>
          <CharString index="108">
            -17 -30 -12 -41 -1 -41 rrcurveto
            12 -19 -19 8 -16 hhcurveto
            return
          </CharString>
          <CharString index="109">
            rmoveto
            27 -27 40 -26 -24 -10 -68 -143 -33 vhcurveto
            -19 -87 -41 -127 -31 vvcurveto
            -21 15 -18 19 14 17 11 39 12 vhcurveto
            61 190 42 159 29 vvcurveto
            return
          </CharString>
          <CharString index="110">
            228 callgsubr
            115 114 90 93 47 -27 28 -47 return
          </CharString>
          <CharString index="111">
            rmoveto
            40 -41 38 -20 -17 -4 -9 -21 vhcurveto
            -129 -137 -365 -92 vvcurveto
            -48 55 -44 64 138 173 59 57 12 -2 5 -14 vhcurveto
            -26 -118 -49 -154 hhcurveto
            -15 -11 8 16 21 11 44 32 103 hvcurveto
            43 142 43 148 64 vvcurveto
            endchar
          </CharString>
          <CharString index="112">
            -14 callsubr
            33 0 24 -2 16 hvcurveto
            219 hlineto
            -15 -85 -17 -84 -17 -90 -15 -76 -18 -77 -11 -51 rrcurveto
            24 -24 -34 20 -36 hhcurveto
            -54 -53 -47 -43 -42 hvcurveto
            -56 -59 -63 -76 -24 vvcurveto
            -14 9 -8 15 25 59 72 54 50 vhcurveto
            38 36 41 40 37 hhcurveto
            34 31 -37 -27 24 hvcurveto
            6 -5 6 -5 8 -2 rrcurveto
            -4 5 5 -3 4 hhcurveto
            300 callgsubr
            58 callsubr
            98 -107 callgsubr
          </CharString>
          <CharString index="113">
            rmoveto
            -15 -2 -8 -20 -6 hvcurveto
            -162 -50 -119 -226 -77 hhcurveto
            -18 -16 15 22 hvcurveto
            132 107 156 37 vvcurveto
            28 -26 26 -23 -46 -98 -246 -126 -61 57 -63 56 44 52 37 60 44 vhcurveto
            -162 -54 -35 -129 -52 -62 -42 88 -24 hhcurveto
            -11 -23 -29 -19 -49 85 -57 76 77 44 60 96 34 hvcurveto
            105 298 73 199 27 vvcurveto
            41 -32 35 -23 vhcurveto
            return
          </CharString>
          <CharString index="114">
            vvcurveto
            -21 75 4 13 -20 vhcurveto
            -44 -45 -103 15 -31 vvcurveto
            -13 18 -11 26 76 111 34 64 1 vhcurveto
            30 -56 27 -37 vhcurveto
            endchar
          </CharString>
          <CharString index="115">
            -37 callsubr
            -48 callgsubr
            39 rrcurveto
            return
          </CharString>
          <CharString index="116">
            -106 callsubr
            17 hlineto
            -11 -61 -11 -60 -12 -62 rrcurveto
            -95 -70 -142 -89 -106 hhcurveto
            -10 -4 3 6 37 81 67 341 callsubr
            -17 -5 -8 -2 -4 -9 vhcurveto
            -11 -26 -47 -25 -60 hhcurveto
            -18 -5 10 15 10 2 11 5 12 hvcurveto
            -4 12 12 -2 13 hhcurveto
            115 114 90 93 47 -27 28 -47 return
          </CharString>
          <CharString index="117">
            -6 callsubr
            -10 17 30 19 21 16 4 rrcurveto
            return
          </CharString>
          <CharString index="118">
            -119 -22 vvcurveto
            -21 return
          </CharString>
          <CharString index="119">
            64 -89 callgsubr
            return
          </CharString>
          <CharString index="120">
            18 vhcurveto
            -39 -78 -70 -29 -57 hhcurveto
            -21 -8 8 18 hvcurveto
            -35 446 -106 callsubr
            335 hlineto
            -15 -78 -15 -88 -16 -83 rrcurveto
            60 -17 -35 336 callsubr
            55 68 21 32 73 hvcurveto
            -13 -58 -10 -45 206 callsubr
            30 25 91 99 23 vhcurveto
            41 22 40 24 38 24 rrcurveto
            -13 -30 -7 -27 -21 vvcurveto
            -45 59 -42 42 62 76 44 53 75 vhcurveto
            -18 -79 -15 -65 -16 287 callsubr
            37 30 137 122 27 vhcurveto
            60 80 71 54 42 hhcurveto
            22 10 -13 -21 hvcurveto
            -127 -124 -68 -35 vvcurveto
            -14 18 -9 13 38 122 137 103 58 -45 54 -61 -46 -57 -34 -44 -60 vhcurveto
            18 81 19 94 3 34 rrcurveto
            return
          </CharString>
          <CharString index="121">
            -73 callsubr
            308 134 callgsubr
            -78 -144 -68 -56 -21 21 339 callsubr
            -25 callsubr
            -20 -9 -16 -21 -53 45 -48 69 -23 hvcurveto
            -49 -55 -73 -105 -22 65 callgsubr
            111 hvcurveto
            100 4 69 57 75 137 -248 -13 32 vvcurveto
            29 105 33 40 vhcurveto
            31 22 -16 18 hhcurveto
            0 1 vlineto
            21 11 17 31 62 7 33 5 24 hvcurveto
            146 -61 callgsubr
          </CharString>
          <CharString index="122">
            102 callgsubr
            52 5 53 4 44 4 rrcurveto
            -29 -22 -22 -17 -12 98 callgsubr
            113 130 50 87 92 vhcurveto
            -105 callsubr
          </CharString>
          <CharString index="123">
            -131 -91 28 callgsubr
            return
          </CharString>
          <CharString index="124">
            rmoveto
            33 40 -49 -32 -39 -56 -23 -82 -23 -30 3 6 -27 hvcurveto
            72 35 58 62 52 hhcurveto
            -42 -207 rmoveto
            164 callgsubr
            -120 -134 -189 -142 -95 71 -70 105 286 callsubr
            -7 8 -19 hvcurveto
            350 callsubr
            27 9 28 hvcurveto
            -10 37 42 -6 47 hhcurveto
            endchar
          </CharString>
          <CharString index="125">
            35 7 58 23 47 hvcurveto
            -55 36 38 -33 38 hhcurveto
            52 49 65 45 21 -9 12 -16 -37 -7 -63 -7 -35 hvcurveto
            7 -35 -8 75 -70 hhcurveto
            return
          </CharString>
          <CharString index="126">
            rmoveto
            -47 -37 10 29 69 163 153 96 44 43 -77 -44 -63 -162 -77 -100 hvcurveto
            return
          </CharString>
          <CharString index="127">
            -7 -23 -3 -27 -23 -5 0 -6 -5 vvcurveto
            7 -13 -16 4 -15 hhcurveto
            return
          </CharString>
          <CharString index="128">
            67 -35 49 -68 -88 -52 -84 -84 -46 18 -42 35 -22 vhcurveto
            -58 -96 -129 -39 -90 hhcurveto
            -8 -4 3 7 60 99 89 59 43 hvcurveto
            15 11 13 10 14 vvcurveto
            12 -10 8 -17 vhcurveto
            -28 298 callgsubr
            118 67 hvcurveto
            30 2 -30 17 hhcurveto
            8 11 17 14 15 -7 17 -12 12 hvcurveto
            return
          </CharString>
          <CharString index="129">
            rmoveto
            369 callsubr
            27 -35 73 -23 -21 -24 -30 -22 -27 46 -47 30 hvcurveto
            -150 hmoveto
            12 14 15 11 27 -35 73 -23 -21 -23 -30 -22 -27 45 -47 31 hvcurveto
            return
          </CharString>
          <CharString index="130">
            rrcurveto
            -4 6 203 callsubr
            return
          </CharString>
          <CharString index="131">
            -106 callsubr
            344 hlineto
            return
          </CharString>
          <CharString index="132">
            rmoveto
            9 -22 -45 11 -58 hhcurveto
            -102 -63 -15 -25 -19 31 -38 21 hvcurveto
            38 31 11 48 hhcurveto
            67 35 -4 -15 hvcurveto
            -50 -322 -172 -76 vvcurveto
            -33 53 -60 62 107 186 30 46 18 -16 5 -23 vhcurveto
            -46 -93 -16 -100 hhcurveto
            -19 -7 7 10 hvcurveto
            39 296 144 111 vvcurveto
            23 -29 46 -30 13 vhcurveto
            return
          </CharString>
          <CharString index="133">
            -65 callgsubr
            42 return
          </CharString>
          <CharString index="134">
            80 callsubr
            51 callgsubr
            142 28 vhcurveto
            return
          </CharString>
          <CharString index="135">
            59 249 37 callgsubr
            return
          </CharString>
          <CharString index="136">
            -265 246 -8 callsubr
            -127 -12 callgsubr
            116 -74 callgsubr
            return
          </CharString>
          <CharString index="137">
            -17 -37 -15 -46 -9 -45 rrcurveto
            46 -20 -36 39 -45 hhcurveto
            -105 -70 -138 -71 -63 35 -36 64 52 58 19 31 40 hvcurveto
            -1 -14 0 -15 2 -13 rrcurveto
            -20 2 6 -15 13 hhcurveto
            35 3 71 104 19 hvcurveto
            24 128 59 100 29 vvcurveto
            5 -2 5 -3 4 vhcurveto
            8 -2 -7 6 -13 -29 -9 -19 -96 hhcurveto
            -69 -39 17 40 67 109 108 57 hvcurveto
            49 13 -55 26 hhcurveto
            6 6 3 4 6 hvcurveto
            6 3 3 5 2 7 rrcurveto
            2 5 1 5 5 vvcurveto
            4 vlineto
            10 0 11 12 vvcurveto
            75 23 47 11 33 vhcurveto
            180 -107 callgsubr
          </CharString>
          <CharString index="138">
            -41 -13 -13 -21 -20 13 -15 41 hvcurveto
            276 -16 hlineto
            -30 -1 -40 -32 vvcurveto
            21 -39 -56 16 -50 hhcurveto
            -74 299 callsubr
            -30 -32 -20 -47 -10 vhcurveto
            87 -37 -51 80 -87 hhcurveto
            -63 -50 -38 -60 -90 99 -53 115 12 12 0 1 12 hvcurveto
            -93 39 40 -101 35 hhcurveto
            13 8 7 15 23 -39 82 -31 76 hvcurveto
            76 16 52 38 63 141 -234 42 74 vvcurveto
            13 13 5 21 vhcurveto
            88 51 -50 24 hhcurveto
            4 3 1 1 2 hvcurveto
            25 12 12 86 69 vvcurveto
            12 -2 10 -3 10 vhcurveto
            343 callgsubr
            return
          </CharString>
          <CharString index="139">
            40 20 -20 -44 -92 -84 -92 -105 -15 -11 5 6 -9 hvcurveto
            -13 10 -11 7 -11 1 rrcurveto
            1 -3 -3 0 -4 hhcurveto
            -6 -4 -4 -6 -3 hvcurveto
            -3 -5 -2 -5 -6 vvcurveto
            -17 45 -62 251 callsubr
            20 hhcurveto
            272 callgsubr
            -45 61 hvcurveto
            328 callgsubr
            return
          </CharString>
          <CharString index="140">
            rmoveto
            13 6 -6 -13 -55 -91 -62 -66 -5 -6 1 2 -5 hvcurveto
            68 45 70 65 39 hhcurveto
            return
          </CharString>
          <CharString index="141">
            448 -106 callsubr
            return
          </CharString>
          <CharString index="142">
            vvcurveto
            -21 32 -27 12 22 37 246 callsubr
          </CharString>
          <CharString index="143">
            -265 55 70 callsubr
            117 hlineto
            41 13 -96 callsubr
            -41 hvcurveto
            -122 hlineto
            -8 16 -24 24 -25 29 rrcurveto
            117 callgsubr
            288 callsubr
            -69 116 -169 76 -71 vhcurveto
            return
          </CharString>
          <CharString index="144">
            166 136 32 hvcurveto
            22 return
          </CharString>
          <CharString index="145">
            -278 -3 367 callgsubr
            25 4 -83 -77 -23 -1 -24 -1 -24 hvcurveto
            -323 hmoveto
            235 callsubr
            -26 -230 -76 -247 -60 vvcurveto
            -15 12 -17 15 43 40 190 157 30 vhcurveto
            17 82 13 315 callgsubr
            -123 hlineto
            2 26 1 27 1 26 rrcurveto
            62 12 55 43 70 78 30 -52 21 hhcurveto
            8 5 6 11 45 -65 61 -87 -55 -46 -20 -31 -34 hvcurveto
            61 -12 -27 46 -51 hhcurveto
            -100 -107 -211 -100 -26 hvcurveto
            return
          </CharString>
          <CharString index="146">
            16 -50 hhcurveto
            -75 -33 -30 -43 hvcurveto
            -131 218 -46 -83 vvcurveto
            -33 -37 -25 -60 -8 vhcurveto
            86 -13 -40 90 -107 hhcurveto
            -57 -50 -39 -63 -90 100 -51 113 -3 hvcurveto
            -8 vlineto
            -85 -18 -53 -33 vvcurveto
            -16 5 -11 12 36 24 121 86 vhcurveto
            2 vlineto
            95 11 69 44 74 vvcurveto
            return
          </CharString>
          <CharString index="147">
            -35 callgsubr
            107 hlineto
            return
          </CharString>
          <CharString index="148">
            26 57 74 callsubr
            return
          </CharString>
          <CharString index="149">
            21 -41 callgsubr
            return
          </CharString>
          <CharString index="150">
            hlineto
            -58 callgsubr
            return
          </CharString>
          <CharString index="151">
            11 24 145 callsubr
            return
          </CharString>
          <CharString index="152">
            162 callsubr
            117 hlineto
            41 return
          </CharString>
          <CharString index="153">
            135 645 -64 callsubr
            203 hlineto
            -14 -19 -9 -22 -22 vvcurveto
            -21 21 -26 12 10 7 4 6 6 vhcurveto
            8 9 4 13 6 16 rrcurveto
            22 7 20 18 31 hhcurveto
            33 17 -28 -37 -54 -42 -47 -53 -33 hvcurveto
            5 -20 -21 2 -21 hhcurveto
            -47 -27 -11 -21 -21 34 -41 29 29 30 7 13 28 hvcurveto
            28 -15 17 -25 -32 vvcurveto
            -69 -68 -42 -95 -103 -71 40 72 vhcurveto
            44 23 14 28 vvcurveto
            16 -9 7 -15 -44 -30 -47 -56 -114 96 -75 152 145 98 79 103 return
          </CharString>
          <CharString index="154">
            rmoveto
            22 26 33 29 39 hvcurveto
            43 32 49 19 30 vvcurveto
            16 -10 10 -19 -18 -51 -23 -67 -74 vhcurveto
            60 -77 -13 64 -36 hhcurveto
            -18 -13 -16 -21 -55 129 -111 21 hvcurveto
            return
          </CharString>
          <CharString index="155">
            -20 -92 -20 -78 -17 -6 callgsubr
            48 callgsubr
          </CharString>
          <CharString index="156">
            rrcurveto
            54 callgsubr
            return
          </CharString>
          <CharString index="157">
            hlineto
            199 callgsubr
            -2 vlineto
            10 -21 -21 6 -18 hhcurveto
            return
          </CharString>
          <CharString index="158">
            54 callsubr
            -30 12 -24 19 -22 hvcurveto
            -73 -27 -50 -63 -76 vvcurveto
            -112 91 -66 136 48 41 14 24 14 -15 5 -43 -104 -77 39 80 68 55 43 79 70 29 -35 -59 -23 3 -20 15 31 12 39 34 72 -54 64 -109 -7 -6 0 -1 -6 vhcurveto
            -10 13 -6 14 16 vvcurveto
            33 30 16 69 vhcurveto
            38 24 -3 24 hhcurveto
            8 6 1 2 6 hvcurveto
            25 6 8 47 49 126 callgsubr
            return
          </CharString>
          <CharString index="159">
            vvcurveto
            -65 62 -38 106 132 196 91 109 -8 callgsubr
          </CharString>
          <CharString index="160">
            -15 41 hvcurveto
            196 16 callgsubr
            return
          </CharString>
          <CharString index="161">
            hlineto
            5 -21 6 -28 2 -51 rrcurveto
            4 -21 -25 1 -26 hhcurveto
            -95 -77 -35 -64 return
          </CharString>
          <CharString index="162">
            237 77 18 vhcurveto
            21 90 26 return
          </CharString>
          <CharString index="163">
            rmoveto
            -42 48 -49 61 -36 52 rrcurveto
            14 15 16 9 16 hhcurveto
            41 55 -75 -75 27 hvcurveto
            -14 -12 -14 -12 -15 -10 rrcurveto
            -206 -5 rmoveto
            30 17 48 24 40 vhcurveto
            36 -46 46 -51 42 -40 rrcurveto
            -22 -42 -42 -11 -37 hhcurveto
            -35 -9 18 34 hvcurveto
            return
          </CharString>
          <CharString index="164">
            -15 callsubr
            -111 76 10 -136 45 hhcurveto
            15 14 9 17 16 -10 42 -16 47 hvcurveto
            3 3 0 3 hhcurveto
            return
          </CharString>
          <CharString index="165">
            hvcurveto
            21 90 26 -74 callsubr
            return
          </CharString>
          <CharString index="166">
            -41 -14 17 29 38 33 63 33 return
          </CharString>
          <CharString index="167">
            527 115 rmoveto
            -49 -37 39 47 -26 hvcurveto
            81 85 77 82 40 hhcurveto
            17 11 -10 -21 -87 -47 -131 -71 hvcurveto
            -359 1 rmoveto
            -23 -10 12 20 56 70 138 59 38 32 -56 -40 26 hvcurveto
            -69 -72 -70 -61 -50 hhcurveto
            448 321 rmoveto
            -56 -78 -74 -77 -80 hvcurveto
            56 -23 -51 73 -68 hhcurveto
            -109 -90 -190 -87 -45 64 -46 46 60 72 53 62 70 hvcurveto
            -64 34 56 -48 66 hhcurveto
            129 58 173 104 61 -40 49 -60 hvcurveto
            return
          </CharString>
          <CharString index="168">
            234 callgsubr
            40 -4 -8 39 vhcurveto
            -80 41 164 -205 35 hhcurveto
            15 10 10 15 16 -61 81 -46 60 hvcurveto
            -13 18 -13 19 -13 18 34 1 33 6 31 12 rrcurveto
            -2 21 23 0 24 hhcurveto
            87 2 93 12 77 26 242 callsubr
            -113 -21 callsubr
            95 -102 callgsubr
          </CharString>
          <CharString index="169">
            rmoveto
            -43 219 callsubr
            33 29 -35 -42 -29 -6 -26 -10 -24 vhcurveto
            -12 4 -13 6 -14 7 321 callsubr
            38 hlineto
            -10 -55 -10 -55 -11 -57 -81 -102 -130 -64 -131 -4 rrcurveto
            125 76 89 116 121 vvcurveto
            81 -57 57 -74 -67 -51 -44 -69 -86 67 -59 71 -9 vhcurveto
            -66 -92 -119 -49 -30 vvcurveto
            -34 48 -45 38 111 117 43 73 88 vhcurveto
            return
          </CharString>
          <CharString index="170">
            -76 -28 -78 -59 -76 vvcurveto
            -66 49 -34 77 54 56 19 31 45 vhcurveto
            -41 5 11 -30 20 hhcurveto
            35 -18 78 94 16 hvcurveto
            5 28 7 28 9 25 rrcurveto
            86 15 77 43 62 301 callgsubr
            -58 -49 -57 -72 -33 vhcurveto
            -18 hlineto
            -77 -46 58 callgsubr
            52 13 -37 98 callsubr
            7 6 hvcurveto
            10 7 2 14 17 vvcurveto
            96 23 48 13 31 vhcurveto
            161 -107 callgsubr
          </CharString>
          <CharString index="171">
            rmoveto
            1 14 0 14 12 vvcurveto
            132 -50 139 -146 187 callsubr
            vhcurveto
            153 callgsubr
            -275 -12 callgsubr
            269 hlineto
            -25 -197 -78 -284 -56 vvcurveto
            -17 14 -15 18 40 82 347 222 26 vhcurveto
            128 -102 callgsubr
          </CharString>
          <CharString index="172">
            rmoveto
            -88 -60 26 44 27 20 12 25 48 32 -46 -63 29 hvcurveto
            return
          </CharString>
          <CharString index="173">
            -15 -98 -14 -83 -18 vvcurveto
            -25 20 -14 14 38 return
          </CharString>
          <CharString index="174">
            -25 -5 -21 -44 hhcurveto
            -48 -29 57 76 return
          </CharString>
          <CharString index="175">
            -7 -1 -8 -8 vvcurveto
            return
          </CharString>
          <CharString index="176">
            vvcurveto
            165 -361 rmoveto
            23 16 -14 -26 -43 -55 -32 -79 -7 hvcurveto
            70 8 31 52 56 hhcurveto
            return
          </CharString>
          <CharString index="177">
            -50 callsubr
            116 -79 callsubr
            return
          </CharString>
          <CharString index="178">
            153 callsubr
            -33 -14 43 62 123 45 83 13 44 vhcurveto
            return
          </CharString>
          <CharString index="179">
            288 callgsubr
            55 -138 11 139 vvcurveto
            58 57 28 96 return
          </CharString>
          <CharString index="180">
            vvcurveto
            -14 32 -24 14 21 40 293 callsubr
            31 176 callsubr
            return
          </CharString>
          <CharString index="181">
            59 -24 callsubr
            return
          </CharString>
          <CharString index="182">
            -122 118 -122 274 callsubr
            return
          </CharString>
          <CharString index="183">
            -11 -45 -11 -41 -7 -30 rrcurveto
            15 -23 -30 12 -30 hhcurveto
            -51 -61 -36 -36 -44 hvcurveto
            -64 -54 -56 -67 -22 301 callsubr
            24 48 61 52 60 vhcurveto
            34 39 44 24 38 hhcurveto
            29 33 -17 -22 25 hvcurveto
            6 -3 5 -2 6 -1 265 callsubr
            116 -106 callgsubr
            endchar
          </CharString>
          <CharString index="184">
            -15 -68 -12 -54 -15 171 callsubr
            32 27 106 108 25 vhcurveto
            103 173 148 150 66 hhcurveto
            32 14 -18 -35 hvcurveto
            -121 -183 -70 -36 vvcurveto
            -33 38 -36 31 107 123 53 84 89 vhcurveto
            -20 -101 -21 -94 -18 169 callsubr
            13 -96 callsubr
            -41 hvcurveto
            endchar
          </CharString>
          <CharString index="185">
            111 callgsubr
            23 50 237 77 18 vhcurveto
            21 90 26 return
          </CharString>
          <CharString index="186">
            -73 55 -44 110 148 112 83 77 63 -61 41 -59 18 vhcurveto
            19 81 222 66 68 hhcurveto
            14 10 -5 -14 hvcurveto
            -79 -173 -80 -30 348 callsubr
            127 43 86 92 vhcurveto
            -21 -112 -25 -109 -19 -18 callsubr
            117 -107 callgsubr
          </CharString>
          <CharString index="187">
            44 callgsubr
            75 62 33 36 57 vhcurveto
            -15 -98 return
          </CharString>
          <CharString index="188">
            -6 callgsubr
            117 hlineto
            return
          </CharString>
          <CharString index="189">
            hlineto
            112 callsubr
            19 vhcurveto
            return
          </CharString>
          <CharString index="190">
            -31 -16 -44 -50 vvcurveto
            return
          </CharString>
          <CharString index="191">
            154 callgsubr
            148 callgsubr
            224 196 callsubr
            374 hlineto
            -49 callsubr
            -85 -66 -74 -87 -36 hvcurveto
            -62 -36 -105 -69 -155 -5 rrcurveto
            136 77 91 130 118 vvcurveto
            81 -58 57 -74 return
          </CharString>
          <CharString index="192">
            11 44 6 36 19 vvcurveto
            34 -48 32 -19 -16 -4 -11 -19 -46 -7 -50 -11 -51 vhcurveto
            -71 -12 -59 -17 -17 vvcurveto
            -19 26 -29 20 13 21 4 7 30 vhcurveto
            -35 -129 -47 -120 -51 vvcurveto
            return
          </CharString>
          <CharString index="193">
            rmoveto
            49 98 114 88 50 -39 46 -42 -27 -26 -38 -19 hvcurveto
            -27 51 -2 -37 -75 -84 -57 -29 vvcurveto
            -10 7 -4 13 vhcurveto
            endchar
          </CharString>
          <CharString index="194">
            89 callsubr
            -82 -141 -81 return
          </CharString>
          <CharString index="195">
            143 rmoveto
            -27 -32 48 32 33 78 8 87 9 hvcurveto
            -75 -30 -41 -55 -35 hhcurveto
            return
          </CharString>
          <CharString index="196">
            4 -22 6 -31 -41 vvcurveto
            -120 return
          </CharString>
          <CharString index="197">
            21 37 -75 callsubr
            32 hvcurveto
            -46 callgsubr
          </CharString>
          <CharString index="198">
            rmoveto
            -71 -88 -94 -63 -21 14 -11 21 43 6 84 35 84 hvcurveto
            -83 52 49 -45 53 hhcurveto
            70 65 85 60 25 -10 10 -15 -44 -8 -90 -8 -61 hvcurveto
            8 -61 -18 108 -81 hhcurveto
            return
          </CharString>
          <CharString index="199">
            -84 -54 -52 -64 -64 55 -53 77 -6 return
          </CharString>
          <CharString index="200">
            511 -72 callsubr
            return
          </CharString>
          <CharString index="201">
            rmoveto
            -34 -19 -61 -65 -74 5 96 -29 hhcurveto
            -18 -27 -19 -36 -48 63 -61 68 71 82 63 43 15 -7 8 -16 hvcurveto
            endchar
          </CharString>
          <CharString index="202">
            rmoveto
            -21 -11 11 18 50 93 130 46 35 39 -52 -42 26 hvcurveto
            -63 -70 -94 -52 -43 hhcurveto
            return
          </CharString>
          <CharString index="203">
            11 20 14 11 vvcurveto
            14 -15 19 return
          </CharString>
          <CharString index="204">
            hlineto
            -63 -37 -61 -59 -46 vvcurveto
            -44 60 -35 60 -13 vhcurveto
            -13 -10 -13 -11 -11 -10 211 callgsubr
            96 108 51 63 77 vhcurveto
            -17 -79 -14 -68 -15 vvcurveto
            -17 35 -25 12 21 36 183 131 29 vhcurveto
            20 90 28 126 5 317 callgsubr
          </CharString>
          <CharString index="205">
            26 hhcurveto
            8 7 4 return
          </CharString>
          <CharString index="206">
            hlineto
            -5 -25 -4 -26 -5 -25 rrcurveto
            -184 -43 -132 -88 -104 hhcurveto
            -36 -19 10 25 48 80 67 83 29 hvcurveto
            14 3 8 7 10 vvcurveto
            27 -29 17 -57 vhcurveto
            -148 hlineto
            183 callgsubr
            -9 -14 36 -46 27 hvcurveto
            50 49 1 49 hhcurveto
            -55 -38 -40 -51 -51 vvcurveto
            -62 41 -41 79 86 89 40 74 69 vhcurveto
            return
          </CharString>
          <CharString index="207">
            -279 -32 callgsubr
            return
          </CharString>
          <CharString index="208">
            -3 -19 -3 -22 -5 -19 -5 -17 -5 -13 -4 -11 return
          </CharString>
          <CharString index="209">
            hlineto
            68 callsubr
            return
          </CharString>
          <CharString index="210">
            75 288 409 rmoveto
            0 vlineto
            -53 3 -74 18 26 vvcurveto
            34 116 57 43 vhcurveto
            32 13 -28 18 hhcurveto
            9 6 7 10 12 -8 14 -12 14 hvcurveto
            139 hlineto
            -11 -61 -11 -59 -12 -62 rrcurveto
            -90 -58 -143 -96 -115 hhcurveto
            -7 -5 3 6 20 38 42 51 37 hvcurveto
            21 16 50 32 21 vvcurveto
            15 -12 9 -14 vhcurveto
            return
          </CharString>
          <CharString index="211">
            rmoveto
            76 callgsubr
            rrcurveto
            407 hlineto
            -13 -65 -11 -72 -14 -70 rrcurveto
            44 -28 -45 45 -56 hhcurveto
            -31 -32 -16 -26 -30 hvcurveto
            -54 -38 -73 -48 -79 -43 rrcurveto
            414 8 rmoveto
            -64 -82 -81 -59 -65 hhcurveto
            -22 -10 9 18 47 92 140 57 47 38 -55 -34 26 hvcurveto
            -736 -98 164 callsubr
            44 23 return
          </CharString>
          <CharString index="212">
            -15 callgsubr
            49 71 return
          </CharString>
          <CharString index="213">
            -34 -75 -66 -146 -70 callgsubr
            return
          </CharString>
          <CharString index="214">
            74 callgsubr
            -104 453 rmoveto
            -41 return
          </CharString>
          <CharString index="215">
            rmoveto
            11 188 callgsubr
            -16 -24 -17 -38 -11 15 29 19 21 19 4 rrcurveto
            return
          </CharString>
          <CharString index="216">
            576 rmoveto
            -13 -62 -13 -65 -15 -68 -92 -49 -126 -41 -79 -4 rrcurveto
            -66 46 -76 32 42 159 callgsubr
            return
          </CharString>
          <CharString index="217">
            rrcurveto
            115 -107 callgsubr
          </CharString>
          <CharString index="218">
            vvcurveto
            12 -2 11 -3 11 vhcurveto
            132 -43 114 -114 -82 vvcurveto
            -68 -206 -176 -147 -20 vhcurveto
            return
          </CharString>
          <CharString index="219">
            -8 -21 -4 -22 -21 vvcurveto
            60 callgsubr
            return
          </CharString>
          <CharString index="220">
            36 callgsubr
            67 return
          </CharString>
          <CharString index="221">
            113 callgsubr
            -126 return
          </CharString>
          <CharString index="222">
            -12 18 vhcurveto
            294 callgsubr
            return
          </CharString>
          <CharString index="223">
            576 rmoveto
            -13 -72 -14 -71 -16 -75 rrcurveto
            -90 -57 -129 -103 -121 57 callgsubr
            115 73 45 vhcurveto
            31 14 -29 18 hhcurveto
            9 6 8 10 12 -9 16 -12 15 hvcurveto
            return
          </CharString>
          <CharString index="224">
            291 -106 callsubr
            return
          </CharString>
          <CharString index="225">
            hlineto
            11 callgsubr
            return
          </CharString>
          <CharString index="226">
            hhcurveto
            -22 -21 0 -1 -22 hvcurveto
            12 89 3 92 60 vvcurveto
            -156 -446 rmoveto
            -26 -38 50 34 32 52 15 71 8 hvcurveto
            -78 -13 -18 -61 -28 hhcurveto
            return
          </CharString>
          <CharString index="227">
            hhcurveto
            -2 0 hlineto
            1 -25 -22 1 -37 hhcurveto
            -177 -260 -25 -173 -116 121 -92 359 callsubr
            hvcurveto
            51 -142 15 107 vvcurveto
            return
          </CharString>
          <CharString index="228">
            80 54 214 -60 callsubr
            return
          </CharString>
          <CharString index="229">
            -177 rmoveto
            28 9 -23 -29 -45 -29 -41 -45 -36 hvcurveto
            -17 8 -18 17 43 vvcurveto
            55 27 51 45 vhcurveto
            -479 246 -106 callsubr
            194 hlineto
            -94 -41 -92 -102 -72 vvcurveto
            -47 45 -26 54 -4 vhcurveto
            -62 -53 -58 -79 -60 339 callgsubr
            return
          </CharString>
          <CharString index="230">
            -70 callsubr
            12 callsubr
            return
          </CharString>
          <CharString index="231">
            vvcurveto
            -158 141 -77 157 53 42 14 27 15 -20 4 -44 -130 -121 54 122 return
          </CharString>
          <CharString index="232">
            198 callsubr
            18 11 return
          </CharString>
          <CharString index="233">
            231 callgsubr
            -173 -140 -109 -169 -12 rrcurveto
            77 49 88 87 61 vvcurveto
            36 -50 51 -44 -73 -75 -25 -29 -115 vhcurveto
            -49 -12 -76 -16 -55 -16 35 43 28 52 1 72 rrcurveto
            49 -342 rmoveto
            -43 -97 -45 -93 -53 -34 14 38 return
          </CharString>
          <CharString index="234">
            -91 callgsubr
            121 return
          </CharString>
          <CharString index="235">
            rrcurveto
            13 -23 -27 9 -37 hhcurveto
            -123 -182 131 callsubr
            37 28 -10 -26 34 hvcurveto
            -7 8 8 -5 5 hhcurveto
            21 37 -75 callsubr
            32 hvcurveto
            21 90 27 -74 callsubr
            return
          </CharString>
          <CharString index="236">
            124 callgsubr
            105 77 83 83 214 callgsubr
            return
          </CharString>
          <CharString index="237">
            144 rmoveto
            -82 -94 -4 -24 -18 27 -31 27 215 callsubr
            vhcurveto
            endchar
          </CharString>
          <CharString index="238">
            297 callsubr
            -6 31 -12 25 hvcurveto
            9 33 32 5 28 hhcurveto
            return
          </CharString>
          <CharString index="239">
            68 callsubr
            -48 return
          </CharString>
          <CharString index="240">
            -40 -43 -33 -49 -40 vvcurveto
            -41 35 -33 53 74 117 37 46 82 vhcurveto
            -15 14 18 -10 17 hhcurveto
            325 callsubr
            hvcurveto
            -23 -116 -26 18 callgsubr
            return
          </CharString>
          <CharString index="241">
            69 -73 callsubr
            return
          </CharString>
          <CharString index="242">
            183 callgsubr
            -8 -15 return
          </CharString>
          <CharString index="243">
            -8 8 18 199 callsubr
            return
          </CharString>
          <CharString index="244">
            105 callsubr
            21 31 75 hvcurveto
            -13 -58 -10 -44 -13 222 callsubr
            17 29 25 87 97 22 vhcurveto
            return
          </CharString>
          <CharString index="245">
            21 90 27 -74 callsubr
            117 -107 callgsubr
          </CharString>
          <CharString index="246">
            10 171 callgsubr
            return
          </CharString>
          <CharString index="247">
            vvcurveto
            -37 43 -55 25 150 314 216 127 195 -275 169 -186 return
          </CharString>
          <CharString index="248">
            183 callsubr
            216 callsubr
            return
          </CharString>
          <CharString index="249">
            -17 -90 rrcurveto
            -22 -121 return
          </CharString>
          <CharString index="250">
            rmoveto
            56 33 41 54 41 30 -37 -47 -50 -29 -43 -41 -38 vhcurveto
            -53 return
          </CharString>
          <CharString index="251">
            hvcurveto
            83 hlineto
            -10 -45 -9 -44 -9 -45 -61 -35 -77 -26 -81 -19 rrcurveto
            return
          </CharString>
          <CharString index="252">
            hhcurveto
            39 22 -24 -48 return
          </CharString>
          <CharString index="253">
            360 767 399 rmoveto
            -121 -60 -188 -46 -91 -6 rrcurveto
            -58 44 -66 32 44 vvcurveto
            13 12 5 22 vhcurveto
            87 52 -50 25 hhcurveto
            5 3 1 2 3 hvcurveto
            23 12 7 75 73 vvcurveto
            14 -3 13 -5 11 vhcurveto
            330 hlineto
            return
          </CharString>
          <CharString index="254">
            102 34 callgsubr
            return
          </CharString>
          <CharString index="255">
            20 88 26 273 callsubr
            return
          </CharString>
          <CharString index="256">
            rmoveto
            -29 50 -46 28 13 15 15 9 26 -35 81 -24 -22 -25 -33 -23 vhcurveto
            endchar
          </CharString>
          <CharString index="257">
            133 316 386 rmoveto
            8 66 2 66 50 vvcurveto
            8 247 vlineto
            -9 -51 -10 -50 -10 -52 -45 -6 -89 -17 -75 -11 rrcurveto
            -159 -206 rmoveto
            -26 -44 38 33 26 53 16 73 13 hvcurveto
            -71 -12 -17 -55 -27 hhcurveto
            return
          </CharString>
          <CharString index="258">
            -1 rrcurveto
            -4 5 5 -3 4 203 callgsubr
            return
          </CharString>
          <CharString index="259">
            324 callgsubr
            -44 -2 -55 -5 -52 vhcurveto
            4 -26 -26 2 -30 hhcurveto
            return
          </CharString>
          <CharString index="260">
            576 rmoveto
            87 callsubr
            return
          </CharString>
          <CharString index="261">
            -64 69 -97 69 119 callgsubr
            vhcurveto
            return
          </CharString>
          <CharString index="262">
            51 44 31 27 19 -10 return
          </CharString>
          <CharString index="263">
            -34 -75 -66 -146 -36 -18 8 -27 hhcurveto
            -15 -8 -9 -15 -16 13 -14 21 -9 hvcurveto
            5 -6 4 -7 -7 vvcurveto
            -55 -98 -61 -92 -30 -15 13 36 75 38 90 86 55 callgsubr
            15 -41 24 -25 return
          </CharString>
          <CharString index="264">
            645 rmoveto
            -23 42 -125 99 94 83 callgsubr
            return
          </CharString>
          <CharString index="265">
            576 273 callgsubr
            -51 -127 -155 -114 -132 -11 rrcurveto
            83 58 91 95 95 vvcurveto
            63 -35 53 -77 -66 -95 -41 -56 -90 vhcurveto
            2 11 1 12 12 -24 callsubr
            return
          </CharString>
          <CharString index="266">
            12 31 38 13 45 hhcurveto
            65 43 -20 -42 -112 -191 -57 -63 -49 hvcurveto
            return
          </CharString>
          <CharString index="267">
            4 -2 callsubr
            return
          </CharString>
          <CharString index="268">
            rmoveto
            -32 55 -57 34 14 18 18 10 29 -41 94 -27 -25 -28 -37 -25 vhcurveto
            return
          </CharString>
          <CharString index="269">
            -27 13 42 callsubr
            return
          </CharString>
          <CharString index="270">
            21 88 30 274 callgsubr
            return
          </CharString>
          <CharString index="271">
            rmoveto
            241 callsubr
            return
          </CharString>
          <CharString index="272">
            179 callsubr
            -4 0 -5 hhcurveto
            return
          </CharString>
          <CharString index="273">
            20 87 26 124 4 40 rrcurveto
            -397 69 rmoveto
            235 callsubr
            -14 -70 -13 -77 -14 -74 rrcurveto
            59 -18 -34 59 -58 -35 callsubr
            return
          </CharString>
          <CharString index="274">
            519 rmoveto
            -15 -57 -32 -62 -39 -50 -40 63 -49 91 -35 72 rrcurveto
            220 hlineto
            -244 -332 rmoveto
            -22 -16 43 67 52 5 52 12 49 hvcurveto
            36 -68 52 -80 42 -54 rrcurveto
            -37 -36 -39 -24 -34 hhcurveto
            return
          </CharString>
          <CharString index="275">
            274 231 rmoveto
            -57 -15 -38 -30 -42 -68 76 48 38 68 15 80 4 vhcurveto
            2 -21 5 -20 -45 vvcurveto
            return
          </CharString>
          <CharString index="276">
            -78 callgsubr
            116 hlineto
            41 return
          </CharString>
          <CharString index="277">
            -27 9 -37 hhcurveto
            -122 -183 -72 -87 -57 67 -50 67 return
          </CharString>
          <CharString index="278">
            vvcurveto
            -18 13 -14 17 return
          </CharString>
          <CharString index="279">
            177 callsubr
            -34 446 -15 callgsubr
            return
          </CharString>
          <CharString index="280">
            rmoveto
            -17 -7 -12 -21 -117 117 -59 106 226 callgsubr
            vhcurveto
            endchar
          </CharString>
          <CharString index="281">
            291 13 callgsubr
            return
          </CharString>
          <CharString index="282">
            rmoveto
            -29 -34 38 27 29 64 6 87 9 hvcurveto
            -63 -26 -33 -46 -29 hhcurveto
            return
          </CharString>
          <CharString index="283">
            vhcurveto
            163 callsubr
            return
          </CharString>
          <CharString index="284">
            hhcurveto
            -20 -8 8 18 hvcurveto
            return
          </CharString>
          <CharString index="285">
            -295 215 192 callgsubr
            return
          </CharString>
          <CharString index="286">
            9 callgsubr
            -30 -30 -18 -28 -24 vhcurveto
            1 -4 return
          </CharString>
          <CharString index="287">
            -31 rmoveto
            302 callgsubr
            37 3 15 270 callgsubr
            return
          </CharString>
          <CharString index="288">
            rmoveto
            -23 -14 -4 -7 -8 hvcurveto
            33 -18 -29 23 -45 hhcurveto
            return
          </CharString>
          <CharString index="289">
            -105 -162 -171 -130 -49 28 -33 57 return
          </CharString>
          <CharString index="290">
            hhcurveto
            -10 -4 3 7 41 74 75 return
          </CharString>
          <CharString index="291">
            -16 -21 114 callgsubr
            hvcurveto
            137 -248 -13 32 vvcurveto
            29 105 33 40 vhcurveto
            31 22 -16 18 hhcurveto
            0 1 vlineto
            21 11 17 31 62 7 33 5 24 hvcurveto
            return
          </CharString>
          <CharString index="292">
            -10 -26 callgsubr
            return
          </CharString>
          <CharString index="293">
            126 197 -38 callgsubr
            return
          </CharString>
          <CharString index="294">
            -197 -194 -268 -81 -14 11 -14 15 28 14 19 27 17 return
          </CharString>
          <CharString index="295">
            351 callgsubr
            148 64 145 81 30 vvcurveto
            17 -8 4 -15 -23 -110 -60 -56 -119 vhcurveto
            11 51 76 callgsubr
            rlinecurve
            return
          </CharString>
          <CharString index="296">
            183 108 callsubr
            return
          </CharString>
          <CharString index="297">
            hhcurveto
            -14 hlineto
            -9 hlineto
            -180 -1 rlineto
            135 callsubr
            36 -47 27 return
          </CharString>
          <CharString index="298">
            33 -50 callsubr
            64 191 callgsubr
            -141 -201 return
          </CharString>
          <CharString index="299">
            56 -65 79 -103 92 callsubr
            vhcurveto
            -33 -61 -67 -16 -70 -53 callsubr
            return
          </CharString>
          <CharString index="300">
            rmoveto
            -26 -14 40 21 23 17 20 24 23 33 -14 -21 36 hvcurveto
            -30 -23 -41 -39 -29 hhcurveto
            return
          </CharString>
          <CharString index="301">
            rmoveto
            59 callsubr
            37 8 -55 -60 -8 0 return
          </CharString>
          <CharString index="302">
            462 -106 callsubr
            return
          </CharString>
          <CharString index="303">
            157 -106 callsubr
            return
          </CharString>
          <CharString index="304">
            555 -106 callsubr
            return
          </CharString>
          <CharString index="305">
            18 14 13 vhcurveto
            13 12 return
          </CharString>
          <CharString index="306">
            43 94 133 return
          </CharString>
          <CharString index="307">
            -61 3 -65 2 callgsubr
            -156 -420 -33 callsubr
            return
          </CharString>
          <CharString index="308">
            -370 rmoveto
            -57 -15 -38 -30 -42 -68 76 47 342 callgsubr
            -199 439 -106 callsubr
            return
          </CharString>
          <CharString index="309">
            -259 153 553 rmoveto
            43 109 99 92 63 -44 38 -50 -27 -25 -22 -22 hvcurveto
            -39 58 15 -57 -71 -92 -42 -32 vvcurveto
            -15 8 -7 20 vhcurveto
            endchar
          </CharString>
          <CharString index="310">
            5 -3 160 callsubr
            return
          </CharString>
          <CharString index="311">
            128 -50 callsubr
            return
          </CharString>
          <CharString index="312">
            hlineto
            4 -20 5 -28 2 -48 rrcurveto
            3 -20 -23 2 -25 hhcurveto
            return
          </CharString>
          <CharString index="313">
            -13 171 callsubr
            return
          </CharString>
          <CharString index="314">
            136 rmoveto
            83 117 209 84 34 6 -49 -49 6 vhcurveto
            1 -13 2 -12 3 -9 rrcurveto
            -110 -39 -113 -88 -62 hhcurveto
            -23 -16 15 23 hvcurveto
            return
          </CharString>
          <CharString index="315">
            -78 callgsubr
            117 -61 callgsubr
          </CharString>
          <CharString index="316">
            4 hlineto
            -38 -38 -31 -44 -37 vvcurveto
            -43 30 -21 50 102 120 53 70 82 vhcurveto
            return
          </CharString>
          <CharString index="317" raw="1">
            f8d415e4 0a0b  
          </CharString>
          <CharString index="318">
            58 72 16 79 25 67 hvcurveto
            return
          </CharString>
          <CharString index="319">
            293 callsubr
            30 return
          </CharString>
          <CharString index="320">
            123 callsubr
            hvcurveto
            return
          </CharString>
          <CharString index="321">
            251 271 rmoveto
            126 25 45 9 23 vvcurveto
            16 -21 9 -39 -98 -211 -31 -32 -19 27 -29 20 23 49 13 16 79 vhcurveto
            endchar
          </CharString>
          <CharString index="322">
            275 callsubr
            hvcurveto
            120 12 36 5 20 vvcurveto
            21 -53 3 -117 return
          </CharString>
          <CharString index="323">
            341 callsubr
            -16 return
          </CharString>
          <CharString index="324">
            32 114 10 63 38 vvcurveto
            13 -4 14 -6 13 vhcurveto
            return
          </CharString>
          <CharString index="325">
            450 rmoveto
            308 callgsubr
            return
          </CharString>
          <CharString index="326">
            221 callgsubr
            32 21 20 30 return
          </CharString>
          <CharString index="327">
            212 callsubr
            vhcurveto
            return
          </CharString>
          <CharString index="328">
            308 callsubr
            16 return
          </CharString>
          <CharString index="329">
            vvcurveto
            -18 14 -14 return
          </CharString>
          <CharString index="330">
            334 rmoveto
            -9 -2 -6 -7 -2 -9 rrcurveto
            -129 -33 -97 -89 -58 hhcurveto
            -24 -23 14 24 83 133 209 82 27 10 -43 -50 hvcurveto
            return
          </CharString>
          <CharString index="331">
            -263 970 rmoveto
            330 callgsubr
            hvcurveto
            33 -152 110 103 vvcurveto
            35 -69 55 -37 vhcurveto
            return
          </CharString>
          <CharString index="332">
            43 callsubr
            6 18 14 13 322 callgsubr
            return
          </CharString>
          <CharString index="333">
            rmoveto
            8 8 -1 8 hhcurveto
            -8 -27 -5 -26 -3 -26 -5 -9 -7 -8 -7 -8 -29 28 -28 31 -23 31 rrcurveto
            10 28 30 5 27 hhcurveto
            return
          </CharString>
          <CharString index="334">
            rmoveto
            28 22 16 25 58 27 -52 -66 11 vhcurveto
            -78 3 -65 26 45 vvcurveto
            return
          </CharString>
          <CharString index="335">
            vvcurveto
            -74 68 -66 111 25 23 3 6 22 vhcurveto
            -55 -37 -69 -38 -79 return
          </CharString>
          <CharString index="336">
            -1 rrcurveto
            131 87 106 170 117 vvcurveto
            8 -1 8 -1 8 vhcurveto
            return
          </CharString>
          <CharString index="337">
            298 hlineto
            41 13 -96 callsubr
            return
          </CharString>
          <CharString index="338">
            -25 vvcurveto
            -16 11 -13 20 18 return
          </CharString>
          <CharString index="339">
            -22 6 -17 hhcurveto
            return
          </CharString>
          <CharString index="340">
            hlineto
            -13 -71 -13 -69 -14 -73 rrcurveto
            75 -31 -51 79 -63 hhcurveto
            -118 -91 -161 -99 -76 31 -46 80 67 85 32 47 60 hvcurveto
            return
          </CharString>
          <CharString index="341">
            287 -106 callsubr
            return
          </CharString>
          <CharString index="342">
            -107 callsubr
            316 hlineto
            return
          </CharString>
          <CharString index="343">
            vvcurveto
            -21 32 -27 12 22 return
          </CharString>
          <CharString index="344">
            -102 callsubr
            -490 return
          </CharString>
          <CharString index="345">
            237 77 18 35 callgsubr
            107 hlineto
            47 21 341 callgsubr
            return
          </CharString>
          <CharString index="346">
            90 65 callsubr
            return
          </CharString>
          <CharString index="347">
            -50 319 callgsubr
            return
          </CharString>
          <CharString index="348">
            199 callsubr
            55 return
          </CharString>
          <CharString index="349">
            318 callgsubr
            -26 return
          </CharString>
          <CharString index="350">
            151 callsubr
            41 return
          </CharString>
          <CharString index="351">
            576 358 callgsubr
            -69 -30 -84 -18 -82 -9 rrcurveto
            45 44 28 56 61 -24 callsubr
            return
          </CharString>
          <CharString index="352">
            hlineto
            -5 -14 -3 -15 -15 228 callsubr
            -70 -19 60 -38 hhcurveto
            return
          </CharString>
          <CharString index="353">
            174 140 32 vhcurveto
            138 callsubr
          </CharString>
          <CharString index="354">
            148 102 callsubr
            return
          </CharString>
          <CharString index="355">
            454 rmoveto
            -59 -44 29 46 39 34 28 54 61 44 -42 -62 -9 -1 -10 -1 -9 hvcurveto
            -5 -26 -30 -5 -32 hhcurveto
            return
          </CharString>
          <CharString index="356">
            145 callgsubr
            13 -2 13 hhcurveto
            return
          </CharString>
          <CharString index="357">
            -129 -91 -185 -126 -74 26 -59 69 return
          </CharString>
          <CharString index="358">
            60 -77 vhcurveto
            -69 55 56 -62 return
          </CharString>
          <CharString index="359">
            -84 84 -42 113 return
          </CharString>
          <CharString index="360">
            rrcurveto
            20 -21 -26 15 -28 hhcurveto
            -121 -105 -133 -157 -99 58 -63 66 148 120 196 188 return
          </CharString>
          <CharString index="361">
            rmoveto
            10 3 6 return
          </CharString>
          <CharString index="362">
            -13 262 callgsubr
            return
          </CharString>
          <CharString index="363">
            hhcurveto
            158 139 rmoveto
            11 3 5 -3 -3 -10 -4 -17 -21 -15 -32 -11 14 30 15 20 15 3 rrcurveto
            return
          </CharString>
          <CharString index="364">
            hlineto
            -16 -35 -10 -46 -1 -35 rrcurveto
            12 -19 -21 9 -19 hhcurveto
            return
          </CharString>
          <CharString index="365">
            hhcurveto
            17 10 10 15 return
          </CharString>
          <CharString index="366">
            vvcurveto
            124 callgsubr
            return
          </CharString>
          <CharString index="367">
            -106 callsubr
            148 118 callsubr
            return
          </CharString>
          <CharString index="368">
            hlineto
            101 callsubr
            rrcurveto
            -145 -2 -188 -183 -111 vvcurveto
            return
          </CharString>
          <CharString index="369">
            vvcurveto
            89 -45 72 -96 -88 -59 -58 -45 -20 12 -11 17 vhcurveto
            34 9 68 86 hhcurveto
            42 19 -35 -45 -92 return
          </CharString>
          <CharString index="370">
            rmoveto
            -105 callgsubr
            return
          </CharString>
          <CharString index="371">
            252 callsubr
            vhcurveto
            return
          </CharString>
          <CharString index="372">
            rrcurveto
            -4 5 5 -3 4 hhcurveto
            21 37 -75 callsubr
            32 hvcurveto
            21 90 27 -74 callsubr
            return
          </CharString>
          <CharString index="373">
            hvcurveto
            -270 -390 -208 -275 -42 vvcurveto
            -17 22 -24 10 20 54 76 246 170 vhcurveto
            return
          </CharString>
          <CharString index="374">
            -275 rmoveto
            -38 -12 -37 -33 -42 -65 52 44 35 66 13 79 3 vhcurveto
            2 -17 5 -12 -43 vvcurveto
            return
          </CharString>
          <CharString index="375">
            89 -50 callsubr
            return
          </CharString>
          <CharString index="376">
            hlineto
            -87 -48 -80 -99 -68 vvcurveto
            -48 45 -26 51 -4 vhcurveto
            return
          </CharString>
          <CharString index="377">
            -35 callsubr
            63 66 return
          </CharString>
          <CharString index="378">
            46 94 64 74 40 -37 33 return
          </CharString>
          <CharString index="379">
            66 -75 111 -41 80 rrcurveto
            return
          </CharString>
          <CharString index="380">
            -48 callgsubr
            41 rrcurveto
            return
          </CharString>
          <CharString index="381">
            65 223 callgsubr
            return
          </CharString>
          <CharString index="382">
            25 36 7 9 75 return
          </CharString>
          <CharString index="383">
            283 callgsubr
            -85 return
          </CharString>
          <CharString index="384">
            17 -26 hvcurveto
            -12 -45 -75 -28 -29 vvcurveto
            -13 10 351 callsubr
            return
          </CharString>
          <CharString index="385">
            184 254 callsubr
            -3 -4 -10 -4 -17 -20 -15 -33 -11 15 30 15 20 15 3 rrcurveto
            return
          </CharString>
          <CharString index="386">
            183 rmoveto
            10 188 callgsubr
            -19 -23 -16 -37 -10 17 30 19 21 16 4 rrcurveto
            return
          </CharString>
          <CharString index="387">
            21 90 26 297 callgsubr
          </CharString>
          <CharString index="388">
            rmoveto
            -34 -12 7 29 50 52 82 44 37 27 -43 -64 21 hvcurveto
            -37 -38 -56 -24 -41 hhcurveto
            return
          </CharString>
          <CharString index="389">
            rmoveto
            -29 -12 -26 -32 356 callsubr
            51 22 vhcurveto
            10 -20 4 -22 -20 vvcurveto
            return
          </CharString>
          <CharString index="390">
            113 callsubr
            46 -50 -32 return
          </CharString>
          <CharString index="391">
            -69 -66 -95 -83 60 callgsubr
            return
          </CharString>
          <CharString index="392">
            466 -106 callsubr
            return
          </CharString>
          <CharString index="393">
            80 100 55 35 12 return
          </CharString>
          <CharString index="394">
            222 callsubr
            16 return
          </CharString>
          <CharString index="395">
            -81 -59 -43 -60 -19 hvcurveto
            -12 22 -8 24 23 vvcurveto
            35 -69 55 -37 -10 -5 -4 -12 return
          </CharString>
          <CharString index="396">
            -31 -4 -35 -7 -34 vhcurveto
            4 -21 -22 2 -24 hhcurveto
            -71 -52 -27 -52 -55 48 -70 61 return
          </CharString>
          <CharString index="397">
            302 callgsubr
            34 4 18 -26 hvcurveto
            -12 -45 -76 -28 -29 vvcurveto
            -13 11 -4 12 return
          </CharString>
          <CharString index="398">
            -158 -46 -39 -113 vhcurveto
            11 0 11 1 10 vhcurveto
            4 67 21 39 13 24 rrcurveto
            return
          </CharString>
          <CharString index="399">
            368 callgsubr
            -11 -45 -76 -28 -29 vvcurveto
            -13 10 -4 12 return
          </CharString>
          <CharString index="400">
            183 133 return
          </CharString>
          <CharString index="401">
            218 rmoveto
            25 21 -25 -15 -41 -79 -20 -85 -3 hvcurveto
            53 35 45 51 38 hhcurveto
            return
          </CharString>
          <CharString index="402">
            168 175 callsubr
            return
          </CharString>
          <CharString index="403">
            hlineto
            -25 -119 -117 -10 -170 -7 -100 -8 rlinecurve
            -5 -5 -1 -2 -4 hvcurveto
            return
          </CharString>
          <CharString index="404">
            -72 -87 -57 67 -50 67 71 30 52 56 28 return
          </CharString>
          <CharString index="405">
            321 rmoveto
            76 callgsubr
            rrcurveto
            return
          </CharString>
          <CharString index="406">
            -34 -30 -43 hvcurveto
            -129 242 -44 -92 vvcurveto
            return
          </CharString>
          <CharString index="407">
            15 76 328 callsubr
            return
          </CharString>
          <CharString index="408">
            350 callgsubr
            16 return
          </CharString>
          <CharString index="409">
            -8 -47 -9 -46 -9 return
          </CharString>
          <CharString index="410">
            92 29 125 return
          </CharString>
          <CharString index="411">
            hmoveto
            -82 callsubr
            return
          </CharString>
          <CharString index="412">
            -9 callsubr
            44 hlineto
            -15 return
          </CharString>
          <CharString index="413">
            hlineto
            -49 callsubr
            -76 -61 -59 return
          </CharString>
          <CharString index="414">
            -67 -16 -75 -77 vvcurveto
            -97 return
          </CharString>
          <CharString index="415">
            vvcurveto
            -12 9 -10 return
          </CharString>
          <CharString index="416">
            -32 hvcurveto
            -39 -12 -22 -21 vvcurveto
            -21 8 -13 11 28 29 61 60 69 -34 return
          </CharString>
          <CharString index="417">
            94 65 74 39 -37 33 -40 -22 -28 -22 -21 -27 36 3 16 -24 vhcurveto
            return
          </CharString>
          <CharString index="418">
            -58 -29 -53 -49 -60 38 -72 64 57 57 return
          </CharString>
          <CharString index="419">
            185 179 20 -12 23 -14 19 vhcurveto
            return
          </CharString>
          <CharString index="420">
            9 18 48 124 return
          </CharString>
          <CharString index="421">
            55 34 hvcurveto
            19 return
          </CharString>
          <CharString index="422">
            321 callgsubr
            -14 return
          </CharString>
          <CharString index="423">
            331 callgsubr
            endchar
          </CharString>
          <CharString index="424">
            39 -59 callgsubr
          </CharString>
          <CharString index="425">
            -8 rrcurveto
            95 57 102 106 111 vvcurveto
            28 -6 26 -11 21 vhcurveto
            return
          </CharString>
          <CharString index="426">
            -180 -177 -168 -183 -139 85 -110 163 return
          </CharString>
          <CharString index="427">
            206 160 146 198 145 -97 111 -160 return
          </CharString>
          <CharString index="428">
            rrcurveto
            243 196 callsubr
            return
          </CharString>
          <CharString index="429">
            107 104 vvcurveto
            30 -6 25 -10 21 vhcurveto
            return
          </CharString>
          <CharString index="430">
            3 3 0 3 hhcurveto
            68 40 89 99 return
          </CharString>
          <CharString index="431">
            9 22 vvcurveto
            16 -21 10 -39 return
          </CharString>
          <CharString index="432">
            113 131 50 88 92 return
          </CharString>
          <CharString index="433">
            242 callgsubr
            -84 return
          </CharString>
          <CharString index="434">
            -21 -65 -9 -72 -75 vvcurveto
            return
          </CharString>
          <CharString index="435">
            14 80 2 30 rrcurveto
            return
          </CharString>
          <CharString index="436">
            630 rmoveto
            13 6 -6 -13 -55 -91 -62 -66 -5 -6 1 return
          </CharString>
          <CharString index="437">
            -37 hhcurveto
            -7 -6 -6 -10 -3 hvcurveto
            -5 -5 -2 -7 -6 vvcurveto
            return
          </CharString>
          <CharString index="438">
            69 182 callgsubr
            return
          </CharString>
          <CharString index="439">
            -32 -14 61 62 return
          </CharString>
          <CharString index="440">
            vvcurveto
            -24 24 -18 14 28 34 -75 callsubr
            32 vhcurveto
            return
          </CharString>
          <CharString index="441">
            hlineto
            -21 -63 -13 -77 -65 vvcurveto
            -102 31 -101 82 48 60 return
          </CharString>
          <CharString index="442">
            hlineto
            -25 -60 -25 -78 -92 vvcurveto
            -98 38 -78 75 151 return
          </CharString>
          <CharString index="443">
            60 284 callgsubr
            return
          </CharString>
          <CharString index="444">
            250 callgsubr
            hvcurveto
            -52 return
          </CharString>
          <CharString index="445">
            hvcurveto
            300 callsubr
            return
          </CharString>
          <CharString index="446">
            -39 24 -12 hvcurveto
            return
          </CharString>
          <CharString index="447">
            rmoveto
            89 callsubr
            -80 -121 return
          </CharString>
          <CharString index="448">
            314 callsubr
            96 callsubr
            return
          </CharString>
          <CharString index="449">
            hhcurveto
            -45 -45 -12 -24 -34 67 20 135 -35 hvcurveto
            return
          </CharString>
          <CharString index="450">
            -8 -18 vhcurveto
            -298 -116 -356 -36 vvcurveto
            -21 return
          </CharString>
          <CharString index="451">
            683 -106 callsubr
            return
          </CharString>
          <CharString index="452">
            -12 303 callgsubr
            -13 10 -5 12 46 94 return
          </CharString>
          <CharString index="453">
            -67 -126 -143 -81 -32 vvcurveto
            -28 42 -40 36 return
          </CharString>
          <CharString index="454">
            vlineto
            -105 callgsubr
            endchar
          </CharString>
          <CharString index="455">
            vvcurveto
            -35 48 -40 31 107 return
          </CharString>
          <CharString index="456">
            48 -57 83 -64 return
          </CharString>
          <CharString index="457">
            184 callgsubr
            27 45 24 5 return
          </CharString>
          <CharString index="458">
            -4 12 271 callsubr
            -40 vhcurveto
            return
          </CharString>
          <CharString index="459">
            vvcurveto
            23 34 18 65 vhcurveto
            39 23 -3 25 hhcurveto
            return
          </CharString>
          <CharString index="460">
            hvcurveto
            366 callgsubr
            return
          </CharString>
          <CharString index="461">
            rrcurveto
            -8 -33 -8 -42 -24 vvcurveto
            -17 5 -14 14 return
          </CharString>
          <CharString index="462">
            -16 hhcurveto
            -18 -9 -7 -15 -25 28 -35 34 hvcurveto
            return
          </CharString>
          <CharString index="463">
            -26 -35 17 24 26 40 28 return
          </CharString>
          <CharString index="464">
            1 -87 68 -58 72 -9 -17 return
          </CharString>
          <CharString index="465">
            -64 -48 -60 -51 hvcurveto
            -44 -8 return
          </CharString>
          <CharString index="466">
            65 23 11 11 15 return
          </CharString>
          <CharString index="467">
            232 callgsubr
            -46 return
          </CharString>
          <CharString index="468">
            hhcurveto
            1 hlineto
            1 hlineto
            return
          </CharString>
          <CharString index="469">
            72 79 39 52 56 return
          </CharString>
          <CharString index="470">
            185 179 20 -12 23 -14 19 hvcurveto
            return
          </CharString>
          <CharString index="471">
            -76 75 -39 113 25 23 2 4 21 return
          </CharString>
          <CharString index="472">
            25 26 -18 19 -26 -25 -19 -19 -26 vhcurveto
            return
          </CharString>
          <CharString index="473">
            rmoveto
            -98 callgsubr
            return
          </CharString>
          <CharString index="474">
            155 callgsubr
            -103 hlineto
            -7 return
          </CharString>
          <CharString index="475">
            -14 43 62 112 45 76 13 42 vhcurveto
            return
          </CharString>
          <CharString index="476">
            13 14 15 11 return
          </CharString>
        <CharString name=".notdef">
          219 173 hmoveto
          406 701 -406 hlineto
          63 -59 rmoveto
          280 -583 -280 hlineto
          endchar
        </CharString>
        <CharString name="A">
          75 237 342 -96 callgsubr
        </CharString>
        <CharString name="AE">
          298 421 385 rmoveto
          -70 -9 -72 -11 -54 -11 49 118 50 116 18 19 10 12 47 6 71 4 -3 -76 -22 -86 -24 -82 rrcurveto
          185 246 rmoveto
          152 74 13 22 23 -49 16 -239 -165 -92 -9 -50 -29 hvcurveto
          -27 -46 -53 -136 -38 -96 rrcurveto
          -55 -140 -67 -138 -23 vvcurveto
          -28 26 -26 21 23 48 126 139 57 vhcurveto
          36 3 81 16 88 11 rrcurveto
          -25 -81 -21 -73 -49 vvcurveto
          -48 54 -42 61 136 188 287 callgsubr
          -10 vhcurveto
          -25 -126 -49 -155 hhcurveto
          -16 -12 10 17 32 25 76 26 87 hvcurveto
          157 19 93 9 27 vvcurveto
          23 -31 8 -48 -26 -56 -4 -7 -67 vhcurveto
          23 78 18 79 59 vvcurveto
          7 -1 6 -2 6 vhcurveto
          endchar
        </CharString>
        <CharString name="Aacute">
          75 380 783 120 callgsubr
          -143 -441 -96 callgsubr
        </CharString>
        <CharString name="Abreve">
          75 399 788 rmoveto
          71 82 63 43 15 -7 8 -16 hvcurveto
          -34 -19 -61 -65 -74 5 96 -29 hhcurveto
          -18 -27 -19 -36 -48 63 -61 68 hvcurveto
          -162 -446 -96 callgsubr
        </CharString>
        <CharString name="Acircumflex">
          75 249 794 78 callgsubr
          -12 -452 -96 callgsubr
        </CharString>
        <CharString name="Adieresis">
          75 483 799 22 callsubr
          -96 -457 -96 callgsubr
        </CharString>
        <CharString name="Agrave">
          75 331 836 rmoveto
          -19 callsubr
          275 callgsubr
          hvcurveto
          -94 -494 -96 callgsubr
        </CharString>
        <CharString name="Amacron">
          75 255 799 rmoveto
          25 36 7 9 75 hvcurveto
          41 callgsubr
          vhcurveto
          -18 -457 -96 callgsubr
        </CharString>
        <CharString name="Aogonek">
          75 237 342 rmoveto
          36 96 39 102 40 91 14 -70 11 -91 10 -96 -48 -8 -53 -11 -49 -13 rrcurveto
          327 21 rmoveto
          21 -17 5 -28 -13 -17 -1 -2 -19 vhcurveto
          172 -18 -33 172 -44 hhcurveto
          -34 -42 -28 -40 -17 hvcurveto
          -26 -65 -48 -113 -41 -103 -8 -22 -9 -22 -9 -21 rrcurveto
          -59 -19 -40 -19 -14 vvcurveto
          -26 26 -19 25 vhcurveto
          2 2 0 3 hhcurveto
          -32 -74 -25 -57 -11 vvcurveto
          -32 34 -29 18 16 39 99 131 50 vhcurveto
          25 7 29 8 35 10 35 9 36 9 34 9 6 -65 5 -64 4 -59 3 -26 4 -20 4 -15 rrcurveto
          -49 -21 -75 -91 -55 vvcurveto
          46 callgsubr
          hvcurveto
          44 95 35 45 vvcurveto
          2 0 2 -1 1 vhcurveto
          9 19 4 36 55 vvcurveto
          49 -3 63 -5 65 vhcurveto
          52 15 36 15 14 vvcurveto
          endchar
        </CharString>
        <CharString name="Aring">
          75 401 911 160 callgsubr
          -13 -139 rmoveto
          55 44 55 53 48 -34 39 -45 -55 -44 -55 -54 -47 34 -39 45 hvcurveto
          -151 -430 -96 callgsubr
        </CharString>
        <CharString name="Atilde">
          75 254 787 rmoveto
          18 callsubr
          220 callgsubr
          hvcurveto
          -17 -445 -96 callgsubr
        </CharString>
        <CharString name="B">
          104 153 96 rmoveto
          10 11 14 41 23 84 12 44 11 42 10 39 rrcurveto
          -14 10 20 -14 17 hhcurveto
          81 127 -28 -43 -78 -193 -80 -142 -4 hvcurveto
          211 536 rmoveto
          63 54 -25 -45 -71 -100 -36 -70 -27 hvcurveto
          -26 -11 -25 -10 -16 -10 rrcurveto
          21 83 14 64 23 vvcurveto
          14 -13 23 -15 16 vhcurveto
          6 34 39 6 40 hhcurveto
          9 -253 rmoveto
          130 41 68 68 79 vvcurveto
          96 -107 52 -185 -81 -64 -19 -23 -16 30 -43 26 vhcurveto
          8 hlineto
          -2 -174 -98 -235 -45 vvcurveto
          -27 22 -28 17 -9 vhcurveto
          2 -67 -28 42 -19 hhcurveto
          -9 -8 -9 -17 -38 68 -59 84 205 212 115 122 61 -79 56 -114 7 hvcurveto
          endchar
        </CharString>
        <CharString name="C">
          66 551 625 47 callgsubr
        </CharString>
        <CharString name="CR">
          -132 endchar
        </CharString>
        <CharString name="Cacute">
          152 545 896 rmoveto
          -68 callgsubr
          156 callgsubr
          vhcurveto
          7 -271 47 callgsubr
        </CharString>
        <CharString name="Ccaron">
          159 647 943 -57 callgsubr
          -95 -318 47 callgsubr
        </CharString>
        <CharString name="Ccedilla">
          70 241 -33 rmoveto
          11 20 9 19 6 15 rrcurveto
          114 5 161 108 45 vvcurveto
          12 -8 10 -6 vhcurveto
          -30 -94 -87 -146 hhcurveto
          -53 -46 33 64 178 213 235 106 hvcurveto
          31 18 -15 17 hhcurveto
          4 4 3 13 35 -46 58 -35 -186 -219 -313 -190 -78 65 -77 73 -28 hvcurveto
          -15 -37 -25 -43 -18 7 callsubr
        </CharString>
        <CharString name="D">
          79 callgsubr
          endchar
        </CharString>
        <CharString name="Dcaron">
          79 callgsubr
          453 169 94 callgsubr
        </CharString>
        <CharString name="Dcroat">
          92 212 288 rmoveto
          11 1 rlineto
          76 9 59 9 21 vvcurveto
          28 -35 15 -44 -7 -16 -2 -2 -21 vhcurveto
          31 105 16 65 36 111 callsubr
          6 41 12 60 13 44 rrcurveto
          -85 103 rmoveto
          -67 -7 -41 -11 -24 vvcurveto
          -27 24 -15 34 8 20 3 3 25 vhcurveto
          -20 -74 -16 -63 -31 140 callsubr
          -12 -8 -6 -14 -23 26 -32 44 -18 vhcurveto
          -5 -63 -29 -108 -29 -102 rrcurveto
          endchar
        </CharString>
        <CharString name="E">
          52 267 615 -84 callgsubr
        </CharString>
        <CharString name="Eacute">
          52 418 783 120 callgsubr
          -151 -168 -84 callgsubr
        </CharString>
        <CharString name="Ecaron">
          52 406 774 47 callsubr
          -139 -159 -84 callgsubr
        </CharString>
        <CharString name="Ecircumflex">
          52 287 794 78 callgsubr
          -20 -179 -84 callgsubr
        </CharString>
        <CharString name="Edieresis">
          52 521 799 22 callsubr
          -104 -184 -84 callgsubr
        </CharString>
        <CharString name="Edotaccent">
          52 441 788 rmoveto
          13 15 15 9 26 -35 81 -24 -22 -25 -33 -23 -29 50 -46 28 hvcurveto
          -174 -173 -84 callgsubr
        </CharString>
        <CharString name="Egrave">
          52 369 836 rmoveto
          -19 callsubr
          275 callgsubr
          hvcurveto
          -102 -221 -84 callgsubr
        </CharString>
        <CharString name="Emacron">
          52 293 799 rmoveto
          25 36 7 9 75 hvcurveto
          41 callgsubr
          vhcurveto
          -26 -184 -84 callgsubr
        </CharString>
        <CharString name="Eogonek">
          52 267 615 rmoveto
          29 5 38 8 44 5 rrcurveto
          131 15 96 -1 34 vvcurveto
          23 -87 6 -114 -154 -53 -13 -24 -11 vhcurveto
          -2 -6 -2 -7 -10 -181 -119 -249 -115 vvcurveto
          -48 54 -42 61 61 71 13 18 60 vhcurveto
          -16 -25 -10 -25 -21 vvcurveto
          46 callgsubr
          hvcurveto
          44 95 35 45 vvcurveto
          14 -13 10 -13 2 vhcurveto
          1 -2 -2 1 -3 -25 -125 -49 -156 hhcurveto
          -15 -12 10 17 34 27 81 27 92 hvcurveto
          123 149 18 51 9 -13 5 -21 hvcurveto
          -59 -39 -10 -96 hhcurveto
          -8 -8 0 1 -6 hvcurveto
          20 74 17 75 56 vvcurveto
          endchar
        </CharString>
        <CharString name="Eth">
          86 229 287 rmoveto
          33 5 32 6 20 6 rrcurveto
          25 6 12 10 11 vvcurveto
          22 -36 15 -31 -9 -11 0 -1 -13 vhcurveto
          27 94 15 60 34 111 callsubr
          6 41 12 60 13 44 rrcurveto
          -47 472 rmoveto
          -12 -8 -6 -14 -23 26 -32 44 -18 hvcurveto
          -5 -59 -25 -98 -27 -96 -35 -5 -36 -6 -30 -6 rrcurveto
          -24 -5 -19 -10 -17 vvcurveto
          -25 47 -12 22 8 19 2 2 25 vhcurveto
          -22 -82 -19 -71 -34 140 callsubr
          vhcurveto
          endchar
        </CharString>
        <CharString name="Euro">
          20 205 209 rmoveto
          189 26 104 18 28 vvcurveto
          18 -37 7 -44 -42 -95 -8 -11 -87 vhcurveto
          7 27 11 27 15 27 28 2 rcurveline
          156 11 114 10 26 vvcurveto
          26 -65 10 -83 -21 -35 -1 -2 -39 vhcurveto
          79 64 82 59 59 29 12 -30 16 hhcurveto
          11 11 16 18 35 -41 50 -38 -119 -119 -107 -127 -74 hvcurveto
          -65 -6 -54 -11 -15 vvcurveto
          -19 22 -37 19 12 12 1 1 12 vhcurveto
          -11 -28 -8 -28 -6 -27 rrcurveto
          -54 -9 -38 -11 -9 vvcurveto
          -17 23 -37 18 15 14 1 2 15 vhcurveto
          -100 6 70 -79 119 hhcurveto
          109 151 91 43 12 -6 11 -11 hvcurveto
          -36 -79 -70 -125 hhcurveto
          -70 -35 43 61 -7 hvcurveto
          endchar
        </CharString>
        <CharString name="F">
          -10 197 313 rmoveto
          129 147 30 43 9 -15 7 -23 -39 -45 -9 -1 -81 hvcurveto
          -20 -1 -17 1 -19 1 rrcurveto
          21 91 18 87 38 vvcurveto
          3 0 3 -1 3 vhcurveto
          30 3 41 6 50 5 rrcurveto
          120 13 96 2 28 vvcurveto
          25 -87 13 -103 -147 -59 -11 -28 -13 vhcurveto
          -4 -5 -3 -8 -11 vvcurveto
          -3 -136 -114 -369 -55 vvcurveto
          -23 37 -51 18 13 16 75 86 22 vhcurveto
          9 37 12 48 12 51 rrcurveto
          endchar
        </CharString>
        <CharString name="G">
          78 461 624 rmoveto
          269 callgsubr
          22 callgsubr
          endchar
        </CharString>
        <CharString name="Gbreve">
          78 453 717 rmoveto
          22 callgsubr
          269 callgsubr
          hvcurveto
          201 193 94 callsubr
        </CharString>
        <CharString name="H">
          137 205 300 rmoveto
          31 7 36 8 42 8 57 10 52 7 45 6 rrcurveto
          -31 -120 -29 -109 -30 vvcurveto
          -33 34 -37 17 18 25 125 125 34 vhcurveto
          25 93 rlineto
          39 8 23 9 16 vvcurveto
          16 -18 8 -28 4 vhcurveto
          27 102 18 79 25 vvcurveto
          44 -43 49 -20 -15 -5 -8 -22 -51 -24 -106 -27 -110 vhcurveto
          -66 -4 -106 -13 -87 -18 rrcurveto
          30 118 19 93 28 vvcurveto
          44 -41 49 -20 -15 -5 -7 -23 -60 -34 -136 -33 -129 vhcurveto
          -32 -10 -20 -10 -9 vvcurveto
          -22 15 -18 17 -6 vhcurveto
          -24 -94 -20 -80 -28 vvcurveto
          -25 38 -46 16 17 25 125 125 34 vhcurveto
          endchar
        </CharString>
        <CharString name="I">
          -33 callgsubr
          endchar
        </CharString>
        <CharString name="Iacute">
          -33 callgsubr
          117 208 rmoveto
          -68 callgsubr
          156 callgsubr
          vhcurveto
          endchar
        </CharString>
        <CharString name="Icircumflex">
          -33 callgsubr
          162 214 -43 callsubr
          endchar
        </CharString>
        <CharString name="Idieresis">
          -33 callgsubr
          60 137 -20 callsubr
          endchar
        </CharString>
        <CharString name="Idotaccent">
          -33 callgsubr
          26 175 149 callsubr
        </CharString>
        <CharString name="Igrave">
          -33 callgsubr
          -53 225 rmoveto
          275 callgsubr
          vhcurveto
          -19 callsubr
          hvcurveto
          endchar
        </CharString>
        <CharString name="Imacron">
          -33 callgsubr
          92 127 rmoveto
          41 callgsubr
          275 callsubr
          vhcurveto
          endchar
        </CharString>
        <CharString name="Iogonek">
          -223 134 38 rmoveto
          18 43 23 108 26 103 rrcurveto
          42 171 30 126 36 vvcurveto
          44 -43 49 -21 -16 -5 -8 -22 vhcurveto
          -1 -112 -119 -433 -59 vvcurveto
          -6 2 -7 4 -7 vhcurveto
          -49 -28 -66 -83 -52 vvcurveto
          46 callgsubr
          41 84 34 10 41 hvcurveto
          endchar
        </CharString>
        <CharString name="J">
          -65 26 194 rmoveto
          -12 -6 -9 -20 -48 99 -104 90 102 25 91 286 78 hvcurveto
          43 150 52 118 33 vvcurveto
          24 -25 9 -20 -56 -251 -52 -52 -14 13 -11 24 33 99 32 13 87 vhcurveto
          -25 -41 -27 -87 -22 -79 rrcurveto
          -244 -66 -29 -94 -47 -76 -57 99 -26 hhcurveto
          endchar
        </CharString>
        <CharString name="K">
          58 105 20 63 callgsubr
        </CharString>
        <CharString name="L">
          13 281 647 4 callsubr
        </CharString>
        <CharString name="Lacute">
          13 365 896 rmoveto
          -68 callgsubr
          156 callgsubr
          vhcurveto
          -84 -249 4 callsubr
        </CharString>
        <CharString name="Lcaron">
          13 421 628 rmoveto
          345 callsubr
          65 74 40 -37 33 -40 -22 -28 -22 -22 -27 34 5 18 -26 vhcurveto
          -140 19 4 callsubr
        </CharString>
        <CharString name="Lslash">
          -19 227 376 rmoveto
          107 39 36 15 20 vvcurveto
          11 -10 4 -16 -12 -42 -7 -12 -50 vhcurveto
          24 86 17 74 41 vvcurveto
          40 -41 38 -20 -17 -4 -9 -21 -58 -28 -107 -31 -108 vhcurveto
          -67 -19 -58 -21 -16 vvcurveto
          -16 29 -22 24 7 19 5 7 23 vhcurveto
          -29 -101 -26 -90 -40 vvcurveto
          -48 55 -44 64 138 173 59 57 12 -2 5 -14 vhcurveto
          -26 -118 -49 -154 hhcurveto
          -15 -11 8 16 21 11 44 32 103 hvcurveto
          8 27 8 27 8 26 rrcurveto
          endchar
        </CharString>
        <CharString name="M">
          256 283 643 rmoveto
          31 -3 -59 44 -15 hhcurveto
          -17 -4 -8 -22 hvcurveto
          -117 -129 -409 -72 vvcurveto
          -24 32 -46 16 14 32 123 124 35 vhcurveto
          17 62 24 100 12 76 36 -114 39 -100 22 -32 rrcurveto
          -21 16 21 -10 18 hhcurveto
          41 69 91 229 183 hvcurveto
          -56 -152 -53 -234 -64 vvcurveto
          -42 22 -36 18 22 22 134 155 41 vhcurveto
          44 157 40 127 54 vvcurveto
          28 -35 32 -22 -42 -121 -182 -195 -164 vhcurveto
          -57 122 -54 142 -5 49 rrcurveto
          endchar
        </CharString>
        <CharString name="N">
          144 645 659 -47 callsubr
          endchar
        </CharString>
        <CharString name="NULL">
          endchar
        </CharString>
        <CharString name="Nacute">
          144 463 896 rmoveto
          -68 callgsubr
          156 callgsubr
          vhcurveto
          182 -237 -47 callsubr
          endchar
        </CharString>
        <CharString name="Ncaron">
          144 565 943 -57 callgsubr
          80 -284 -47 callsubr
          endchar
        </CharString>
        <CharString name="Ntilde">
          144 645 659 -47 callsubr
          -259 276 rmoveto
          220 callgsubr
          18 callsubr
          endchar
        </CharString>
        <CharString name="O">
          121 callsubr
          endchar
        </CharString>
        <CharString name="OE">
          407 486 377 rmoveto
          -134 -44 -133 -147 -84 hhcurveto
          -40 -40 47 77 196 177 221 80 47 51 -61 -118 -19 -3 -21 -5 -20 hvcurveto
          46 245 rmoveto
          47 -35 -49 32 -58 hhcurveto
          -142 -200 -256 -252 -82 72 -115 93 70 70 37 56 60 hvcurveto
          -5 vlineto
          -48 54 -42 61 137 187 287 callgsubr
          -10 vhcurveto
          -25 -126 -49 -155 hhcurveto
          -15 -13 10 17 33 27 81 27 91 hvcurveto
          1 2 rlineto
          123 149 18 51 9 -13 5 -22 hvcurveto
          -59 -38 -10 -96 hhcurveto
          -8 -8 0 1 -6 hvcurveto
          20 74 17 75 56 vvcurveto
          3 vlineto
          29 5 37 8 45 5 rrcurveto
          131 15 95 -1 34 vvcurveto
          23 -86 6 -114 -144 -55 -11 -22 -16 vhcurveto
          -5 -5 -3 -9 -13 vvcurveto
          endchar
        </CharString>
        <CharString name="Oacute">
          80 518 896 rmoveto
          -68 callgsubr
          156 callgsubr
          vhcurveto
          -464 -682 -60 callsubr
          endchar
        </CharString>
        <CharString name="Ocircumflex">
          80 563 902 -43 callsubr
          -509 -688 -60 callsubr
          endchar
        </CharString>
        <CharString name="Odieresis">
          80 461 825 -20 callsubr
          -558 -611 -60 callsubr
          endchar
        </CharString>
        <CharString name="Ograve">
          121 callsubr
          -54 276 rmoveto
          275 callgsubr
          vhcurveto
          -19 callsubr
          hvcurveto
          endchar
        </CharString>
        <CharString name="Ohungarumlaut">
          80 480 996 -16 callgsubr
          -583 -774 -60 callsubr
          endchar
        </CharString>
        <CharString name="Omacron">
          80 493 815 rmoveto
          41 callgsubr
          275 callsubr
          vhcurveto
          -439 -601 -60 callsubr
          endchar
        </CharString>
        <CharString name="Oslash">
          80 505 458 rmoveto
          -147 -173 -215 -102 -21 -22 13 23 -16 vhcurveto
          65 82 102 128 160 183 rrcurveto
          4 -19 3 -23 -25 vvcurveto
          -360 -238 rmoveto
          196 177 221 80 23 24 -14 -28 20 vhcurveto
          -60 -68 -70 -89 -66 -82 -43 -53 -45 -54 -39 -48 rrcurveto
          -1 6 0 6 7 vvcurveto
          436 399 rmoveto
          34 37 9 22 14 vvcurveto
          14 -10 9 -14 -14 -26 -21 -34 -33 vhcurveto
          38 -35 -45 24 -51 hhcurveto
          -142 -200 -256 -252 -30 10 -34 17 -31 hvcurveto
          -27 -37 -18 -27 -11 vvcurveto
          -16 10 -13 17 10 16 17 36 30 vhcurveto
          -30 29 37 -21 40 hhcurveto
          188 184 266 187 46 -11 46 -20 40 hvcurveto
          endchar
        </CharString>
        <CharString name="Otilde">
          121 callsubr
          39 298 rmoveto
          220 callgsubr
          18 callsubr
          endchar
        </CharString>
        <CharString name="P">
          10 204 340 rmoveto
          35 129 14 68 40 vvcurveto
          14 -4 14 -6 13 vhcurveto
          13 29 38 17 45 hhcurveto
          65 51 -42 -59 -84 -109 -81 -158 -42 hvcurveto
          355 213 rmoveto
          106 -92 71 -127 -78 -120 -36 -35 -11 11 -17 13 -12 vhcurveto
          -8 -182 -115 -290 -68 vvcurveto
          -25 33 -39 19 15 36 125 122 36 vhcurveto
          217 42 160 100 149 vvcurveto
          endchar
        </CharString>
        <CharString name="Q">
          108 247 96 rmoveto
          -44 -58 47 78 115 58 126 67 83 hvcurveto
          -5 -21 -2 -22 -25 vvcurveto
          -83 31 -138 40 -125 vhcurveto
          -22 -30 -30 -13 -27 hhcurveto
          269 365 rmoveto
          -87 -53 -107 -65 -76 vhcurveto
          -29 97 -24 115 128 vvcurveto
          43 8 33 15 21 vhcurveto
          5 12 12 3 11 hhcurveto
          49 64 -61 -114 hvcurveto
          91 9 rmoveto
          127 -97 122 -114 -144 -195 -248 -257 -99 93 -95 93 41 40 12 20 38 vhcurveto
          -108 41 45 -83 32 hhcurveto
          15 10 6 17 33 -38 75 -38 106 hvcurveto
          105 92 73 156 124 vvcurveto
          endchar
        </CharString>
        <CharString name="R">
          51 241 607 rmoveto
          159 callsubr
          217 callsubr
          -47 -308 -9 callgsubr
          endchar
        </CharString>
        <CharString name="Racute">
          42 204 352 rmoveto
          217 callsubr
          159 callsubr
          -15 -53 -9 callgsubr
          347 716 rmoveto
          156 callgsubr
          hvcurveto
          -68 callgsubr
          vhcurveto
          endchar
        </CharString>
        <CharString name="Rcaron">
          42 381 774 47 callsubr
          -177 -422 rmoveto
          217 callsubr
          159 callsubr
          -15 -53 -9 callgsubr
          endchar
        </CharString>
        <CharString name="S">
          -2 214 21 rmoveto
          140 114 83 110 hvcurveto
          -21 callgsubr
          -51 85 -92 124 hvcurveto
          endchar
        </CharString>
        <CharString name="Sacute">
          -7 444 896 rmoveto
          -68 callgsubr
          156 callgsubr
          vhcurveto
          -230 -875 rmoveto
          140 114 83 110 hvcurveto
          -21 callgsubr
          -51 85 -92 124 hvcurveto
          endchar
        </CharString>
        <CharString name="Scaron">
          -7 546 943 -57 callgsubr
          -332 -922 rmoveto
          140 114 83 110 hvcurveto
          -21 callgsubr
          -51 85 -92 124 hvcurveto
          endchar
        </CharString>
        <CharString name="T">
          2 373 714 31 callgsubr
        </CharString>
        <CharString name="Tcaron">
          -12 333 733 47 callsubr
          27 -19 31 callgsubr
        </CharString>
        <CharString name="Thorn">
          -30 214 264 rmoveto
          -11 -1 -10 -1 -11 1 16 61 15 63 13 55 rrcurveto
          10 23 23 6 21 hhcurveto
          48 46 -29 -44 -62 -87 -53 -86 -6 hvcurveto
          87 284 rmoveto
          -16 -20 -3 -5 -20 hvcurveto
          4 23 2 18 11 vvcurveto
          55 -50 34 -20 -19 -4 -9 -22 vhcurveto
          -191 -107 -314 -67 vvcurveto
          -24 27 -39 20 19 19 73 96 26 vhcurveto
          18 20 1 2 18 hvcurveto
          133 12 120 80 107 vvcurveto
          77 -91 85 -79 vhcurveto
          endchar
        </CharString>
        <CharString name="U">
          65 254 37 callgsubr
          endchar
        </CharString>
        <CharString name="Uacute">
          59 398 896 rmoveto
          -68 callgsubr
          156 callgsubr
          vhcurveto
          -149 -260 -63 callsubr
          endchar
        </CharString>
        <CharString name="Ucircumflex">
          59 443 902 -43 callsubr
          -194 -266 -63 callsubr
          endchar
        </CharString>
        <CharString name="Udieresis">
          59 341 825 -20 callsubr
          -243 -189 -63 callsubr
          endchar
        </CharString>
        <CharString name="Ugrave">
          28 callsubr
          -21 277 rmoveto
          275 callgsubr
          vhcurveto
          -19 callsubr
          hvcurveto
          endchar
        </CharString>
        <CharString name="Uhungarumlaut">
          28 callsubr
          111 360 -16 callgsubr
          endchar
        </CharString>
        <CharString name="Umacron">
          28 callsubr
          124 179 rmoveto
          41 callgsubr
          275 callsubr
          vhcurveto
          endchar
        </CharString>
        <CharString name="Uogonek">
          46 279 17 rmoveto
          156 40 129 252 287 vvcurveto
          81 -60 42 -23 -14 -4 -6 -15 vhcurveto
          -31 9 -31 -74 vvcurveto
          -252 -142 -214 -86 -46 -30 51 75 vhcurveto
          109 81 218 87 vvcurveto
          43 -46 40 -19 -16 -4 -8 -22 vhcurveto
          -126 -84 -196 -161 vvcurveto
          -74 42 -78 61 -30 vhcurveto
          -36 -37 -32 -51 -36 vvcurveto
          46 callgsubr
          34 58 29 25 33 hvcurveto
          endchar
        </CharString>
        <CharString name="Uring">
          59 390 967 216 callgsubr
          -7 -56 160 callgsubr
          -134 -275 -63 callsubr
          endchar
        </CharString>
        <CharString name="V">
          -1 545 718 rmoveto
          -43 -171 -333 -238 -84 hvcurveto
          -52 199 -13 238 -18 58 rrcurveto
          45 -17 -34 31 -27 hhcurveto
          -11 -6 -9 -22 -69 80 -446 38 -95 hvcurveto
          -32 13 26 -32 17 hhcurveto
          39 41 133 211 106 hvcurveto
          95 191 69 89 45 vvcurveto
          18 -27 18 -21 vhcurveto
          endchar
        </CharString>
        <CharString name="W">
          249 498 719 rmoveto
          -32 -16 -7 -22 -20 35 -43 39 84 38 -120 -103 -142 -62 -149 -77 hvcurveto
          -73 24 300 -57 hhcurveto
          -45 -123 -145 -133 -79 hvcurveto
          15 190 60 267 49 vvcurveto
          36 -54 41 -27 -13 -9 -9 -28 vhcurveto
          -209 -54 -252 -118 vvcurveto
          -45 40 -38 18 27 41 36 118 85 vhcurveto
          31 43 28 39 30 42 rrcurveto
          -161 11 31 -116 91 hhcurveto
          124 106 188 184 175 -72 152 -165 hvcurveto
          endchar
        </CharString>
        <CharString name="X">
          91 312 420 rmoveto
          -51 90 -39 91 70 vvcurveto
          27 -50 21 -36 -11 -3 -12 -15 -73 61 -140 74 -133 vhcurveto
          -92 -120 -83 -98 -33 -36 rrcurveto
          -16 -17 -8 -5 -12 vvcurveto
          -16 29 -22 20 45 66 97 152 116 vhcurveto
          -137 83 88 -113 34 hhcurveto
          12 14 10 23 35 -91 121 -83 134 hvcurveto
          114 147 67 86 36 35 rrcurveto
          27 26 24 7 16 vvcurveto
          19 -37 37 -15 -36 -46 -43 -216 -154 vhcurveto
          endchar
        </CharString>
        <CharString name="Y">
          26 callgsubr
          endchar
        </CharString>
        <CharString name="Yacute">
          26 callgsubr
          77 523 rmoveto
          -68 callgsubr
          156 callgsubr
          vhcurveto
          endchar
        </CharString>
        <CharString name="Ydieresis">
          26 callgsubr
          20 452 -20 callsubr
          endchar
        </CharString>
        <CharString name="Z">
          87 562 571 -23 callgsubr
          endchar
        </CharString>
        <CharString name="Zacute">
          87 438 896 rmoveto
          -68 callgsubr
          156 callgsubr
          vhcurveto
          124 -325 -23 callgsubr
          endchar
        </CharString>
        <CharString name="Zcaron">
          87 540 943 -57 callgsubr
          22 -372 -23 callgsubr
          endchar
        </CharString>
        <CharString name="Zdotaccent">
          87 562 571 -23 callgsubr
          -215 292 149 callsubr
        </CharString>
        <CharString name="a">
          -64 343 223 callsubr
          75 45 rmoveto
          349 callsubr
          -132 -158 -256 -119 -57 75 -64 60 54 63 52 61 48 vhcurveto
          -65 3 16 -48 24 hhcurveto
          23 -1 57 62 11 hvcurveto
          14 77 8 42 30 vvcurveto
          8 -5 9 -7 9 vhcurveto
          13 20 12 29 22 vvcurveto
          endchar
        </CharString>
        <CharString name="aacute">
          -61 346 334 -77 callsubr
          207 241 rmoveto
          156 callgsubr
          hvcurveto
          -68 callgsubr
          vhcurveto
          endchar
        </CharString>
        <CharString name="abreve">
          -61 346 334 -77 callsubr
          226 185 94 callsubr
        </CharString>
        <CharString name="acircumflex">
          -61 346 334 -77 callsubr
          158 170 -43 callsubr
          endchar
        </CharString>
        <CharString name="acute">
          63 771 rmoveto
          -68 callgsubr
          156 callgsubr
          vhcurveto
          endchar
        </CharString>
        <CharString name="adieresis">
          -61 330 578 rmoveto
          12 14 15 11 27 -35 73 -23 -21 -23 -30 -22 -27 45 -47 31 hvcurveto
          16 -244 -77 callsubr
          149 193 rmoveto
          -21 -24 -30 -22 -27 46 -47 30 369 callsubr
          27 -35 73 -23 hvcurveto
          endchar
        </CharString>
        <CharString name="ae">
          210 314 511 rmoveto
          -142 -143 -254 -119 -61 73 -62 55 63 53 55 72 54 hvcurveto
          -76 14 68 -51 88 hhcurveto
          286 callsubr
          -8 8 -18 hvcurveto
          350 callsubr
          28 9 27 hvcurveto
          -9 38 41 -7 47 hhcurveto
          164 callgsubr
          -54 -52 -36 -47 -42 hvcurveto
          44 -20 -45 39 -48 hhcurveto
          123 -213 rmoveto
          72 35 57 62 52 hhcurveto
          35 39 -48 -33 -39 -56 -23 -83 -22 -29 3 6 -28 hvcurveto
          -114 130 rmoveto
          31 12 -30 -53 2 hvcurveto
          -12 -20 -9 -22 -6 -20 rrcurveto
          -117 -57 -70 -68 -61 hhcurveto
          -20 -22 14 24 83 119 209 93 hvcurveto
          endchar
        </CharString>
        <CharString name="agrave">
          -61 346 334 -77 callsubr
          67 170 rmoveto
          39 -39 -18 28 -19 hhcurveto
          -25 -23 -31 -25 275 callgsubr
          hvcurveto
          -27 40 24 -26 17 hhcurveto
          14 13 14 15 19 -13 12 -56 59 hvcurveto
          endchar
        </CharString>
        <CharString name="amacron">
          -61 346 334 -77 callsubr
          74 130 callsubr
        </CharString>
        <CharString name="ampersand">
          171 104 111 rmoveto
          28 67 54 78 65 vhcurveto
          18 -31 20 -31 23 -28 rrcurveto
          -45 -73 -67 -35 -40 hhcurveto
          -15 -11 9 14 hvcurveto
          163 376 rmoveto
          62 35 56 51 35 15 -26 -30 -46 -54 -58 -67 -59 vhcurveto
          -10 35 -5 34 32 vvcurveto
          302 -396 rmoveto
          -50 -48 21 35 -42 hvcurveto
          119 80 103 90 26 vvcurveto
          18 -8 15 -23 -18 -114 -89 -79 -117 vhcurveto
          -24 30 -21 35 -16 36 rrcurveto
          93 81 89 91 76 vvcurveto
          48 -23 76 -96 -115 -79 -90 -97 -51 13 -57 23 -56 vhcurveto
          -99 -81 -101 -78 -48 vvcurveto
          -52 63 -62 52 56 91 43 55 90 vhcurveto
          -53 57 66 -34 66 hhcurveto
          68 30 20 27 19 -20 5 -65 hvcurveto
          endchar
        </CharString>
        <CharString name="aogonek">
          -61 346 223 callsubr
          25 -297 rmoveto
          6 22 2 36 7 38 rrcurveto
          14 77 8 42 30 vvcurveto
          8 -5 9 -7 9 vhcurveto
          13 20 12 29 22 vvcurveto
          349 callsubr
          -132 -158 -256 -119 -57 75 -64 60 54 63 52 61 48 vhcurveto
          1 -26 4 -23 5 -19 rrcurveto
          -49 -21 -76 -91 -55 vvcurveto
          46 callgsubr
          44 94 35 1 45 hvcurveto
          endchar
        </CharString>
        <CharString name="apostrophemod">
          202 callsubr
        </CharString>
        <CharString name="approxequal">
          56 212 325 91 callsubr
          53 230 91 callsubr
          endchar
        </CharString>
        <CharString name="aring">
          -61 346 334 -77 callsubr
          91 93 rmoveto
          -15 -11 16 20 30 18 20 15 16 11 -16 -21 -29 -17 -20 -17 hvcurveto
          14 142 216 callgsubr
          endchar
        </CharString>
        <CharString name="asciicircum">
          -111 334 683 rmoveto
          -37 88 -2 32 -18 19 rrcurveto
          12 -11 -34 11 -19 hhcurveto
          -45 -113 -190 -67 -14 19 -17 19 25 13 44 55 30 hvcurveto
          20 37 20 28 27 28 rrcurveto
          -70 34 64 -126 34 hhcurveto
          11 5 4 14 13 -18 40 -24 59 hvcurveto
          endchar
        </CharString>
        <CharString name="asciitilde">
          61 239 430 91 callsubr
          endchar
        </CharString>
        <CharString name="asterisk">
          -176 271 663 rmoveto
          40 17 70 37 9 vvcurveto
          13 -18 13 -12 -13 -37 -41 -25 -40 vhcurveto
          7 25 11 35 10 vvcurveto
          16 -27 21 -12 -9 -4 -3 -12 -13 1 -44 -1 -34 vhcurveto
          -18 9 -29 35 -4 8 rrcurveto
          13 -6 -32 6 -19 hhcurveto
          -10 0 -5 -7 -16 65 -51 39 -15 hvcurveto
          -43 -27 -69 -20 -11 vvcurveto
          -11 13 -12 12 10 62 33 22 23 vhcurveto
          -6 -28 -18 -48 -11 vvcurveto
          -9 12 -13 10 14 16 76 31 4 vhcurveto
          -26 30 41 -26 15 hhcurveto
          9 13 9 9 11 -58 23 -32 27 hvcurveto
          endchar
        </CharString>
        <CharString name="at">
          432 605 354 rmoveto
          -10 -1 -5 -6 -2 -8 rrcurveto
          -124 -29 -107 -92 -54 hhcurveto
          -23 -25 18 25 79 131 201 78 26 16 -40 -45 4 hvcurveto
          2 369 rmoveto
          -340 -224 -346 -257 -159 126 -133 173 107 164 55 57 10 -4 4 -9 hvcurveto
          -29 -78 -48 -152 hhcurveto
          -132 -75 87 129 227 203 294 272 151 66 -107 -136 -144 -116 -114 -47 -21 -10 20 17 hvcurveto
          40 33 50 27 vvcurveto
          11 -7 11 -8 9 vhcurveto
          11 16 10 23 21 vvcurveto
          51 -56 77 -62 -129 -153 -239 -116 -55 74 -63 59 45 57 42 52 49 vhcurveto
          -41 9 31 -32 43 hhcurveto
          117 158 163 180 181 -116 136 -190 hvcurveto
          endchar
        </CharString>
        <CharString name="atilde">
          -61 346 334 -77 callsubr
          228 191 rmoveto
          -37 -7 -63 -7 -35 hvcurveto
          7 -35 -8 75 -70 hhcurveto
          220 callgsubr
          35 7 58 23 47 hvcurveto
          -55 36 38 -33 38 hhcurveto
          52 49 65 45 21 -9 12 -16 hvcurveto
          endchar
        </CharString>
        <CharString name="b">
          -8 233 92 rmoveto
          -29 -38 19 41 -32 hvcurveto
          141 65 107 133 81 hhcurveto
          27 9 -23 -36 -133 -105 -142 -85 hvcurveto
          -127 -11 rmoveto
          1 2 rlineto
          -43 41 46 -26 51 hhcurveto
          135 126 211 140 72 -47 77 -65 -68 -79 -68 -93 -69 hvcurveto
          39 165 15 137 49 vvcurveto
          40 -42 357 callgsubr
          -297 -126 -324 -65 vvcurveto
          -23 33 -37 19 8 11 27 40 13 vhcurveto
          endchar
        </CharString>
        <CharString name="backslash">
          67 474 -77 rmoveto
          16 31 39 18 49 -133 314 -183 424 hvcurveto
          20 -9 -1 9 -14 hhcurveto
          -15 -42 -52 -29 -54 99 -174 82 -197 hvcurveto
          -276 114 39 -91 16 hhcurveto
          endchar
        </CharString>
        <CharString name="bar">
          -165 67 -74 rmoveto
          -22 36 -39 19 20 75 376 122 29 vhcurveto
          37 156 44 189 33 vvcurveto
          40 -45 47 -20 -18 -4 -9 -21 vhcurveto
          -100 -173 -718 -54 vvcurveto
          endchar
        </CharString>
        <CharString name="braceleft">
          -112 183 338 rmoveto
          74 43 53 50 59 -44 46 -1 112 hvcurveto
          83 58 39 55 58 7 -32 -47 -26 1 -16 13 21 26 44 32 68 -55 59 -81 -97 -87 -70 -106 vhcurveto
          -108 47 -64 -52 vvcurveto
          -33 -22 -21 -36 vhcurveto
          -32 -34 36 -19 hhcurveto
          -8 -5 -14 -9 -18 11 -18 17 -14 hvcurveto
          7 -11 8 -13 -12 -100 -67 -51 -112 vvcurveto
          -88 72 -79 97 48 46 24 27 21 -16 6 -42 -79 -38 26 63 vhcurveto
          106 54 51 72 vvcurveto
          14 -2 12 -3 11 vhcurveto
          endchar
        </CharString>
        <CharString name="braceright">
          5 424 370 rmoveto
          -16 2 -17 1 -15 3 rrcurveto
          -23 7 -18 17 26 69 183 90 129 vvcurveto
          70 -91 78 -81 -80 -92 -61 -45 -15 30 -34 16 vhcurveto
          27 23 82 68 hhcurveto
          50 40 -34 -48 hvcurveto
          -99 -175 -93 -92 vvcurveto
          -47 32 -37 40 -19 vhcurveto
          -101 -74 58 -242 -101 -85 9 45 -38 hhcurveto
          -12 -5 -10 -14 -40 64 -50 77 202 -114 341 64 113 hvcurveto
          22 9 16 16 18 vvcurveto
          11 -12 1 -21 2 vhcurveto
          endchar
        </CharString>
        <CharString name="bracketleft">
          -80 269 759 rmoveto
          -1 -2 0 -3 -3 -136 -193 -512 -84 vvcurveto
          -48 55 -36 59 55 118 41 37 11 -4 7 -15 vhcurveto
          -25 -75 -13 -51 hhcurveto
          -14 -7 6 13 21 16 55 48 150 hvcurveto
          50 153 70 227 65 vvcurveto
          3 0 2 -1 3 vhcurveto
          13 3 14 3 16 3 rrcurveto
          101 14 52 -2 31 vvcurveto
          30 -70 4 -54 -94 -61 -7 -35 -2 vhcurveto
          endchar
        </CharString>
        <CharString name="bracketright">
          -83 410 711 rmoveto
          33 -44 10 -71 -78 -89 -20 -37 -15 20 -5 24 -2 vhcurveto
          -2 27 31 1 31 22 17 -1 13 hhcurveto
          -1 -4 0 -3 -4 vvcurveto
          -116 -118 -474 -10 -41 vhcurveto
          -16 -3 -9 -6 -18 -50 -49 12 -36 hhcurveto
          -14 -10 -4 -14 -40 103 -38 66 71 30 23 55 14 hvcurveto
          32 134 99 431 138 vvcurveto
          2 vlineto
          endchar
        </CharString>
        <CharString name="breve">
          176 696 94 callsubr
        </CharString>
        <CharString name="brokenbar">
          -164 120 233 rmoveto
          -101 -52 -152 -54 vvcurveto
          -22 36 -39 19 25 59 272 38 41 -45 357 callgsubr
          121 565 rmoveto
          -100 -53 -152 -55 vvcurveto
          -22 36 -39 19 26 59 272 39 40 -45 47 -21 -17 -4 -9 -21 vhcurveto
          endchar
        </CharString>
        <CharString name="bullet">
          -296 50 347 rmoveto
          -38 67 -70 43 17 22 22 12 36 -51 116 -32 -31 -35 -45 -33 vhcurveto
          endchar
        </CharString>
        <CharString name="c">
          -88 312 511 53 callgsubr
        </CharString>
        <CharString name="cacute">
          -86 357 675 rmoveto
          -68 callgsubr
          156 callgsubr
          vhcurveto
          -41 -164 53 callgsubr
        </CharString>
        <CharString name="caron">
          165 722 94 callgsubr
        </CharString>
        <CharString name="ccaron">
          -86 459 722 -57 callgsubr
          -143 -211 53 callgsubr
        </CharString>
        <CharString name="ccedilla">
          -86 176 -33 rmoveto
          10 17 8 17 6 14 rrcurveto
          78 4 112 65 37 vvcurveto
          13 -6 6 -13 vhcurveto
          -33 -25 -42 -118 hhcurveto
          -48 -26 27 40 94 125 167 73 hvcurveto
          36 17 -36 26 hhcurveto
          9 8 8 11 31 -42 71 -61 -131 -149 -210 -138 -59 48 -54 57 -23 hvcurveto
          -15 -36 -23 -40 -17 7 callsubr
        </CharString>
        <CharString name="cedilla">
          -12 -56 rmoveto
          19 33 13 32 13 vvcurveto
          17 -13 7 -18 -13 -14 -5 -16 -5 vhcurveto
          -13 -39 -33 -54 -21 7 callsubr
        </CharString>
        <CharString name="cent">
          -51 137 177 rmoveto
          76 79 128 74 43 vhcurveto
          -30 -100 -31 -122 -21 -94 rrcurveto
          -43 4 -28 28 37 vvcurveto
          246 339 rmoveto
          8 26 7 16 15 vvcurveto
          19 -9 21 -18 -13 -18 -37 -56 -20 vhcurveto
          -126 -12 -146 -201 -132 vvcurveto
          -68 73 -65 69 -13 vhcurveto
          -8 -37 -5 -26 -7 vvcurveto
          -13 16 -17 12 10 15 39 61 19 vhcurveto
          77 13 96 53 33 vvcurveto
          13 -7 6 -12 -28 -27 -27 -9 -76 vhcurveto
          27 97 30 121 30 105 rrcurveto
          -13 28 27 -30 22 hhcurveto
          10 6 7 12 29 -31 46 -41 22 hvcurveto
          endchar
        </CharString>
        <CharString name="circumflex">
          108 167 callgsubr
          endchar
        </CharString>
        <CharString name="colon">
          -287 39 99 rmoveto
          -33 55 -73 31 16 12 15 14 35 -35 111 -36 -20 -23 -41 -28 vhcurveto
          76 345 rmoveto
          -34 55 -74 32 16 12 15 15 34 -35 112 -37 -19 -24 -41 -27 vhcurveto
          endchar
        </CharString>
        <CharString name="comma">
          -305 27 -176 86 callsubr
        </CharString>
        <CharString name="copyright">
          175 452 543 rmoveto
          -101 -117 -159 -97 -49 57 -54 52 63 89 57 27 7 -5 10 -9 hvcurveto
          -19 -47 -41 -73 hhcurveto
          -24 -20 17 24 89 107 110 49 hvcurveto
          16 6 -7 12 hhcurveto
          7 6 4 10 20 -27 32 -22 hvcurveto
          170 -130 rmoveto
          -193 -119 -107 -187 -98 -71 63 115 200 174 115 137 91 73 -80 -113 vhcurveto
          -295 -353 rmoveto
          320 callsubr
          319 callsubr
          hvcurveto
          endchar
        </CharString>
        <CharString name="currency">
          67 213 287 rmoveto
          63 45 72 66 52 36 -48 -55 1 vhcurveto
          -58 -44 -74 -67 -49 -40 42 58 vhcurveto
          325 207 rmoveto
          19 -32 28 -19 -18 -34 -27 -44 -38 vhcurveto
          10 -21 -23 5 -26 hhcurveto
          -29 -26 -7 -12 -24 hvcurveto
          -8 15 -6 14 -3 9 rrcurveto
          25 -9 -48 12 -31 hhcurveto
          -14 -1 -8 -13 -15 30 -39 28 -51 hvcurveto
          -30 -36 -18 -47 -46 vvcurveto
          -35 9 -31 16 -25 vhcurveto
          -46 -48 -32 -28 -8 vvcurveto
          -17 26 -28 23 16 32 31 43 39 vhcurveto
          -12 22 26 -6 27 hhcurveto
          24 23 5 9 20 hvcurveto
          -43 33 32 -27 19 hhcurveto
          13 11 9 13 13 -21 32 -28 44 hvcurveto
          39 39 23 56 55 vvcurveto
          31 -8 29 -14 23 vhcurveto
          42 41 34 28 15 vvcurveto
          endchar
        </CharString>
        <CharString name="d">
          -34 349 245 callgsubr
          110 491 rmoveto
          -18 -4 -10 -20 hvcurveto
          -4 -95 -24 -123 -28 -117 180 callgsubr
          47 184 36 184 29 vvcurveto
          40 -43 47 -20 vhcurveto
          endchar
        </CharString>
        <CharString name="dagger">
          -130 417 423 rmoveto
          172 callgsubr
          -33 -214 -52 -251 -40 vvcurveto
          -23 33 -37 19 18 34 185 136 27 vhcurveto
          332 callgsubr
          endchar
        </CharString>
        <CharString name="daggerdbl">
          -130 164 132 rmoveto
          332 callgsubr
          172 callgsubr
          -14 -89 -17 -96 -15 -84 rrcurveto
          -97 -9 -88 -14 -14 vvcurveto
          -17 23 -35 18 30 42 5 6 58 vhcurveto
          -15 -80 -10 -60 -18 vvcurveto
          -23 33 -37 19 14 24 113 114 23 vhcurveto
          146 17 70 14 23 vvcurveto
          19 -39 7 -43 -30 -43 -2 -3 -47 vhcurveto
          endchar
        </CharString>
        <CharString name="danda">
          -208 136 31 rmoveto
          -23 25 -27 16 23 39 147 callgsubr
          -21 -107 rrcurveto
          -27 -128 -36 -140 -22 vvcurveto
          endchar
        </CharString>
        <CharString name="dcaron">
          199 375 292 rmoveto
          -2 -9 rlineto
          -111 -44 -115 -77 -43 hhcurveto
          -23 -21 15 25 99 94 194 91 35 28 -56 -72 hvcurveto
          110 491 rmoveto
          -17 -4 -10 -20 hvcurveto
          -4 -97 -25 -122 -27 -116 rrcurveto
          51 -18 -34 34 -50 hhcurveto
          -147 -114 -257 -116 -55 53 -68 61 54 65 46 56 54 hvcurveto
          -5 -22 -3 -17 -10 vvcurveto
          -26 29 -27 18 21 44 171 121 30 vhcurveto
          47 184 35 184 29 vvcurveto
          40 -42 47 -21 vhcurveto
          170 -15 rmoveto
          -21 -29 -22 -21 -29 35 6 277 callsubr
          endchar
        </CharString>
        <CharString name="dcroat">
          -25 376 245 callgsubr
          162 299 rmoveto
          120 12 36 5 20 vvcurveto
          20 -47 4 -104 vhcurveto
          4 22 2 15 7 vvcurveto
          40 -43 357 callgsubr
          -1 -31 -4 -35 -5 -36 rrcurveto
          -58 -3 -48 -7 -17 vvcurveto
          -18 27 -31 27 11 12 1 2 17 vhcurveto
          -9 -52 -12 -55 -13 -53 180 callgsubr
          27 107 24 108 15 76 rrcurveto
          endchar
        </CharString>
        <CharString name="degree">
          -194 260 725 rmoveto
          -101 -80 -107 -88 -65 42 -50 65 100 80 107 88 66 -41 49 -65 hvcurveto
          -19 -71 rmoveto
          27 17 -26 -33 -46 -33 -66 -48 -27 -18 24 33 46 34 68 48 hvcurveto
          endchar
        </CharString>
        <CharString name="dieresis">
          6 726 -20 callsubr
          endchar
        </CharString>
        <CharString name="divide">
          67 102 280 rmoveto
          199 305 25 54 16 -28 6 -40 -81 -107 -15 -3 -159 hvcurveto
          -1 -60 -48 0 355 callsubr
          99 -143 rmoveto
          -32 55 -56 34 14 18 17 11 29 -41 93 -27 -24 -29 -37 -25 vhcurveto
          88 396 rmoveto
          -31 55 -57 34 14 18 17 10 30 -41 94 -27 -25 -28 -37 -26 vhcurveto
          endchar
        </CharString>
        <CharString name="dollar">
          1 276 401 rmoveto
          -44 31 -34 27 21 vvcurveto
          27 58 33 66 23 vhcurveto
          -13 -46 -15 -54 -18 -62 rrcurveto
          117 -219 rmoveto
          -45 -62 -30 -75 -10 vhcurveto
          14 49 17 60 20 71 rrcurveto
          48 -34 38 -31 -30 vvcurveto
          39 508 rmoveto
          7 23 3 18 13 vvcurveto
          18 -5 17 -17 1 vhcurveto
          -23 -18 -35 -80 -26 hvcurveto
          -76 -20 -90 -38 -44 -44 rrcurveto
          -16 -16 -13 -45 -33 vvcurveto
          -56 69 -51 69 -48 vhcurveto
          -20 -69 -25 -82 -18 -70 rrcurveto
          6 -76 -39 88 -30 hhcurveto
          -13 -8 -13 -24 -43 56 -78 90 -19 hvcurveto
          -5 -21 -2 -17 -12 vvcurveto
          -16 -1 9 -15 13 hhcurveto
          14 13 26 51 18 hvcurveto
          121 6 134 65 -1 102 rrcurveto
          70 -77 61 -73 52 vhcurveto
          19 66 22 73 25 81 rrcurveto
          2 15 15 2 14 25 10 -9 15 hhcurveto
          8 6 4 12 32 -23 53 -42 hvcurveto
          -4 -4 0 -5 hhcurveto
          endchar
        </CharString>
        <CharString name="dotaccent">
          -28 738 149 callsubr
        </CharString>
        <CharString name="dotlessi">
          -273 216 192 callgsubr
          endchar
        </CharString>
        <CharString name="dottedcircle">
          127 139 517 rmoveto
          -26 18 -19 26 26 18 19 26 25 -18 19 -26 -26 -18 -19 -25 vhcurveto
          -82 -110 rmoveto
          -25 20 -19 26 24 20 19 25 25 -20 19 -24 -26 -20 -19 -25 vhcurveto
          -13 -126 rmoveto
          -25 19 -18 25 26 18 18 365 callsubr
          52 -116 rmoveto
          -26 18 -18 26 25 19 18 26 25 -19 19 -25 -26 -18 -19 -25 vhcurveto
          101 -75 rmoveto
          -26 19 -20 26 25 19 20 26 24 -19 20 -25 -26 -19 -20 -24 vhcurveto
          127 -16 rmoveto
          -26 18 -18 26 26 19 18 26 26 -19 18 -26 -26 -18 -18 -26 vhcurveto
          121 53 rmoveto
          -26 19 -18 25 25 20 18 26 25 -20 19 -25 -25 -19 -19 -25 vhcurveto
          73 98 rmoveto
          -25 19 -19 26 24 19 19 25 26 -19 19 -24 -26 -19 -19 -26 vhcurveto
          10 134 rmoveto
          -26 18 -18 26 25 19 18 26 26 -19 18 -25 -26 -18 -18 -26 vhcurveto
          -50 118 rmoveto
          -25 19 -19 25 26 18 19 365 callsubr
          -95 68 rmoveto
          -24 19 -20 26 25 18 20 24 26 -18 19 -25 -26 -19 -19 -26 vhcurveto
          -126 15 rmoveto
          -26 18 -18 26 26 18 18 26 26 -18 18 -26 -26 -18 -18 -26 vhcurveto
          endchar
        </CharString>
        <CharString name="doubledanda">
          59 110 31 rmoveto
          -23 25 -27 16 23 39 147 callgsubr
          -21 -107 rrcurveto
          -27 -128 -36 -140 -22 vvcurveto
          255 hmoveto
          -23 25 -27 16 22 40 147 callgsubr
          -22 -107 rrcurveto
          -26 -128 -36 -140 -22 vvcurveto
          endchar
        </CharString>
        <CharString name="dvA">
          215 583 645 rmoveto
          -90 callsubr
          110 -107 callgsubr
        </CharString>
        <CharString name="dvA.init">
          349 719 645 rmoveto
          -85 callgsubr
          109 -102 callgsubr
        </CharString>
        <CharString name="dvAA">
          498 583 645 rmoveto
          -90 callsubr
          183 -62 callgsubr
        </CharString>
        <CharString name="dvAA.init">
          619 719 645 rmoveto
          -85 callgsubr
          171 -62 callgsubr
        </CharString>
        <CharString name="dvAI">
          47 481 157 callsubr
          -358 136 callgsubr
          123 hlineto
          -7 -127 -93 -238 -117 vvcurveto
          -84 50 -40 109 102 128 38 51 16 -10 10 -19 vhcurveto
          -53 -33 -41 -128 hhcurveto
          -49 -13 13 44 105 97 254 6 116 hvcurveto
          190 hlineto
          18 -24 25 -34 -64 vvcurveto
          -81 -54 -62 -87 -24 -8 -9 -13 -17 17 -22 42 108 83 82 119 51 -14 43 -21 31 vhcurveto
          127 -107 callgsubr
        </CharString>
        <CharString name="dvAU">
          502 1014 -8 callsubr
          -367 hlineto
          -90 callsubr
          186 -62 callgsubr
        </CharString>
        <CharString name="dvAU.init">
          619 1138 -8 callsubr
          -355 hlineto
          -85 callgsubr
          168 -62 callgsubr
        </CharString>
        <CharString name="dvAbbreviationsign">
          -231 161 385 rmoveto
          -55 -44 -55 -53 -48 34 -39 45 55 44 56 53 48 -34 38 -45 hvcurveto
          -7 -55 rmoveto
          15 11 -16 -21 -30 -17 -20 -16 -16 -11 17 20 29 18 21 16 hvcurveto
          endchar
        </CharString>
        <CharString name="dvAcandra">
          215 583 645 rmoveto
          -90 callsubr
          110 -106 callgsubr
          63 239 rmoveto
          23 callgsubr
          177 callgsubr
          vhcurveto
          endchar
        </CharString>
        <CharString name="dvAcandra.init">
          endchar
        </CharString>
        <CharString name="dvAnusvara">
          31 744 rmoveto
          28 -36 68 -22 346 callgsubr
          vhcurveto
          endchar
        </CharString>
        <CharString name="dvAnusvara.amI">
          48 743 rmoveto
          28 -36 68 -22 346 callgsubr
          vhcurveto
          endchar
        </CharString>
        <CharString name="dvAvagraha">
          5 245 47 rmoveto
          125 150 89 103 hvcurveto
          125 -286 30 58 vvcurveto
          26 48 31 96 18 vhcurveto
          94 18 70 -6 23 vvcurveto
          22 -29 33 -41 -93 -153 -34 -56 -46 vhcurveto
          -16 -18 -16 -44 -30 -95 281 -22 -80 vvcurveto
          -49 -104 -67 -92 vhcurveto
          -79 -48 98 -35 hhcurveto
          -14 -5 -12 -18 -53 89 -90 104 hvcurveto
          endchar
        </CharString>
        <CharString name="dvB">
          -171 126 197 -54 callgsubr
          -366 375 -106 callsubr
          433 -102 callgsubr
        </CharString>
        <CharString name="dvBA">
          35 349 209 -55 callsubr
          -36 34 callsubr
          391 144 callgsubr
          -122 -114 -179 -136 251 callgsubr
          hvcurveto
          -34 callsubr
        </CharString>
        <CharString name="dvBH">
          -68 162 138 33 callgsubr
          353 -153 rmoveto
          17 -13 10 -25 -39 -82 -2 -9 -92 vhcurveto
          366 callgsubr
          -69 -66 -95 -83 62 callgsubr
          135 14 135 2 31 vvcurveto
          endchar
        </CharString>
        <CharString name="dvBHA">
          131 162 88 callsubr
          98 327 -42 callsubr
          257 175 9 callgsubr
          218 callgsubr
          vhcurveto
          -4 -24 -5 -25 -7 -23 rrcurveto
          -132 -14 -127 -11 -84 -26 callsubr
        </CharString>
        <CharString name="dvBH_LA">
          678 162 138 33 callgsubr
          320 175 -73 callsubr
          541 hlineto
          -10 -55 -24 -27 -41 -50 -42 -39 rlinecurve
          -27 callsubr
          -91 -77 -53 -80 -39 vhcurveto
          -43 -1 -72 -2 -80 -8 rrcurveto
          366 callgsubr
          -69 -66 -95 -83 62 callgsubr
          72 7 71 4 52 7 rrcurveto
          -5 -22 -3 -23 -24 vvcurveto
          -110 56 -99 102 51 44 31 27 19 -10 12 -18 vhcurveto
          -94 callsubr
        </CharString>
        <CharString name="dvBH_NA">
          145 265 -56 282 callsubr
          -86 224 175 callsubr
          81 302 38 callgsubr
          284 callsubr
          18 vhcurveto
          -4 -24 -6 -25 -7 -23 rrcurveto
          -125 -13 -119 -6 -80 vvcurveto
          -62 70 -81 64 73 56 83 101 35 vhcurveto
          70 6 69 5 47 9 -16 -84 -20 -82 -10 -47 rrcurveto
          10 -19 -22 5 -30 hhcurveto
          -115 -206 -79 313 callgsubr
          -5 32 -14 26 hvcurveto
          12 40 40 7 30 hhcurveto
          32 23 -5 -23 30 hvcurveto
          -6 7 7 -4 5 hhcurveto
          300 callgsubr
          hvcurveto
          21 90 27 -74 callsubr
          103 -107 callgsubr
        </CharString>
        <CharString name="dvBH_R">
          -78 548 213 rmoveto
          -73 -293 -230 -52 323 callgsubr
          hvcurveto
          69 50 110 66 26 vvcurveto
          13 -8 5 -14 vhcurveto
          -386 -64 rmoveto
          -27 -32 48 32 24 73 11 90 9 hvcurveto
          -72 -31 -40 -52 -33 hhcurveto
          98 321 -42 callsubr
          305 -111 rmoveto
          -40 -78 -4 -9 -83 hvcurveto
          14 58 8 59 54 vvcurveto
          81 -26 92 -90 218 callgsubr
          vhcurveto
          253 callgsubr
          126 10 128 9 30 vvcurveto
          18 -11 13 -22 vhcurveto
          endchar
        </CharString>
        <CharString name="dvBH_RA">
          145 179 295 callsubr
          81 302 38 callgsubr
          284 callsubr
          18 vhcurveto
          -4 -24 -6 -25 -7 -23 rrcurveto
          -125 -13 -119 -6 -80 vvcurveto
          -62 70 -81 64 73 56 83 101 35 vhcurveto
          -5 callsubr
        </CharString>
        <CharString name="dvBH_R_YA">
          466 884 -100 callgsubr
          -426 hmoveto
          -95 callgsubr
          -54 -28 -46 -34 -38 hvcurveto
          1 -4 -4 1 -4 hhcurveto
          -40 -78 -4 -9 -83 hvcurveto
          14 58 8 59 54 vvcurveto
          20 -2 22 -4 20 vhcurveto
          -2 8 8 -1 11 hhcurveto
          -245 -427 rmoveto
          -27 -32 48 32 24 73 11 90 9 hvcurveto
          -72 -31 -40 -52 -33 hhcurveto
          98 321 -42 callsubr
          147 175 181 callsubr
          218 callgsubr
          hvcurveto
          253 callgsubr
          58 5 58 4 46 6 rrcurveto
          -36 -28 -29 -21 -13 vvcurveto
          -19 12 -19 15 -13 vhcurveto
          -113 -65 -173 -145 -40 vvcurveto
          323 callgsubr
          vhcurveto
          50 36 70 44 36 32 104 9 112 48 82 78 rrcurveto
          -105 callsubr
        </CharString>
        <CharString name="dvBH_VA">
          475 641 135 -75 callgsubr
          -479 3 33 callgsubr
          309 175 -106 callsubr
          374 hlineto
          -49 callsubr
          -83 -65 -70 -84 -36 hvcurveto
          -43 -75 -3 -8 -84 353 callsubr
          -69 -66 -95 -83 62 callgsubr
          75 8 75 4 51 7 rrcurveto
          -8 -32 -5 -32 -30 vvcurveto
          -99 callgsubr
        </CharString>
        <CharString name="dvBH_YA">
          466 884 -43 callgsubr
          98 332 194 callsubr
          -9 -1 -8 hvcurveto
          -4 -16 -18 -3 -21 hhcurveto
          147 175 181 callsubr
          218 callgsubr
          hvcurveto
          -5 -30 -7 -29 -8 -29 rrcurveto
          -131 -11 -124 -9 -78 15 callsubr
        </CharString>
        <CharString name="dvB_BA">
          404 718 209 -55 callsubr
          -369 hmoveto
          -55 callgsubr
          -44 34 callsubr
          768 144 callgsubr
          -102 -97 -126 -121 -29 hvcurveto
          -19 -11 -29 -24 -35 -25 -44 53 -51 79 -36 65 -85 callsubr
          84 113 60 54 62 hvcurveto
          -67 4 32 -47 74 hhcurveto
          74 99 47 49 57 hvcurveto
          -34 callsubr
        </CharString>
        <CharString name="dvB_BHA">
          527 558 88 callsubr
          98 327 -42 callsubr
          -530 -273 -51 callsubr
          787 448 9 callgsubr
          -37 -36 -27 -38 -26 vhcurveto
          12 -5 -16 8 -31 hhcurveto
          -433 -12 callgsubr
          433 hlineto
          12 10 1 3 7 hvcurveto
          -8 -22 -5 -24 -22 vvcurveto
          60 callgsubr
          19 vhcurveto
          -4 -24 -5 -25 -7 -23 -111 -12 -108 -10 -31 -52 -20 -8 -31 -28 -40 -28 -44 53 -51 79 -36 65 -85 callsubr
          90 123 69 57 59 hvcurveto
          -60 17 54 -59 55 hhcurveto
          77 65 92 115 39 hvcurveto
          65 6 63 5 45 8 rrcurveto
          -22 -116 -27 18 callgsubr
          116 -61 callgsubr
        </CharString>
        <CharString name="dvB_BH_RA">
          534 568 295 callsubr
          -442 29 rmoveto
          42 20 58 29 48 vhcurveto
          36 -58 48 -64 43 -45 rrcurveto
          -24 -42 -46 -18 -45 hhcurveto
          -31 -12 23 38 hvcurveto
          523 273 38 callgsubr
          -35 -34 -24 -34 -25 vhcurveto
          8 -8 -15 5 -24 hhcurveto
          -436 -12 callgsubr
          436 hlineto
          7 6 0 1 5 hvcurveto
          -8 -21 -4 -22 -22 vvcurveto
          60 callgsubr
          18 vhcurveto
          -4 -24 -6 -25 -7 -23 -107 -11 -104 -6 -26 -53 -24 -14 -33 -27 -39 -26 -43 53 -51 78 -36 65 -85 callsubr
          87 128 73 60 66 hvcurveto
          -52 21 54 -49 50 hhcurveto
          73 56 83 101 35 hvcurveto
          -5 callsubr
        </CharString>
        <CharString name="dvB_DA">
          341 758 95 callgsubr
          -632 14 -38 callgsubr
          683 -22 callsubr
          -78 -101 -103 -94 -49 hvcurveto
          -20 -7 -32 -28 -41 -29 -44 53 -51 79 -36 65 -85 callsubr
          79 103 52 51 64 hvcurveto
          0 vlineto
          -82 80 -42 110 -2 vhcurveto
          -88 callsubr
        </CharString>
        <CharString name="dvB_DA_mU">
          345 758 132 callgsubr
          -632 14 -38 callgsubr
          683 -22 callsubr
          -78 -101 -103 -94 -49 hvcurveto
          -20 -7 -32 -28 -41 -29 -44 53 -51 79 -36 65 -85 callsubr
          79 103 52 51 64 hvcurveto
          0 vlineto
          -84 83 -42 114 vhcurveto
          -99 callsubr
        </CharString>
        <CharString name="dvB_DA_mUU">
          347 758 183 -50 callgsubr
          -368 412 -38 callgsubr
          683 50 callsubr
          -79 -101 -103 -94 -49 hvcurveto
          -20 -7 -32 -28 -41 -29 -44 53 -51 79 -36 65 -85 callsubr
          79 103 52 51 64 hvcurveto
          0 vlineto
          264 callsubr
          -97 callsubr
        </CharString>
        <CharString name="dvB_DHA">
          462 126 197 -54 callgsubr
          259 360 33 callsubr
          191 15 -29 callgsubr
          -44 -53 -30 -44 -48 hvcurveto
          16 -4 -15 10 -35 hhcurveto
          -433 -12 callgsubr
          433 hlineto
          5 4 0 1 4 hvcurveto
          -47 -57 -34 -68 -60 vvcurveto
          -49 28 -33 57 vhcurveto
          -1 callsubr
        </CharString>
        <CharString name="dvB_DH_VA">
          776 126 197 -54 callgsubr
          492 -135 -75 callgsubr
          -233 495 33 callsubr
          161 15 -106 callsubr
          374 hlineto
          -49 callsubr
          -88 -68 -80 -91 -35 hvcurveto
          -51 -58 -105 -94 -129 6 callgsubr
          -44 -53 -30 -44 -48 hvcurveto
          16 -4 -15 10 -35 hhcurveto
          -433 -12 callgsubr
          433 hlineto
          5 4 0 1 4 hvcurveto
          -47 -57 -34 -68 -60 vvcurveto
          -49 28 -33 57 vhcurveto
          4 5 0 4 hhcurveto
          -40 -41 -32 -47 -39 vvcurveto
          -43 30 -25 50 97 108 47 55 73 vhcurveto
          -1 -7 0 -8 -7 vvcurveto
          -99 callgsubr
        </CharString>
        <CharString name="dvB_JA">
          573 186 callsubr
          921 hlineto
          -83 callsubr
          -74 -73 -101 -107 -14 vhcurveto
          -19 -5 -33 -30 -43 -30 -44 53 -51 79 -36 65 -85 callsubr
          94 130 75 59 55 hvcurveto
          -57 10 36 -41 66 hhcurveto
          135 126 76 86 6 -1 6 -2 6 hvcurveto
          10 hlineto
          45 48 13 21 39 hvcurveto
          -1 vlineto
          -23 -121 -32 -119 -22 vvcurveto
          -21 32 -44 callsubr
          115 -106 callgsubr
          endchar
        </CharString>
        <CharString name="dvB_JHA">
          631 1067 109 callsubr
          -474 107 rmoveto
          42 20 58 29 48 vhcurveto
          37 -59 50 -66 44 -46 rrcurveto
          -21 -41 -46 -17 -50 hhcurveto
          -31 -12 23 38 hvcurveto
          -44 448 -73 callsubr
          673 106 callgsubr
          hvcurveto
          -129 242 -44 -92 vvcurveto
          -29 -31 -21 -47 -10 vhcurveto
          87 -38 -51 80 -87 hhcurveto
          -26 -24 -7 -12 -19 hvcurveto
          -17 -8 -24 -18 -31 -19 -44 52 -53 82 -37 67 -85 callsubr
          67 88 38 40 62 hvcurveto
          -78 13 93 -45 106 hhcurveto
          13 12 0 1 12 hvcurveto
          -93 38 40 -101 35 hhcurveto
          14 7 7 15 23 -39 82 -31 76 hvcurveto
          76 16 52 38 63 vvcurveto
          29 -10 25 -15 21 vhcurveto
          64 9 79 26 68 29 rrcurveto
          -25 -113 -24 -100 -31 73 callsubr
          112 -107 callgsubr
        </CharString>
        <CharString name="dvB_J_YA">
          933 1351 -100 callgsubr
          -1238 -379 -38 callgsubr
          856 12 callgsubr
          -64 -67 -80 -93 -25 vhcurveto
          -19 -5 -34 -29 -43 -31 -44 53 -51 79 -36 65 -85 callsubr
          89 122 68 56 59 hvcurveto
          -68 1 37 -56 76 hhcurveto
          133 callgsubr
          8 -2 9 -4 9 hvcurveto
          8 hlineto
          42 55 11 16 49 hvcurveto
          -31 -24 -23 -17 -12 98 callgsubr
          113 130 50 87 92 vhcurveto
          -105 callsubr
        </CharString>
        <CharString name="dvB_JxA">
          573 578 -39 callgsubr
          -452 153 -38 callgsubr
          921 hlineto
          -83 callsubr
          -74 -73 -101 -107 -14 vhcurveto
          -19 -5 -33 -30 -43 -30 -44 53 -51 79 -36 65 -85 callsubr
          94 130 75 59 55 hvcurveto
          -57 10 36 -41 66 hhcurveto
          135 126 76 86 6 -1 6 -2 6 hvcurveto
          10 hlineto
          45 48 13 21 39 hvcurveto
          -1 vlineto
          -23 -121 -32 -119 -22 vvcurveto
          -21 32 -44 callsubr
          115 -106 callgsubr
          endchar
        </CharString>
        <CharString name="dvB_LA">
          579 186 callsubr
          940 hlineto
          -10 -55 -24 -27 -41 -50 -42 -39 rlinecurve
          -27 callsubr
          -118 -93 -88 -123 -19 vhcurveto
          -20 -10 -31 -26 -37 -26 -44 53 -51 79 -36 65 -85 callsubr
          89 120 67 56 60 hvcurveto
          -98 9 55 -83 93 hhcurveto
          90 callgsubr
          hvcurveto
          -94 callsubr
        </CharString>
        <CharString name="dvB_L_YA">
          919 1337 -100 callgsubr
          -1224 -379 -38 callgsubr
          842 -89 callgsubr
          -59 -32 -48 -38 -39 hvcurveto
          -45 -10 -121 -35 -77 -34 rrcurveto
          5 19 3 21 21 vvcurveto
          71 -42 75 -77 -119 -94 -85 -126 -19 vhcurveto
          -20 -9 -31 -26 -38 -27 -44 53 -51 79 -36 65 -85 callsubr
          89 122 68 56 59 hvcurveto
          -99 9 56 -83 89 hhcurveto
          52 43 31 27 19 -9 14 -20 hvcurveto
          -29 -3 -23 -41 hhcurveto
          -45 -32 55 78 101 77 87 84 43 14 -45 -36 hvcurveto
          -43 -12 -19 -26 vvcurveto
          -15 6 -12 18 vhcurveto
          1 hlineto
          1 hlineto
          25 47 21 31 88 hvcurveto
          26 9 rlineto
          -16 -13 -11 -11 -8 98 callgsubr
          113 130 50 87 92 vhcurveto
          -105 callsubr
        </CharString>
        <CharString name="dvB_NA">
          35 366 261 56 callsubr
          1 -312 rmoveto
          -29 -12 -26 -33 356 callsubr
          51 21 vhcurveto
          11 -19 4 -23 -19 vvcurveto
          -110 701 -106 callsubr
          431 233 callsubr
          -12 -49 -12 -44 -7 -30 rrcurveto
          9 -19 -23 6 -30 hhcurveto
          -115 -205 -79 -89 -57 67 -50 67 71 30 52 57 28 -6 32 -13 26 hvcurveto
          12 39 40 7 30 hhcurveto
          32 22 -5 -22 31 hvcurveto
          -6 7 8 -5 5 138 callgsubr
        </CharString>
        <CharString name="dvB_R">
          -171 175 169 rmoveto
          -30 -13 18 32 35 17 49 26 42 hvcurveto
          33 -53 40 -53 40 -43 rrcurveto
          -16 -33 -37 -11 -43 hhcurveto
          273 133 rmoveto
          -25 -37 -42 -37 -54 hvcurveto
          -40 51 -42 65 -34 62 rrcurveto
          23 22 24 15 22 hhcurveto
          20 15 -21 -23 14 hvcurveto
          -23 13 12 -20 17 hhcurveto
          15 7 15 20 46 -51 78 -52 -124 -113 -174 -121 -61 23 -39 54 -8 hvcurveto
          15 -4 20 -1 21 2 rrcurveto
          -81 -71 -72 -78 -25 vvcurveto
          -12 7 -7 14 30 84 96 78 95 vhcurveto
          80 66 122 91 37 vvcurveto
          15 -5 7 -16 vhcurveto
          -358 343 -106 callsubr
          408 -107 callgsubr
        </CharString>
        <CharString name="dvB_RA">
          35 366 261 56 callsubr
          -70 389 -106 callsubr
          392 233 callsubr
          76 callsubr
        </CharString>
        <CharString name="dvB_SA">
          644 126 197 -54 callgsubr
          641 306 -19 callgsubr
          -328 69 rmoveto
          -4 -4 0 -4 -3 -4 0 -4 hhcurveto
          -433 -12 callgsubr
          433 hlineto
          4 4 0 3 4 4 0 4 hhcurveto
          78 hlineto
          -44 callgsubr
          hvcurveto
          -51 -13 255 callgsubr
          -6 -7 -10 -4 hvcurveto
          -4 -5 -2 -6 -6 vvcurveto
          -38 202 -263 41 15 139 callsubr
          vhcurveto
          -71 callgsubr
        </CharString>
        <CharString name="dvB_SHA">
          588 515 576 366 callsubr
          -433 -12 callgsubr
          44 -379 -54 callgsubr
          295 184 -49 callgsubr
        </CharString>
        <CharString name="dvB_TA">
          440 186 callsubr
          803 hlineto
          24 callgsubr
          -122 -87 -40 -89 -8 hvcurveto
          -20 -10 -30 -25 -36 -26 -44 53 -51 79 -36 65 -85 callsubr
          93 126 72 58 57 hvcurveto
          -102 26 94 -89 56 hhcurveto
          23 11 12 15 hvcurveto
          -87 callgsubr
        </CharString>
        <CharString name="dvB_VA">
          361 528 135 -75 callgsubr
          -402 62 -38 callgsubr
          748 hlineto
          -49 callsubr
          -110 -78 -123 -115 -22 hvcurveto
          -20 -12 -26 -22 -32 -22 -44 53 -51 79 -36 65 -85 callsubr
          83 109 58 53 63 hvcurveto
          -66 4 27 -51 65 hhcurveto
          -4 callgsubr
        </CharString>
        <CharString name="dvB_YA">
          428 846 -100 callgsubr
          -733 -379 rmoveto
          42 20 58 29 48 vhcurveto
          37 -59 49 -65 43 -45 rrcurveto
          -23 -40 -47 -17 -48 hhcurveto
          -31 -12 23 38 hvcurveto
          -44 34 callsubr
          351 -89 callgsubr
          -106 -104 -72 -57 -45 hvcurveto
          -20 -14 -32 -28 -40 -27 -44 53 -52 80 -36 65 -85 callsubr
          85 114 59 56 66 hvcurveto
          -12 13 16 -8 15 hhcurveto
          113 130 50 87 92 hvcurveto
          -105 callsubr
        </CharString>
        <CharString name="dvC">
          -43 428 326 rmoveto
          50 callgsubr
          -61 40 -42 82 158 133 94 44 15 -10 333 callgsubr
          49 72 66 87 28 hvcurveto
          -317 319 -106 callsubr
          503 -107 callgsubr
        </CharString>
        <CharString name="dvCA">
          175 111 -50 callsubr
          505 -10 callsubr
          -58 -40 -38 -54 -54 vvcurveto
          -63 41 -43 82 90 84 41 71 64 vhcurveto
          48 callsubr
        </CharString>
        <CharString name="dvCH">
          148 760 576 263 callsubr
          -673 -12 callgsubr
          194 hlineto
          -94 -41 -92 -102 -72 vvcurveto
          -47 45 -26 54 -4 vhcurveto
          -62 -53 -58 -79 -60 339 callgsubr
          186 316 140 188 21 callsubr
          90 -283 rmoveto
          55 27 51 45 28 9 -23 -29 -45 -29 -41 -45 -36 vhcurveto
          -17 8 -18 17 43 vvcurveto
          endchar
        </CharString>
        <CharString name="dvCHA">
          148 575 -51 callgsubr
          -445 408 -106 callsubr
          175 269 callsubr
          151 callgsubr
        </CharString>
        <CharString name="dvCH_RA">
          142 575 -51 callgsubr
          -445 408 -106 callsubr
          175 269 callsubr
          -61 -54 -56 -78 -59 339 callgsubr
          vhcurveto
          6 hlineto
          -45 -56 -49 -75 -18 65 callgsubr
          111 hvcurveto
          175 47 200 125 159 vvcurveto
          42 callgsubr
        </CharString>
        <CharString name="dvCH_R_YA">
          748 1166 -100 callgsubr
          -613 122 callsubr
          vhcurveto
          6 hlineto
          -45 -56 -49 -75 -18 65 callgsubr
          110 hvcurveto
          174 44 195 118 148 vvcurveto
          21 callsubr
          349 191 callgsubr
          -146 -198 -82 -35 98 callgsubr
          113 130 50 87 92 vhcurveto
          -105 callsubr
        </CharString>
        <CharString name="dvCH_YA">
          771 1189 -100 callgsubr
          -636 122 callsubr
          186 316 140 188 21 callsubr
          372 191 callgsubr
          -146 -198 -82 -35 98 callgsubr
          113 130 50 87 92 vhcurveto
          -105 callsubr
        </CharString>
        <CharString name="dvC_CA">
          535 111 -50 callsubr
          865 -10 callsubr
          -58 -40 -38 -54 -54 -4 0 -3 -4 vvcurveto
          -24 -43 -67 -54 -118 hhcurveto
          -36 -18 9 27 49 72 66 87 28 hvcurveto
          0 vlineto
          50 callgsubr
          -61 40 -42 82 112 99 47 43 48 vhcurveto
          -23 21 32 -13 46 hhcurveto
          90 84 41 71 64 hvcurveto
          48 callsubr
        </CharString>
        <CharString name="dvC_CHA">
          579 1005 -51 callgsubr
          -852 408 -106 callsubr
          582 269 callsubr
          -12 -12 rlineto
          -37 -55 -98 -87 -133 hhcurveto
          -36 -18 10 25 49 72 67 87 28 hvcurveto
          0 vlineto
          50 callgsubr
          -61 40 -42 82 66 69 22 29 59 vhcurveto
          -4 -12 -2 -12 -11 80 callgsubr
        </CharString>
        <CharString name="dvC_CH_VA">
          564 998 388 rmoveto
          18 8 -15 -28 -60 -55 -57 -74 -44 hvcurveto
          112 27 32 92 44 hhcurveto
          -255 -621 rmoveto
          -16 -52 -45 -10 -41 hhcurveto
          -52 -58 3 31 36 81 62 51 47 42 -44 -57 28 hvcurveto
          -633 873 -106 callsubr
          593 hlineto
          -93 -40 -92 -99 -73 vvcurveto
          -48 49 -24 51 -4 vhcurveto
          -15 -13 -15 -14 -14 -14 rrcurveto
          -5 -39 -84 -95 -148 hhcurveto
          -36 -19 10 25 49 72 67 87 28 hvcurveto
          0 vlineto
          9 3 5 6 8 vvcurveto
          27 -29 17 -56 vhcurveto
          -142 hlineto
          135 callsubr
          37 -46 26 51 49 1 1 49 hvcurveto
          -55 -39 -37 -53 -49 vvcurveto
          -61 40 -42 82 76 73 25 30 56 vhcurveto
          -3 -12 -2 -12 -12 vvcurveto
          -40 30 -32 62 64 75 14 26 71 vhcurveto
          -4 -23 -12 -67 -12 -64 -11 -55 rlinecurve
          49 -32 -44 36 -51 hhcurveto
          -94 -116 -93 -75 -65 74 -30 94 48 48 8 13 44 hvcurveto
          -2 -14 -1 -10 -7 vvcurveto
          -16 6 -10 13 22 19 19 31 8 vhcurveto
          19 86 20 125 26 124 14 69 rcurveline
          121 59 97 90 102 vvcurveto
          61 -27 51 -59 -120 -43 -153 -161 -30 vhcurveto
          -32 -77 -84 -19 -64 hhcurveto
          -8 -5 3 6 52 72 71 57 44 hvcurveto
          21 17 42 29 18 vvcurveto
          4 -1 4 -2 3 vhcurveto
          8 -3 -8 3 -16 -26 -31 -11 -38 hhcurveto
          -34 -19 7 18 48 122 115 353 callgsubr
          15 -7 17 -13 12 hvcurveto
          366 -61 callgsubr
        </CharString>
        <CharString name="dvC_MA">
          617 815 -87 callsubr
          -558 285 callgsubr
          639 118 callsubr
          -66 -11 -59 -15 -37 -23 rrcurveto
          -20 -45 -77 -73 -130 hhcurveto
          -38 -19 10 26 47 68 63 83 30 hvcurveto
          14 3 8 6 10 vvcurveto
          27 -29 18 -56 vhcurveto
          -17 -102 -1 -23 -49 -35 5 -34 hhcurveto
          -14 -8 -4 -9 -14 37 -46 26 hvcurveto
          51 48 1 49 hhcurveto
          -54 -39 -37 -52 -49 vvcurveto
          -61 40 -42 82 83 81 30 34 57 vhcurveto
          -60 17 58 -68 58 hhcurveto
          119 callgsubr
          hvcurveto
          70 10 76 11 64 16 -7 -37 -92 callsubr
          118 -106 callgsubr
          endchar
        </CharString>
        <CharString name="dvC_NA">
          171 296 -38 rmoveto
          -30 -12 -25 -33 -26 66 callgsubr
          -185 344 callsubr
          501 99 callsubr
          -15 -72 -17 -67 -8 -42 128 callsubr
          117 -101 callsubr
          endchar
        </CharString>
        <CharString name="dvC_R">
          -60 428 354 rmoveto
          50 callgsubr
          -56 33 -36 67 -7 vhcurveto
          25 -2 20 1 26 5 rrcurveto
          -88 -65 -86 -86 -28 vvcurveto
          -13 7 -8 15 28 73 78 70 90 vhcurveto
          83 64 119 81 38 vvcurveto
          14 -9 333 callgsubr
          51 73 64 86 28 hvcurveto
          -317 117 callsubr
          502 -102 callgsubr
        </CharString>
        <CharString name="dvC_RA">
          171 107 -50 callsubr
          505 99 callsubr
          -14 -65 -14 -61 -10 -43 rrcurveto
          21 -25 -32 16 -31 hhcurveto
          -55 -53 -42 -37 -44 hvcurveto
          -61 -55 -69 -74 -24 301 callsubr
          26 62 71 51 54 vhcurveto
          35 38 45 29 37 hhcurveto
          30 31 -30 -22 21 hvcurveto
          -4 9 13 -11 14 361 callsubr
          90 callsubr
        </CharString>
        <CharString name="dvC_YA">
          591 1009 -100 callgsubr
          -912 -70 callsubr
          486 -89 callgsubr
          -111 -115 -75 -55 -44 hvcurveto
          -32 -49 -99 -80 -123 hhcurveto
          -36 -18 13 22 44 72 66 87 28 hvcurveto
          0 vlineto
          81 callgsubr
          48 hvcurveto
          -54 -39 -37 -51 -45 vvcurveto
          -56 40 -47 82 106 107 51 48 64 vhcurveto
          -11 13 15 -7 14 hhcurveto
          113 130 50 87 92 hvcurveto
          -105 callsubr
        </CharString>
        <CharString name="dvCandrabindu">
          56 862 rmoveto
          28 -35 68 -23 -16 -17 -22 -20 -24 50 -53 23 11 7 8 15 vhcurveto
          -235 61 173 callsubr
        </CharString>
        <CharString name="dvD">
          -21 22 -261 -38 callsubr
          376 444 10 callsubr
          -308 462 -73 callsubr
          315 -22 callsubr
          -108 242 callgsubr
          -82 80 -42 110 -2 hvcurveto
          -88 callsubr
        </CharString>
        <CharString name="dvDA">
          -21 391 95 callgsubr
          -308 462 -73 callsubr
          315 -22 callsubr
          -108 242 callgsubr
          -82 80 -42 110 -2 hvcurveto
          -88 callsubr
        </CharString>
        <CharString name="dvDA_mU">
          -21 391 132 callgsubr
          -377 195 callsubr
          384 -22 callsubr
          -108 326 callsubr
          83 -42 114 hvcurveto
          -99 callsubr
        </CharString>
        <CharString name="dvDA_mUU">
          -20 391 183 -50 callgsubr
          -112 860 -106 callsubr
          383 50 callsubr
          -109 326 callsubr
          84 -42 113 hvcurveto
          -97 callsubr
        </CharString>
        <CharString name="dvDA_mvR">
          -26 382 188 rmoveto
          10 2 6 -3 -3 -10 -3 -22 -30 -15 -44 -8 18 30 21 22 25 4 rrcurveto
          -320 457 -106 callsubr
          343 68 callgsubr
          -1 vlineto
          9 -20 -21 6 -17 hhcurveto
          -109 -152 -190 -96 -75 73 -42 104 -5 hvcurveto
          -8 -28 -5 -29 -1 -25 rrcurveto
          -87 -7 -134 -92 -88 vvcurveto
          -63 58 -39 106 69 75 17 30 13 -14 15 -24 vhcurveto
          -35 -10 -13 -66 hhcurveto
          -57 -37 15 27 59 123 69 63 hvcurveto
          294 callgsubr
          -8 77 63 22 hvcurveto
          1 vlineto
          88 10 81 40 65 vvcurveto
          35 -29 33 -41 -55 -47 -52 -64 -31 vhcurveto
          -5 hlineto
          -77 -46 19 37 70 118 137 69 hvcurveto
          52 17 -34 25 hhcurveto
          5 5 2 3 5 hvcurveto
          12 7 3 15 19 vvcurveto
          96 23 48 13 31 vhcurveto
          148 -107 callgsubr
        </CharString>
        <CharString name="dvDD">
          -31 43 8 -38 callsubr
          41 637 -73 callsubr
          308 134 callgsubr
          -78 -144 -68 -56 -21 21 339 callsubr
          -73 callgsubr
        </CharString>
        <CharString name="dvDDA">
          -31 84 34 callgsubr
          308 134 callgsubr
          -78 -144 -68 -56 -21 21 339 callsubr
          -73 callgsubr
        </CharString>
        <CharString name="dvDDH">
          60 50 -5 -38 callsubr
          395 223 -40 callsubr
          11 8 7 9 4 hvcurveto
          3 8 2 10 14 vvcurveto
          96 12 39 4 35 vhcurveto
          159 -106 callgsubr
          endchar
        </CharString>
        <CharString name="dvDDHA">
          60 412 218 -40 callsubr
          11 8 7 9 4 hvcurveto
          3 8 2 10 14 vvcurveto
          96 12 39 4 35 vhcurveto
          159 -106 callgsubr
          endchar
        </CharString>
        <CharString name="dvDDH_DDHA">
          29 324 206 rmoveto
          44 21 21 52 33 18 -12 -16 -28 -55 -19 -68 -8 vhcurveto
          -1 6 0 6 6 vvcurveto
          -86 -416 rmoveto
          25 28 15 26 37 23 -20 -21 -26 -32 -20 -52 -9 vhcurveto
          -21 17 -9 19 20 vvcurveto
          -167 855 -106 callsubr
          350 hlineto
          -10 -29 -4 -36 -28 vvcurveto
          10 -19 -20 7 -16 hhcurveto
          -100 -198 -156 -103 -46 31 -37 45 -18 hvcurveto
          -16 37 43 -8 55 hhcurveto
          13 hlineto
          7 -29 9 -31 12 -27 rrcurveto
          3 -15 -16 1 -18 hhcurveto
          -119 -159 -109 -107 -109 101 -45 115 118 104 50 72 56 -52 46 -76 -73 -43 -35 -49 -27 12 -25 20 -23 hvcurveto
          -8 hlineto
          -88 -55 29 54 73 115 85 96 hvcurveto
          57 17 -13 28 hhcurveto
          11 10 8 15 hvcurveto
          1 vlineto
          2 vlineto
          22 -31 54 -19 63 vhcurveto
          103 16 71 48 56 vvcurveto
          50 -43 40 -73 -89 -42 -49 -78 -6 0 -6 1 -7 vhcurveto
          -2 hlineto
          -87 -43 21 33 66 153 120 65 44 15 -32 -5 25 hvcurveto
          -1 1 2 0 1 361 callsubr
          3 hlineto
          21 3 5 15 26 vvcurveto
          77 9 38 3 30 vhcurveto
          178 -107 callgsubr
        </CharString>
        <CharString name="dvDDH_R">
          60 -16 -170 -38 callsubr
          461 388 rmoveto
          25 21 -25 -15 -41 -79 -20 -85 -3 hvcurveto
          53 35 45 51 38 hhcurveto
          -337 427 -106 callsubr
          368 hlineto
          -12 -29 -7 -41 -1 -39 rrcurveto
          11 -17 -18 7 -16 hhcurveto
          -105 -235 -193 -114 -39 41 -52 49 -19 hvcurveto
          17 -7 19 -6 21 -3 rrcurveto
          -48 -57 -59 -88 -20 -31 callsubr
          26 -64 77 -6 105 hvcurveto
          126 5 117 123 callgsubr
        </CharString>
        <CharString name="dvDDH_RA">
          60 445 294 callsubr
          -337 427 -106 callsubr
          368 hlineto
          -12 -29 -7 -41 -1 -39 rrcurveto
          11 -17 -18 7 -16 hhcurveto
          -105 -235 -193 -114 -39 41 -52 49 -19 hvcurveto
          17 -7 19 -5 20 -4 rrcurveto
          -48 -57 -59 -88 -20 -31 callsubr
          26 -64 77 -6 105 hvcurveto
          126 5 118 123 callgsubr
        </CharString>
        <CharString name="dvDDH_YA">
          688 665 576 rmoveto
          6 hlineto
          13 hlineto
          435 hlineto
          175 callgsubr
          -49 49 -45 -76 -139 -47 -36 -109 vhcurveto
          1 89 11 37 4 34 rrcurveto
          -94 -358 -40 callsubr
          3 3 1 1 2 hvcurveto
          1 -2 rlineto
          14 111 120 64 106 hhcurveto
          15 9 -5 -13 hvcurveto
          -74 -172 -78 -31 vvcurveto
          -35 47 -40 31 107 128 43 86 92 vhcurveto
          -22 -112 -25 -109 -19 -78 callgsubr
          76 150 callgsubr
        </CharString>
        <CharString name="dvDDHxA">
          60 194 21 -80 callgsubr
          251 197 -40 callsubr
          11 8 7 9 4 hvcurveto
          3 8 2 10 14 vvcurveto
          96 12 39 4 35 vhcurveto
          159 -106 callgsubr
          endchar
        </CharString>
        <CharString name="dvDD_DDA">
          -56 58 34 callgsubr
          333 hlineto
          -5 -22 -3 -24 -22 vvcurveto
          -7 0 -7 1 -7 vhcurveto
          7 -15 -17 4 -14 hhcurveto
          -75 -140 -59 -48 -20 19 -32 24 -12 hvcurveto
          67 -37 127 -2 -53 vvcurveto
          -28 -38 -26 -67 -75 -35 33 40 -18 vhcurveto
          21 -9 -12 13 -20 hhcurveto
          -18 -9 -14 -19 -75 87 -66 111 12 11 1 1 11 hvcurveto
          -4 -21 -2 -22 -18 vvcurveto
          -7 0 -7 1 -7 vhcurveto
          7 -16 -17 5 -14 hhcurveto
          -76 -132 -56 -49 -20 18 -32 24 -12 hvcurveto
          67 -37 128 -2 -53 vvcurveto
          -28 -38 -26 -67 -79 -43 33 43 -21 vhcurveto
          20 -10 -11 14 -20 hhcurveto
          -18 -9 -13 -20 -71 96 -73 113 105 72 52 65 hvcurveto
          127 -227 -7 32 vvcurveto
          28 94 19 40 vhcurveto
          31 22 -16 19 hhcurveto
          20 11 16 29 69 8 33 5 24 hvcurveto
          44 22 26 34 40 127 -228 -7 32 vvcurveto
          27 102 22 39 vhcurveto
          32 21 -15 19 hhcurveto
          22 11 13 32 60 6 31 5 23 hvcurveto
          169 -107 callgsubr
        </CharString>
        <CharString name="dvDD_DDHA">
          -77 232 -182 rmoveto
          39 20 -21 -16 -28 -42 -17 -57 -7 hvcurveto
          -13 17 -8 16 16 vvcurveto
          26 27 14 34 vhcurveto
          -187 827 -73 callsubr
          343 hlineto
          -6 -21 -3 -25 140 callgsubr
          13 12 1 1 12 hvcurveto
          -9 -30 -4 -35 -24 vvcurveto
          -4 vlineto
          7 -18 -20 5 -19 hhcurveto
          -103 -196 -146 -99 -40 24 -34 32 -19 hvcurveto
          -24 41 49 -10 62 hhcurveto
          123 103 50 65 56 -63 40 -64 -70 -50 -35 -52 -20 6 -21 13 -20 hvcurveto
          -75 1 -56 24 38 vvcurveto
          67 161 111 65 vhcurveto
          46 15 -26 32 hhcurveto
          6 5 4 5 4 hvcurveto
          6 7 2 11 15 vvcurveto
          76 14 45 6 32 vhcurveto
          43 21 25 35 39 259 callgsubr
          62 7 30 5 22 hvcurveto
          175 -107 callgsubr
        </CharString>
        <CharString name="dvDD_R">
          -31 -6 -169 -38 callsubr
          90 814 14 callsubr
        </CharString>
        <CharString name="dvDD_RA">
          -31 84 645 14 callsubr
        </CharString>
        <CharString name="dvDD_VA">
          -8 274 -111 rmoveto
          -15 -28 -35 -11 -42 hhcurveto
          -46 -44 9 28 33 54 28 46 42 32 -30 -34 23 hvcurveto
          -210 748 -106 callsubr
          352 hlineto
          -6 -22 -3 -24 140 callgsubr
          15 13 1 2 13 hvcurveto
          -13 -40 -12 -51 -10 -50 rrcurveto
          30 -30 -38 18 -42 hhcurveto
          -89 -84 -64 -67 -57 67 -37 85 39 35 8 14 32 hvcurveto
          -1 -12 -1 -8 -5 vvcurveto
          -31 3 -26 16 25 17 79 74 13 vhcurveto
          11 72 29 113 10 58 rrcurveto
          44 21 26 35 40 259 callgsubr
          60 6 31 5 23 hvcurveto
          132 -102 callgsubr
        </CharString>
        <CharString name="dvDD_YA">
          580 1011 576 rmoveto
          175 callgsubr
          -50 49 -44 vhcurveto
          -73 -47 -33 -99 hhcurveto
          -11 -14 0 1 -14 hvcurveto
          1 56 6 30 5 23 rrcurveto
          -376 134 callsubr
          308 134 callgsubr
          -78 -144 -68 -56 -21 21 339 callsubr
          -25 callsubr
          -20 -9 -16 -21 114 callgsubr
          hvcurveto
          137 -248 -13 32 vvcurveto
          29 105 33 40 vhcurveto
          31 22 -16 17 hhcurveto
          -6 23 27 -1 25 79 70 34 62 hhcurveto
          15 9 -5 -13 hvcurveto
          -74 -173 -79 -30 348 callsubr
          128 43 86 92 vhcurveto
          -22 -112 -25 -109 -19 vvcurveto
          -24 25 -18 13 28 34 -93 callgsubr
          115 -102 callgsubr
        </CharString>
        <CharString name="dvDDxA">
          -31 174 21 -80 callgsubr
          -90 624 -73 callsubr
          308 134 callgsubr
          -78 -144 -68 -56 -21 21 339 callsubr
          -73 callgsubr
        </CharString>
        <CharString name="dvDH">
          -157 334 630 33 callsubr
          183 -281 rmoveto
          -34 -118 -167 -174 6 callgsubr
          182 callsubr
          hvcurveto
          4 5 0 4 hhcurveto
          -40 -41 -32 -47 -39 vvcurveto
          -43 30 -25 50 163 194 135 74 15 -7 10 -13 vhcurveto
          endchar
        </CharString>
        <CharString name="dvDHA">
          98 334 630 33 callsubr
          191 15 -29 callgsubr
          182 callsubr
          hvcurveto
          -1 callsubr
        </CharString>
        <CharString name="dvDH_MA">
          523 721 -87 callsubr
          -240 467 33 callsubr
          173 15 260 callsubr
          -65 -11 -57 -14 -38 -22 rrcurveto
          -23 -45 -99 -121 -150 6 callgsubr
          182 callsubr
          hvcurveto
          4 5 0 4 hhcurveto
          -40 -41 -32 -47 -39 vvcurveto
          -43 30 -25 50 89 108 47 51 70 vhcurveto
          -57 20 55 -60 54 hhcurveto
          119 callgsubr
          hvcurveto
          70 10 76 11 64 16 -7 -37 -92 callsubr
          118 -106 callgsubr
          endchar
        </CharString>
        <CharString name="dvDH_NA">
          100 227 -38 rmoveto
          -30 -12 -25 -32 -27 66 callgsubr
          107 668 rmoveto
          13 6 -6 -13 -55 -91 -62 -66 -5 -6 1 3 -6 hvcurveto
          65 44 72 67 39 hhcurveto
          192 15 9 callsubr
          -106 -155 -166 -115 -49 29 -39 56 hvcurveto
          209 callsubr
          -14 -68 -15 -64 -8 -40 rrcurveto
          45 callgsubr
          118 -61 callgsubr
        </CharString>
        <CharString name="dvDH_N_YA">
          466 897 576 rmoveto
          -5 -24 -4 -25 -5 -24 -39 -147 -173 -120 -142 257 callgsubr
          -227 hmoveto
          -47 callgsubr
          26 -29 21 vhcurveto
          18 17 35 41 hhcurveto
          31 16 -22 -38 -98 -91 -70 -58 -45 hvcurveto
          -39 -56 -99 -70 -131 hhcurveto
          -16 -5 8 8 42 75 87 314 callsubr
          12 20 13 11 vvcurveto
          14 -15 20 -17 -5 -6 -2 -3 -7 vhcurveto
          -11 -27 -54 -27 -56 hhcurveto
          -18 -5 10 16 11 3 12 5 13 hvcurveto
          -4 11 13 -2 12 hhcurveto
          98 97 65 76 27 hvcurveto
          3 4 0 4 hhcurveto
          -85 54 rmoveto
          13 6 -6 -13 -55 -91 -62 -66 -5 -5 1 2 -6 hvcurveto
          67 45 73 66 36 hhcurveto
          -50 -690 rmoveto
          -29 -40 -15 -33 -26 -24 5 28 19 20 27 32 30 vhcurveto
          49 -19 22 -21 -25 vvcurveto
          135 705 rmoveto
          -7 hlineto
          30 -9 -25 18 -37 hhcurveto
          -99 -162 -161 -124 -49 29 -38 56 hvcurveto
          12 hlineto
          -39 -44 -31 -58 -39 vvcurveto
          -43 36 -31 50 12 13 1 2 13 vhcurveto
          -77 -60 -61 -63 -51 vvcurveto
          -62 53 -35 67 72 61 38 60 47 -34 40 -56 20 vhcurveto
          56 45 71 50 62 41 16 8 rcurveline
          -14 13 19 -10 16 hhcurveto
          325 callsubr
          hvcurveto
          -23 -116 -26 -116 -20 333 callsubr
          99 callgsubr
        </CharString>
        <CharString name="dvDH_R">
          -144 316 callgsubr
          3 -6 hvcurveto
          68 46 70 64 39 hhcurveto
          171 -322 rmoveto
          -14 -18 -13 -13 -14 hvcurveto
          -51 -61 -92 -52 -115 hhcurveto
          -10 -4 3 7 41 75 76 55 34 hvcurveto
          19 271 callgsubr
          -6 vhcurveto
          -8 -25 -59 -30 -60 hhcurveto
          -17 -6 4 16 16 249 callsubr
          115 114 90 93 47 -27 28 -47 -107 -160 -172 -130 -49 28 -33 57 5 5 0 1 5 hvcurveto
          -41 -42 -33 -48 -40 vvcurveto
          -43 30 -25 50 50 47 8 20 45 vhcurveto
          -75 -78 -100 -106 -25 vvcurveto
          -13 8 -7 12 29 100 108 80 76 vhcurveto
          45 48 106 100 38 vvcurveto
          13 -5 10 -13 vhcurveto
          endchar
        </CharString>
        <CharString name="dvDH_RA">
          100 316 callgsubr
          3 -6 hvcurveto
          65 44 72 67 39 hhcurveto
          192 15 9 callsubr
          -106 -155 -166 -115 -49 29 -39 56 hvcurveto
          209 callsubr
          -13 -63 -14 -59 -8 -40 rrcurveto
          19 -24 -32 14 -33 hhcurveto
          -51 -60 -34 -39 -44 hvcurveto
          -61 -55 -66 -73 -24 221 callsubr
          25 61 73 50 56 vhcurveto
          35 39 45 22 35 hhcurveto
          36 27 -22 -23 23 hvcurveto
          6 -4 6 -4 8 -1 rrcurveto
          -4 5 5 -3 4 86 callgsubr
        </CharString>
        <CharString name="dvDH_VA">
          400 567 135 -75 callgsubr
          -233 495 33 callsubr
          161 15 -106 callsubr
          374 hlineto
          -49 callsubr
          -88 -68 -80 -91 -35 hvcurveto
          -51 -58 -105 -94 -129 6 callgsubr
          182 callsubr
          hvcurveto
          4 5 0 4 hhcurveto
          -40 -41 -32 -47 -39 vvcurveto
          -43 30 -25 50 97 108 47 55 73 vhcurveto
          -1 -7 0 -8 -7 vvcurveto
          -99 callgsubr
        </CharString>
        <CharString name="dvDH_YA">
          470 890 239 callgsubr
          -488 hmoveto
          63 84 callgsubr
          27 hvcurveto
          -73 279 callgsubr
          79 15 rmoveto
          -2 hlineto
          31 -8 -25 17 -37 hhcurveto
          182 callsubr
          6 6 0 1 6 hvcurveto
          133 callsubr
          118 -61 callgsubr
        </CharString>
        <CharString name="dvD_BA">
          50 470 279 callsubr
          -308 -295 rmoveto
          -42 -17 17 33 25 14 21 21 17 hvcurveto
          334 callgsubr
          124 158 226 callsubr
          -200 599 -106 callsubr
          396 213 callgsubr
          -66 45 -46 83 48 47 22 33 35 vhcurveto
          -46 5 11 -35 22 116 callgsubr
          159 -102 callgsubr
        </CharString>
        <CharString name="dvD_BHA">
          193 618 278 callsubr
          -465 -415 rmoveto
          -21 -35 29 23 26 37 27 68 13 hvcurveto
          -57 -17 -61 -32 vhcurveto
          -50 254 rmoveto
          -20 -10 10 16 29 30 54 29 23 17 -38 -49 11 hvcurveto
          -13 -25 -29 -9 -26 hhcurveto
          -39 622 -106 callsubr
          555 -22 callsubr
          -108 326 callsubr
          83 -42 114 hvcurveto
          8 hlineto
          -8 -31 -7 -32 -7 -32 -2 -10 rcurveline
          10 -45 -68 2 -56 hhcurveto
          -11 hlineto
          99 -8 -35 155 -86 hhcurveto
          -72 -59 -101 -65 -51 43 -25 50 34 33 9 15 30 hvcurveto
          2 -15 2 -14 1 -14 rrcurveto
          -89 -17 -80 -46 -58 vvcurveto
          -54 76 -65 52 74 30 98 91 4 vhcurveto
          1 9 10 0 10 hhcurveto
          47 58 -4 -2 34 hvcurveto
          -12 -58 -12 -62 -26 vvcurveto
          -17 6 -14 15 30 19 97 131 31 vhcurveto
          8 34 11 41 13 39 rrcurveto
          80 17 68 42 58 301 callgsubr
          -62 -39 -54 -74 -27 vhcurveto
          -1 -10 -10 0 -10 hhcurveto
          -77 -46 58 callgsubr
          52 13 -37 98 callsubr
          7 6 hvcurveto
          10 7 2 14 17 vvcurveto
          96 23 48 13 31 vhcurveto
          147 -107 callgsubr
        </CharString>
        <CharString name="dvD_B_RA">
          26 431 279 callsubr
          -367 -245 rmoveto
          25 14 21 21 17 vhcurveto
          334 callgsubr
          -42 -17 17 33 hvcurveto
          183 108 226 callsubr
          -197 599 -64 callsubr
          393 213 callgsubr
          -61 38 -44 71 -6 vhcurveto
          -56 -48 -43 -44 -20 vvcurveto
          -10 5 -7 13 26 106 111 66 99 vhcurveto
          -43 4 12 -32 21 116 callgsubr
          151 -107 callgsubr
        </CharString>
        <CharString name="dvD_DA">
          -57 49 -50 callsubr
          286 hlineto
          -5 0 -5 -5 -39 -2 -34 -26 vvcurveto
          -1 hlineto
          -106 -121 -64 -80 -41 44 -23 46 -12 hvcurveto
          -82 -34 -83 -62 -54 vvcurveto
          -29 25 -28 26 -11 vhcurveto
          -12 28 32 -4 42 hhcurveto
          30 31 4 7 28 hvcurveto
          -85 6 54 -71 60 hhcurveto
          20 11 7 11 hvcurveto
          29 -90 -10 131 vvcurveto
          8 vlineto
          39 17 27 23 24 vvcurveto
          23 -16 16 -28 -26 -34 -19 -43 -15 vhcurveto
          -7 -27 -29 -4 -29 hhcurveto
          -59 -35 6 15 20 31 33 67 33 hvcurveto
          74 39 65 8 23 vvcurveto
          1 vlineto
          0 vlineto
          40 -164 -7 42 vvcurveto
          37 95 36 64 vhcurveto
          18 3 -7 10 hhcurveto
          5 6 4 6 4 hvcurveto
          18 23 9 69 48 vvcurveto
          14 -3 13 -4 11 vhcurveto
          170 -102 callgsubr
        </CharString>
        <CharString name="dvD_DHA">
          124 410 45 rmoveto
          -78 -39 -132 -116 -109 hhcurveto
          -10 -5 4 8 hvcurveto
          52 111 69 29 vvcurveto
          14 -9 5 -13 -5 -6 -2 -2 -7 vhcurveto
          -7 -26 -46 -19 -48 hhcurveto
          -19 -9 6 16 8 2 10 2 9 hvcurveto
          -1 5 4 0 5 hhcurveto
          69 61 25 34 38 hvcurveto
          -43 31 65 -21 80 256 callsubr
          -376 14 rmoveto
          17 5 -10 -13 -32 -66 -34 -69 -1 hvcurveto
          47 31 46 43 36 hhcurveto
          -147 447 -106 callsubr
          524 50 callsubr
          -83 -108 -116 -98 -46 hvcurveto
          5 -10 -11 3 -14 hhcurveto
          -102 -109 -136 -98 -49 35 -26 53 8 8 0 1 9 hvcurveto
          -27 -31 -20 -35 -27 vvcurveto
          -38 25 -32 54 85 101 57 65 69 vhcurveto
          -5 -24 -5 -22 -5 -21 354 callsubr
          35 18 295 callgsubr
          -24 32 -47 -61 -38 -54 -74 -27 vhcurveto
          -1 -11 -11 0 -11 hhcurveto
          -76 -46 58 callgsubr
          51 13 -37 26 hhcurveto
          7 7 3 6 5 hvcurveto
          12 6 3 16 18 vvcurveto
          96 22 48 13 31 vhcurveto
          138 -107 callgsubr
        </CharString>
        <CharString name="dvD_GA">
          -21 404 278 callsubr
          -407 -345 282 callgsubr
          18 806 -64 callsubr
          390 -22 callsubr
          -108 242 callgsubr
          -36 15 -28 27 -21 hvcurveto
          -6 vlineto
          289 callsubr
          89 55 152 123 6 hvcurveto
          -8 28 33 -4 36 hhcurveto
          9 hlineto
          -7 -23 -5 -23 -6 -24 rrcurveto
          -21 -93 -17 -92 -42 vvcurveto
          -17 5 -18 15 26 21 98 129 31 vhcurveto
          8 34 11 41 13 39 rrcurveto
          80 17 68 42 58 301 callgsubr
          -63 -37 -54 -74 -28 vhcurveto
          -1 -10 -10 0 -10 hhcurveto
          -77 -46 58 callgsubr
          52 13 -37 98 callsubr
          7 6 hvcurveto
          10 7 2 14 17 vvcurveto
          96 23 48 13 31 vhcurveto
          151 -102 callgsubr
        </CharString>
        <CharString name="dvD_GHA">
          105 384 45 rmoveto
          -92 -53 -138 -110 -104 hhcurveto
          -8 -4 2 6 18 22 30 50 46 hvcurveto
          31 29 31 16 20 vvcurveto
          15 -12 8 -14 vhcurveto
          -1 0 hlineto
          -58 4 -53 3 16 vvcurveto
          23 61 63 45 25 vhcurveto
          -81 2 84 -41 111 256 callsubr
          -463 461 -106 callsubr
          464 50 callsubr
          -85 -112 -122 -99 -44 hvcurveto
          -73 -13 -125 -116 -59 vvcurveto
          -39 47 -24 50 -7 vhcurveto
          -10 -8 -9 -8 -9 -9 rrcurveto
          -42 -41 -25 -44 -30 vvcurveto
          -40 28 -30 56 88 106 60 67 75 vhcurveto
          -5 -21 -4 -20 -5 -19 354 callsubr
          34 19 295 callgsubr
          -25 32 -46 -62 -38 -54 -74 -27 vhcurveto
          -1 -10 -11 0 -11 hhcurveto
          -76 -46 58 callgsubr
          51 13 -37 26 hhcurveto
          7 7 4 5 6 hvcurveto
          11 7 3 15 18 vvcurveto
          96 22 48 13 31 vhcurveto
          145 -107 callgsubr
        </CharString>
        <CharString name="dvD_G_RA">
          46 54 -161 282 callgsubr
          438 350 rmoveto
          14 3 6 -6 -3 -12 -4 -18 -25 -16 -36 -10 14 33 16 23 18 3 rrcurveto
          -429 456 -106 callsubr
          415 -22 callsubr
          -108 242 callgsubr
          -26 9 -23 16 -17 hvcurveto
          -8 1 -9 -8 vvcurveto
          289 callsubr
          90 56 158 125 4 hvcurveto
          -13 35 44 -7 47 hhcurveto
          13 hlineto
          -8 -29 -7 -31 -6 -31 -13 -61 rcurveline
          -98 -61 -153 -123 -39 vvcurveto
          -10 6 -7 13 23 109 105 62 86 vhcurveto
          -6 -33 -4 -28 -13 vvcurveto
          -18 3 -15 16 34 19 98 129 30 vhcurveto
          8 34 10 41 11 39 rrcurveto
          80 18 71 41 58 vvcurveto
          43 -25 35 -50 -62 -38 -55 -77 -28 vhcurveto
          -1 -10 -12 0 -11 hhcurveto
          -77 -59 16 40 69 120 148 67 hvcurveto
          52 13 -37 98 callsubr
          7 6 hvcurveto
          10 7 2 14 17 vvcurveto
          96 23 48 13 31 vhcurveto
          160 -107 callgsubr
        </CharString>
        <CharString name="dvD_MA">
          256 643 325 rmoveto
          -62 -23 -83 -26 -63 -21 -35 -12 -37 -12 -36 -12 rrcurveto
          -59 42 -69 25 49 vvcurveto
          50 44 23 50 vhcurveto
          74 14 -33 26 hhcurveto
          3 2 0 1 2 hvcurveto
          22 4 31 90 70 vvcurveto
          13 -1 12 -3 11 vhcurveto
          232 hlineto
          -16 -78 -16 -82 -19 -88 rrcurveto
          -296 -241 rmoveto
          -32 -41 -17 -50 -48 -27 14 20 25 59 25 76 25 vhcurveto
          19 -17 12 -19 -24 vvcurveto
          -274 558 -64 callsubr
          332 hlineto
          -2 -13 -2 -14 -1 -14 -4 -38 -4 -27 -4 -21 rrcurveto
          15 -25 -35 11 -40 hhcurveto
          -92 -71 -56 -78 -77 63 -38 59 -34 hvcurveto
          -79 -30 -59 -35 -52 vvcurveto
          -52 53 -45 94 87 65 46 61 33 -10 27 -17 22 vhcurveto
          28 9 28 9 27 9 51 18 59 18 51 15 rrcurveto
          -21 -94 -18 -79 -27 vvcurveto
          -14 31 -24 14 326 callgsubr
          176 callsubr
          119 -102 callgsubr
        </CharString>
        <CharString name="dvD_NA">
          -17 398 189 callsubr
          -330 -398 rmoveto
          -30 -7 -25 -28 -29 -35 11 23 26 35 34 46 24 vhcurveto
          12 -18 6 -22 -23 vvcurveto
          -38 860 -106 callsubr
          375 68 callgsubr
          -1 vlineto
          9 -20 232 callsubr
          -109 326 callsubr
          84 -42 113 hvcurveto
          2 hlineto
          -7 -31 -4 -31 -27 vvcurveto
          -12 1 -13 1 -12 vhcurveto
          13 -22 -26 8 -34 hhcurveto
          -122 -133 -93 -75 -55 67 -45 70 63 29 52 56 33 -9 34 -16 24 hvcurveto
          5 19 19 3 18 hhcurveto
          38 27 -11 -25 36 hvcurveto
          -5 4 5 -2 6 hhcurveto
          13 4 18 26 2 hvcurveto
          1 23 -1 20 4 43 2 27 5 30 8 29 rrcurveto
          85 17 76 45 57 360 callsubr
          -61 -47 -58 -70 -28 vhcurveto
          -1 -8 -7 0 -8 hhcurveto
          -77 -45 58 callgsubr
          51 13 -37 98 callsubr
          7 6 hvcurveto
          10 7 2 14 17 vvcurveto
          96 23 48 13 31 vhcurveto
          144 -107 callgsubr
        </CharString>
        <CharString name="dvD_R">
          -17 12 -255 -38 callsubr
          386 438 108 callsubr
          -353 195 callsubr
          360 68 callgsubr
          -1 vlineto
          9 -20 232 callsubr
          -109 326 callsubr
          84 -42 113 hvcurveto
          -66 callgsubr
        </CharString>
        <CharString name="dvD_RA">
          -48 398 189 callsubr
          -353 195 callsubr
          360 68 callgsubr
          -1 vlineto
          9 -20 232 callsubr
          -109 326 callsubr
          84 -42 113 hvcurveto
          -66 callgsubr
        </CharString>
        <CharString name="dvD_VA">
          -58 398 143 callgsubr
          -201 599 -106 callsubr
          397 -22 callsubr
          -108 242 callgsubr
          -39 18 -29 30 -21 hvcurveto
          63 callsubr
        </CharString>
        <CharString name="dvD_YA">
          126 344 308 rmoveto
          0 vlineto
          0 vlineto
          1 vlineto
          0 vlineto
          0 vlineto
          37 -142 -9 52 vvcurveto
          32 64 27 48 vhcurveto
          18 3 -7 9 hhcurveto
          4 5 3 5 4 hvcurveto
          17 16 8 47 26 vvcurveto
          14 -2 13 -4 11 vhcurveto
          181 hlineto
          -12 -70 -14 -68 -14 -72 rrcurveto
          -92 -53 -120 -120 -152 hhcurveto
          -8 -7 3 7 16 26 28 37 28 hvcurveto
          43 33 59 22 2 17 rrcurveto
          -309 337 -64 callsubr
          280 hlineto
          -5 0 -5 -5 vvcurveto
          -46 -3 vlineto
          -85 -93 -55 -74 -47 43 -30 44 -13 hvcurveto
          -60 -34 -58 -57 -44 vvcurveto
          -40 41 -32 48 111 107 55 66 75 vhcurveto
          -17 -79 -14 -67 -15 vvcurveto
          -17 35 -25 12 22 35 183 131 29 vhcurveto
          20 90 28 126 5 317 callsubr
        </CharString>
        <CharString name="dvE">
          50 50 34 callgsubr
          123 hlineto
          -7 -127 -93 -238 -117 vvcurveto
          -84 50 -40 109 102 128 38 51 16 -10 10 -19 vhcurveto
          -53 -33 -41 -128 hhcurveto
          -49 -13 13 44 105 97 254 6 116 hvcurveto
          190 hlineto
          18 -24 25 -34 -64 vvcurveto
          -81 -54 -62 -87 -24 -8 -9 -13 -17 17 -22 42 108 83 82 119 51 -14 43 -21 31 vhcurveto
          127 -107 callgsubr
        </CharString>
        <CharString name="dvEcandra">
          54 478 707 rmoveto
          142 67 82 55 17 -29 23 -16 hvcurveto
          23 callgsubr
          vhcurveto
          -424 -62 -73 callsubr
          123 hlineto
          -7 -127 -93 -238 -117 vvcurveto
          -84 50 -40 109 102 128 38 51 16 -10 10 -19 vhcurveto
          -53 -33 -41 -128 hhcurveto
          -49 -13 13 44 105 97 254 6 116 hvcurveto
          190 hlineto
          18 -24 25 -34 -64 vvcurveto
          -81 -54 -62 -87 -24 -8 -9 -13 -17 17 -22 42 108 83 82 119 51 -14 43 -21 31 vhcurveto
          127 -107 callgsubr
        </CharString>
        <CharString name="dvEight">
          -42 73 221 rmoveto
          -100 75 -43 102 104 111 55 49 15 -9 6 -13 vhcurveto
          -25 -47 -50 -116 hhcurveto
          -59 -42 18 52 hvcurveto
          160 224 160 29 vvcurveto
          15 -29 22 -18 -41 -217 -218 -170 vhcurveto
          endchar
        </CharString>
        <CharString name="dvEyelash">
          195 296 rmoveto
          -22 -31 -41 -7 -43 hhcurveto
          -65 -39 14 55 hvcurveto
          8 2 5 10 vvcurveto
          14 -33 25 -18 -16 -6 -13 -20 -103 70 -53 106 57 55 19 29 37 vhcurveto
          endchar
        </CharString>
        <CharString name="dvEyelash_HA">
          93 299 34 callgsubr
          238 54 callsubr
          -29 12 -25 19 -21 hvcurveto
          -10 -3 -8 -4 -9 -4 rrcurveto
          0 vlineto
          -7 -5 -3 -1 rlineto
          -17 -29 -36 -6 -39 hhcurveto
          -65 -40 14 55 hvcurveto
          8 3 5 10 vvcurveto
          14 -33 25 -18 -16 -7 -13 -20 -103 71 -53 106 11 11 1 1 11 vhcurveto
          -12 -25 -6 -29 -30 -66 callsubr
        </CharString>
        <CharString name="dvEyelash_YA">
          199 617 506 237 callsubr
          123 callsubr
          -34 -11 -31 -17 -28 hvcurveto
          -26 -30 -50 -7 -41 hhcurveto
          -65 -39 13 55 hvcurveto
          8 2 6 10 vvcurveto
          14 -33 24 -18 -16 -6 -12 -21 -106 73 -50 106 12 12 1 2 11 vhcurveto
          -45 -38 -43 -27 -16 98 callgsubr
          113 130 50 87 92 vhcurveto
          -105 callsubr
        </CharString>
        <CharString name="dvFive">
          -49 265 207 rmoveto
          -91 -30 -22 -95 -47 -50 -36 44 -23 hhcurveto
          -11 -4 -8 -11 -39 66 -48 60 121 1 129 133 55 hvcurveto
          62 20 44 42 43 vvcurveto
          25 -30 19 -29 -45 -30 -38 -51 -24 vhcurveto
          -1 -9 -9 0 -8 hhcurveto
          -58 -34 22 48 84 109 96 83 47 hvcurveto
          22 12 24 7 9 vvcurveto
          16 -34 24 -23 -75 -184 -164 -129 -85 58 -60 106 vhcurveto
          endchar
        </CharString>
        <CharString name="dvFour">
          13 300 130 rmoveto
          -35 -58 32 47 58 37 61 51 56 hvcurveto
          41 -65 27 -64 -67 vvcurveto
          -42 -24 -16 -39 vhcurveto
          -49 317 rmoveto
          -68 -74 -53 -84 -67 vvcurveto
          -74 84 -87 88 88 48 46 75 77 -36 96 -53 84 vhcurveto
          95 90 108 70 20 vvcurveto
          10 -9 6 -20 -45 -90 -57 -76 -83 vhcurveto
          82 -64 -77 60 -65 hhcurveto
          -17 -9 -6 -12 -26 89 -38 70 -90 hvcurveto
          endchar
        </CharString>
        <CharString name="dvG">
          -125 197 179 rmoveto
          -97 callgsubr
          154 -102 callgsubr
        </CharString>
        <CharString name="dvGA">
          104 215 266 callgsubr
          -107 285 callsubr
          199 152 callsubr
          -83 -64 -29 -70 -79 68 -103 79 -5 callgsubr
        </CharString>
        <CharString name="dvGH">
          -193 64 -50 callsubr
          143 hlineto
          -63 -37 -60 -58 -46 vvcurveto
          -44 61 -34 60 -13 vhcurveto
          -14 -10 -12 -11 -12 -11 211 callgsubr
          150 185 125 68 14 -5 11 -19 -15 -18 -17 -21 -23 vhcurveto
          -54 -56 -90 -58 -106 57 callgsubr
          114 72 45 vhcurveto
          32 13 -29 19 hhcurveto
          8 6 8 10 12 -9 16 -12 15 hvcurveto
          125 -107 callgsubr
        </CharString>
        <CharString name="dvGHA">
          73 514 116 callsubr
          -311 134 callsubr
          145 97 callsubr
        </CharString>
        <CharString name="dvGH_MA">
          510 708 -3 callsubr
          -88 -15 -75 -21 -30 -39 -9 -8 -9 -8 -9 -7 rrcurveto
          -47 -58 -80 -62 -110 57 callgsubr
          114 72 45 vhcurveto
          32 13 -29 19 hhcurveto
          8 6 8 10 12 -9 16 -12 15 hvcurveto
          -309 -70 callsubr
          143 hlineto
          -63 -37 -60 -58 -46 vvcurveto
          -44 61 -34 60 -13 vhcurveto
          -14 -10 -12 -11 -12 -11 211 callgsubr
          93 112 52 56 70 vhcurveto
          -54 23 52 -56 52 hhcurveto
          119 callgsubr
          hvcurveto
          70 10 76 11 64 16 -7 -37 -92 callsubr
          118 -106 callgsubr
          endchar
        </CharString>
</ttFont>
